# 
# Generated by Sweet Home 3D - Sa Feb 13 11:36:11 MEZ 2016
# http://www.sweethome3d.com/
# 
mtllib Treppenstuffe8.mtl
g wall_1_1
usemtl wall_1_1
v 55.5 0.0 200.55922
v 55.5 0.0 230.55922
v 61.5 0.0 230.55922
v 61.5 0.0 206.55922
vn 0.0 -1.0 0.0
f 4//1 3//1 2//1
f 4//1 2//1 1//1
g wall_1_2
usemtl wall_1_1
v 67.5 0.0 230.55922
v 67.5 0.0 212.55922
f 6//1 5//1 3//1
f 6//1 3//1 4//1
g wall_1_3
usemtl wall_1_1
v 55.5 100.0 230.55922
v 55.5 100.0 200.55922
v 61.5 100.0 230.55922
v 61.5 100.0 206.55922
vn -1.0 0.0 0.0
vn 0.0 0.0 1.0
vn 0.70710677 0.0 -0.70710677
vn 0.0 0.0 0.0
f 1//2 2//2 7//2 8//2
f 2//3 3//3 9//3 7//3
f 4//4 1//4 8//4 10//4
g wall_1_4
usemtl wall_1_1
v 67.5 100.0 230.55922
v 67.5 100.0 212.55922
vn 1.0 0.0 0.0
f 3//3 5//3 11//3 9//3
f 5//6 6//6 12//6 11//6
f 6//4 4//4 10//4 12//4
g wall_1_5
usemtl wall_1_1
vn 0.0 1.0 0.0
f 8//7 7//7 9//7
f 8//7 9//7 10//7
g wall_1_6
usemtl wall_1_1
f 10//7 9//7 11//7
f 10//7 11//7 12//7
g wall_2_7
usemtl wall_1_1
v 101.5 0.0 206.55922
v 101.5 0.0 200.55922
f 14//1 13//1 4//1
f 14//1 4//1 1//1
g wall_2_8
usemtl wall_1_1
v 101.5 0.0 212.55922
f 13//1 15//1 6//1
f 13//1 6//1 4//1
g wall_2_9
usemtl wall_1_1
v 101.5 100.0 200.55922
v 101.5 100.0 206.55922
vn -0.70710677 0.0 0.70710677
vn 0.0 0.0 -1.0
f 1//8 4//8 10//8 8//8
f 13//6 14//6 16//6 17//6
f 14//9 1//9 8//9 16//9
g wall_2_10
usemtl wall_1_1
v 101.5 100.0 212.55922
f 4//8 6//8 12//8 10//8
f 6//3 15//3 18//3 12//3
f 15//6 13//6 17//6 18//6
g wall_2_11
usemtl wall_1_1
f 8//7 10//7 17//7
f 8//7 17//7 16//7
g wall_2_12
usemtl wall_1_1
f 10//7 12//7 18//7
f 10//7 18//7 17//7
g wall_3_13
usemtl wall_1_1
v 89.58481 0.0 170.7462
v 89.58481 0.0 200.7462
v 95.58481 0.0 200.7462
v 95.58481 0.0 176.7462
f 22//1 21//1 20//1
f 22//1 20//1 19//1
g wall_3_14
usemtl wall_1_1
v 101.58481 0.0 200.7462
v 101.58481 0.0 182.7462
f 24//1 23//1 21//1
f 24//1 21//1 22//1
g wall_3_15
usemtl wall_1_1
v 89.58481 100.0 200.7462
v 89.58481 100.0 170.7462
v 95.58481 100.0 200.7462
v 95.58481 100.0 176.7462
f 19//2 20//2 25//2 26//2
f 20//3 21//3 27//3 25//3
f 22//4 19//4 26//4 28//4
g wall_3_16
usemtl wall_1_1
v 101.58481 100.0 200.7462
v 101.58481 100.0 182.7462
f 21//3 23//3 29//3 27//3
f 23//6 24//6 30//6 29//6
f 24//4 22//4 28//4 30//4
g wall_3_17
usemtl wall_1_1
f 26//7 25//7 27//7
f 26//7 27//7 28//7
g wall_3_18
usemtl wall_1_1
f 28//7 27//7 29//7
f 28//7 29//7 30//7
g wall_4_19
usemtl wall_1_1
v 135.58481 0.0 176.7462
v 135.58481 0.0 170.7462
f 32//1 31//1 22//1
f 32//1 22//1 19//1
g wall_4_20
usemtl wall_1_1
v 135.58481 0.0 182.7462
f 31//1 33//1 24//1
f 31//1 24//1 22//1
g wall_4_21
usemtl wall_1_1
v 135.58481 100.0 170.7462
v 135.58481 100.0 176.7462
f 19//8 22//8 28//8 26//8
f 31//6 32//6 34//6 35//6
f 32//9 19//9 26//9 34//9
g wall_4_22
usemtl wall_1_1
v 135.58481 100.0 182.7462
f 22//8 24//8 30//8 28//8
f 24//3 33//3 36//3 30//3
f 33//6 31//6 35//6 36//6
g wall_4_23
usemtl wall_1_1
f 26//7 28//7 35//7
f 26//7 35//7 34//7
g wall_4_24
usemtl wall_1_1
f 28//7 30//7 36//7
f 28//7 36//7 35//7
g wall_5_25
usemtl wall_1_1
v 89.38483 0.0 176.54622
v 89.38483 0.0 200.54622
v 95.38483 0.0 200.54622
v 95.38483 0.0 176.54622
f 40//1 39//1 38//1
f 40//1 38//1 37//1
g wall_5_26
usemtl wall_1_1
v 101.38483 0.0 200.54622
v 101.38483 0.0 176.54622
f 42//1 41//1 39//1
f 42//1 39//1 40//1
g wall_5_27
usemtl wall_1_1
v 89.38483 100.0 200.54622
v 89.38483 100.0 176.54622
v 95.38483 100.0 200.54622
v 95.38483 100.0 176.54622
f 37//2 38//2 43//2 44//2
f 38//3 39//3 45//3 43//3
f 40//9 37//9 44//9 46//9
g wall_5_28
usemtl wall_1_1
v 101.38483 100.0 200.54622
v 101.38483 100.0 176.54622
f 39//3 41//3 47//3 45//3
f 41//6 42//6 48//6 47//6
f 42//9 40//9 46//9 48//9
g wall_5_29
usemtl wall_1_1
f 44//7 43//7 45//7
f 44//7 45//7 46//7
g wall_5_30
usemtl wall_1_1
f 46//7 45//7 47//7
f 46//7 47//7 48//7
g wall_6_31
usemtl wall_1_1
v 123.459854 0.0 140.82635
v 123.459854 0.0 170.82635
v 129.45985 0.0 170.82635
v 129.45985 0.0 146.82635
f 52//1 51//1 50//1
f 52//1 50//1 49//1
g wall_6_32
usemtl wall_1_1
v 135.45985 0.0 170.82635
v 135.45985 0.0 152.82635
f 54//1 53//1 51//1
f 54//1 51//1 52//1
g wall_6_33
usemtl wall_1_1
v 123.459854 100.0 170.82635
v 123.459854 100.0 140.82635
v 129.45985 100.0 170.82635
v 129.45985 100.0 146.82635
f 49//2 50//2 55//2 56//2
f 50//3 51//3 57//3 55//3
f 52//4 49//4 56//4 58//4
g wall_6_34
usemtl wall_1_1
v 135.45985 100.0 170.82635
v 135.45985 100.0 152.82635
f 51//3 53//3 59//3 57//3
f 53//6 54//6 60//6 59//6
f 54//4 52//4 58//4 60//4
g wall_6_35
usemtl wall_1_1
f 56//7 55//7 57//7
f 56//7 57//7 58//7
g wall_6_36
usemtl wall_1_1
f 58//7 57//7 59//7
f 58//7 59//7 60//7
g wall_7_37
usemtl wall_1_1
v 169.45985 0.0 146.82635
v 169.45985 0.0 140.82635
f 62//1 61//1 52//1
f 62//1 52//1 49//1
g wall_7_38
usemtl wall_1_1
v 169.45985 0.0 152.82635
f 61//1 63//1 54//1
f 61//1 54//1 52//1
g wall_7_39
usemtl wall_1_1
v 169.45985 100.0 140.82635
v 169.45985 100.0 146.82635
f 49//8 52//8 58//8 56//8
f 61//6 62//6 64//6 65//6
f 62//9 49//9 56//9 64//9
g wall_7_40
usemtl wall_1_1
v 169.45985 100.0 152.82635
f 52//8 54//8 60//8 58//8
f 54//3 63//3 66//3 60//3
f 63//6 61//6 65//6 66//6
g wall_7_41
usemtl wall_1_1
f 56//7 58//7 65//7
f 56//7 65//7 64//7
g wall_7_42
usemtl wall_1_1
f 58//7 60//7 66//7
f 58//7 66//7 65//7
g wall_8_43
usemtl wall_1_1
v 157.54466 0.0 111.01339
v 157.54466 0.0 141.01334
v 163.54466 0.0 141.01334
v 163.54466 0.0 117.01339
f 70//1 69//1 68//1
f 70//1 68//1 67//1
g wall_8_44
usemtl wall_1_1
v 169.54466 0.0 141.01334
v 169.54466 0.0 123.01339
f 72//1 71//1 69//1
f 72//1 69//1 70//1
g wall_8_45
usemtl wall_1_1
v 157.54466 100.0 141.01334
v 157.54466 100.0 111.01339
v 163.54466 100.0 141.01334
v 163.54466 100.0 117.01339
f 67//2 68//2 73//2 74//2
f 68//3 69//3 75//3 73//3
f 70//4 67//4 74//4 76//4
g wall_8_46
usemtl wall_1_1
v 169.54466 100.0 141.01334
v 169.54466 100.0 123.01339
f 69//3 71//3 77//3 75//3
f 71//6 72//6 78//6 77//6
f 72//4 70//4 76//4 78//4
g wall_8_47
usemtl wall_1_1
f 74//7 73//7 75//7
f 74//7 75//7 76//7
g wall_8_48
usemtl wall_1_1
f 76//7 75//7 77//7
f 76//7 77//7 78//7
g wall_9_49
usemtl wall_1_1
v 203.54466 0.0 117.01339
v 203.54466 0.0 111.01339
f 80//1 79//1 70//1
f 80//1 70//1 67//1
g wall_9_50
usemtl wall_1_1
v 203.54466 0.0 123.01339
f 79//1 81//1 72//1
f 79//1 72//1 70//1
g wall_9_51
usemtl wall_1_1
v 203.54466 100.0 111.01339
v 203.54466 100.0 117.01339
f 67//8 70//8 76//8 74//8
f 79//6 80//6 82//6 83//6
f 80//9 67//9 74//9 82//9
g wall_9_52
usemtl wall_1_1
v 203.54466 100.0 123.01339
f 70//8 72//8 78//8 76//8
f 72//3 81//3 84//3 78//3
f 81//6 79//6 83//6 84//6
g wall_9_53
usemtl wall_1_1
f 74//7 76//7 83//7
f 74//7 83//7 82//7
g wall_9_54
usemtl wall_1_1
f 76//7 78//7 84//7
f 76//7 84//7 83//7
g wall_10_55
usemtl wall_1_1
v 157.34468 0.0 116.81341
v 157.34468 0.0 140.81335
v 163.34468 0.0 140.81335
v 163.34468 0.0 116.81341
f 88//1 87//1 86//1
f 88//1 86//1 85//1
g wall_10_56
usemtl wall_1_1
v 169.34468 0.0 140.81335
v 169.34468 0.0 116.81341
f 90//1 89//1 87//1
f 90//1 87//1 88//1
g wall_10_57
usemtl wall_1_1
v 157.34468 100.0 140.81335
v 157.34468 100.0 116.81341
v 163.34468 100.0 140.81335
v 163.34468 100.0 116.81341
f 85//2 86//2 91//2 92//2
f 86//3 87//3 93//3 91//3
f 88//9 85//9 92//9 94//9
g wall_10_58
usemtl wall_1_1
v 169.34468 100.0 140.81335
v 169.34468 100.0 116.81341
f 87//3 89//3 95//3 93//3
f 89//6 90//6 96//6 95//6
f 90//9 88//9 94//9 96//9
g wall_10_59
usemtl wall_1_1
f 92//7 91//7 93//7
f 92//7 93//7 94//7
g wall_10_60
usemtl wall_1_1
f 94//7 93//7 95//7
f 94//7 95//7 96//7
g wall_11_61
usemtl wall_1_1
v 191.6239 0.0 81.287544
v 191.6239 0.0 111.28755
v 197.6239 0.0 111.28755
v 197.6239 0.0 87.287544
f 100//1 99//1 98//1
f 100//1 98//1 97//1
g wall_11_62
usemtl wall_1_1
v 203.6239 0.0 111.28755
v 203.6239 0.0 93.287544
f 102//1 101//1 99//1
f 102//1 99//1 100//1
g wall_11_63
usemtl wall_1_1
v 191.6239 100.0 111.28755
v 191.6239 100.0 81.287544
v 197.6239 100.0 111.28755
v 197.6239 100.0 87.287544
f 97//2 98//2 103//2 104//2
f 98//3 99//3 105//3 103//3
f 100//4 97//4 104//4 106//4
g wall_11_64
usemtl wall_1_1
v 203.6239 100.0 111.28755
v 203.6239 100.0 93.287544
f 99//3 101//3 107//3 105//3
f 101//6 102//6 108//6 107//6
f 102//4 100//4 106//4 108//4
g wall_11_65
usemtl wall_1_1
f 104//7 103//7 105//7
f 104//7 105//7 106//7
g wall_11_66
usemtl wall_1_1
f 106//7 105//7 107//7
f 106//7 107//7 108//7
g wall_12_67
usemtl wall_1_1
v 237.6239 0.0 87.287544
v 237.6239 0.0 81.287544
f 110//1 109//1 100//1
f 110//1 100//1 97//1
g wall_12_68
usemtl wall_1_1
v 237.6239 0.0 93.287544
f 109//1 111//1 102//1
f 109//1 102//1 100//1
g wall_12_69
usemtl wall_1_1
v 237.6239 100.0 81.287544
v 237.6239 100.0 87.287544
f 97//8 100//8 106//8 104//8
f 109//6 110//6 112//6 113//6
f 110//9 97//9 104//9 112//9
g wall_12_70
usemtl wall_1_1
v 237.6239 100.0 93.287544
f 100//8 102//8 108//8 106//8
f 102//3 111//3 114//3 108//3
f 111//6 109//6 113//6 114//6
g wall_12_71
usemtl wall_1_1
f 104//7 106//7 113//7
f 104//7 113//7 112//7
g wall_12_72
usemtl wall_1_1
f 106//7 108//7 114//7
f 106//7 114//7 113//7
g wall_13_73
usemtl wall_1_1
v 225.70871 0.0 51.474525
v 225.70871 0.0 81.474525
v 231.70871 0.0 81.474525
v 231.70871 0.0 57.474525
f 118//1 117//1 116//1
f 118//1 116//1 115//1
g wall_13_74
usemtl wall_1_1
v 237.70871 0.0 81.474525
v 237.70871 0.0 63.474525
f 120//1 119//1 117//1
f 120//1 117//1 118//1
g wall_13_75
usemtl wall_1_1
v 225.70871 100.0 81.474525
v 225.70871 100.0 51.474525
v 231.70871 100.0 81.474525
v 231.70871 100.0 57.474525
f 115//2 116//2 121//2 122//2
f 116//3 117//3 123//3 121//3
f 118//4 115//4 122//4 124//4
g wall_13_76
usemtl wall_1_1
v 237.70871 100.0 81.474525
v 237.70871 100.0 63.474525
f 117//3 119//3 125//3 123//3
f 119//6 120//6 126//6 125//6
f 120//4 118//4 124//4 126//4
g wall_13_77
usemtl wall_1_1
f 122//7 121//7 123//7
f 122//7 123//7 124//7
g wall_13_78
usemtl wall_1_1
f 124//7 123//7 125//7
f 124//7 125//7 126//7
g wall_14_79
usemtl wall_1_1
v 271.7087 0.0 57.474525
v 271.7087 0.0 51.474525
f 128//1 127//1 118//1
f 128//1 118//1 115//1
g wall_14_80
usemtl wall_1_1
v 271.7087 0.0 63.474525
f 127//1 129//1 120//1
f 127//1 120//1 118//1
g wall_14_81
usemtl wall_1_1
v 271.7087 100.0 51.474525
v 271.7087 100.0 57.474525
f 115//8 118//8 124//8 122//8
f 127//6 128//6 130//6 131//6
f 128//9 115//9 122//9 130//9
g wall_14_82
usemtl wall_1_1
v 271.7087 100.0 63.474525
f 118//8 120//8 126//8 124//8
f 120//3 129//3 132//3 126//3
f 129//6 127//6 131//6 132//6
g wall_14_83
usemtl wall_1_1
f 122//7 124//7 131//7
f 122//7 131//7 130//7
g wall_14_84
usemtl wall_1_1
f 124//7 126//7 132//7
f 124//7 132//7 131//7
g wall_15_85
usemtl wall_1_1
v 225.50873 0.0 57.274544
v 225.50873 0.0 81.27454
v 231.50873 0.0 81.27454
v 231.50873 0.0 57.274544
f 136//1 135//1 134//1
f 136//1 134//1 133//1
g wall_15_86
usemtl wall_1_1
v 237.50873 0.0 81.27454
v 237.50873 0.0 57.274544
f 138//1 137//1 135//1
f 138//1 135//1 136//1
g wall_15_87
usemtl wall_1_1
v 225.50873 100.0 81.27454
v 225.50873 100.0 57.274544
v 231.50873 100.0 81.27454
v 231.50873 100.0 57.274544
f 133//2 134//2 139//2 140//2
f 134//3 135//3 141//3 139//3
f 136//9 133//9 140//9 142//9
g wall_15_88
usemtl wall_1_1
v 237.50873 100.0 81.27454
v 237.50873 100.0 57.274544
f 135//3 137//3 143//3 141//3
f 137//6 138//6 144//6 143//6
f 138//9 136//9 142//9 144//9
g wall_15_89
usemtl wall_1_1
f 140//7 139//7 141//7
f 140//7 141//7 142//7
g wall_15_90
usemtl wall_1_1
f 142//7 141//7 143//7
f 142//7 143//7 144//7
g wall_16_91
usemtl wall_1_1
v 259.58374 0.0 21.55468
v 259.58374 0.0 51.55468
v 265.58374 0.0 51.55468
v 265.58374 0.0 27.55468
f 148//1 147//1 146//1
f 148//1 146//1 145//1
g wall_16_92
usemtl wall_1_1
v 271.58374 0.0 51.55468
v 271.58374 0.0 33.55468
f 150//1 149//1 147//1
f 150//1 147//1 148//1
g wall_16_93
usemtl wall_1_1
v 259.58374 100.0 51.55468
v 259.58374 100.0 21.55468
v 265.58374 100.0 51.55468
v 265.58374 100.0 27.55468
f 145//2 146//2 151//2 152//2
f 146//3 147//3 153//3 151//3
f 148//4 145//4 152//4 154//4
g wall_16_94
usemtl wall_1_1
v 271.58374 100.0 51.55468
v 271.58374 100.0 33.55468
f 147//3 149//3 155//3 153//3
f 149//6 150//6 156//6 155//6
f 150//4 148//4 154//4 156//4
g wall_16_95
usemtl wall_1_1
f 152//7 151//7 153//7
f 152//7 153//7 154//7
g wall_16_96
usemtl wall_1_1
f 154//7 153//7 155//7
f 154//7 155//7 156//7
g wall_17_97
usemtl wall_1_1
v 305.58374 0.0 27.55468
v 305.58374 0.0 21.55468
f 158//1 157//1 148//1
f 158//1 148//1 145//1
g wall_17_98
usemtl wall_1_1
v 305.58374 0.0 33.55468
f 157//1 159//1 150//1
f 157//1 150//1 148//1
g wall_17_99
usemtl wall_1_1
v 305.58374 100.0 21.55468
v 305.58374 100.0 27.55468
f 145//8 148//8 154//8 152//8
f 157//6 158//6 160//6 161//6
f 158//9 145//9 152//9 160//9
g wall_17_100
usemtl wall_1_1
v 305.58374 100.0 33.55468
f 148//8 150//8 156//8 154//8
f 150//3 159//3 162//3 156//3
f 159//6 157//6 161//6 162//6
g wall_17_101
usemtl wall_1_1
f 152//7 154//7 161//7
f 152//7 161//7 160//7
g wall_17_102
usemtl wall_1_1
f 154//7 156//7 162//7
f 154//7 162//7 161//7
g wall_18_103
usemtl wall_1_1
v 293.66858 0.0 -8.2582855
v 293.66858 0.0 21.741661
v 299.66858 0.0 21.741661
v 299.66858 0.0 -2.2582855
f 166//1 165//1 164//1
f 166//1 164//1 163//1
g wall_18_104
usemtl wall_1_1
v 305.66858 0.0 21.741661
v 305.66858 0.0 3.7417145
f 168//1 167//1 165//1
f 168//1 165//1 166//1
g wall_18_105
usemtl wall_1_1
v 293.66858 100.0 21.741661
v 293.66858 100.0 -8.2582855
v 299.66858 100.0 21.741661
v 299.66858 100.0 -2.2582855
f 163//2 164//2 169//2 170//2
f 164//3 165//3 171//3 169//3
f 166//4 163//4 170//4 172//4
g wall_18_106
usemtl wall_1_1
v 305.66858 100.0 21.741661
v 305.66858 100.0 3.7417145
f 165//3 167//3 173//3 171//3
f 167//6 168//6 174//6 173//6
f 168//4 166//4 172//4 174//4
g wall_18_107
usemtl wall_1_1
f 170//7 169//7 171//7
f 170//7 171//7 172//7
g wall_18_108
usemtl wall_1_1
f 172//7 171//7 173//7
f 172//7 173//7 174//7
g wall_19_109
usemtl wall_1_1
v 339.66858 0.0 -2.2582855
v 339.66858 0.0 -8.2582855
f 176//1 175//1 166//1
f 176//1 166//1 163//1
g wall_19_110
usemtl wall_1_1
v 339.66858 0.0 3.7417145
f 175//1 177//1 168//1
f 175//1 168//1 166//1
g wall_19_111
usemtl wall_1_1
v 339.66858 100.0 -8.2582855
v 339.66858 100.0 -2.2582855
f 163//8 166//8 172//8 170//8
f 175//6 176//6 178//6 179//6
f 176//9 163//9 170//9 178//9
g wall_19_112
usemtl wall_1_1
v 339.66858 100.0 3.7417145
f 166//8 168//8 174//8 172//8
f 168//3 177//3 180//3 174//3
f 177//6 175//6 179//6 180//6
g wall_19_113
usemtl wall_1_1
f 170//7 172//7 179//7
f 170//7 179//7 178//7
g wall_19_114
usemtl wall_1_1
f 172//7 174//7 180//7
f 172//7 180//7 179//7
g wall_20_115
usemtl wall_1_1
v 293.46857 0.0 -2.4582672
v 293.46857 0.0 21.54168
v 299.46857 0.0 21.54168
v 299.46857 0.0 -2.4582672
f 184//1 183//1 182//1
f 184//1 182//1 181//1
g wall_20_116
usemtl wall_1_1
v 305.46857 0.0 21.54168
v 305.46857 0.0 -2.4582672
f 186//1 185//1 183//1
f 186//1 183//1 184//1
g wall_20_117
usemtl wall_1_1
v 293.46857 100.0 21.54168
v 293.46857 100.0 -2.4582672
v 299.46857 100.0 21.54168
v 299.46857 100.0 -2.4582672
f 181//2 182//2 187//2 188//2
f 182//3 183//3 189//3 187//3
f 184//9 181//9 188//9 190//9
g wall_20_118
usemtl wall_1_1
v 305.46857 100.0 21.54168
v 305.46857 100.0 -2.4582672
f 183//3 185//3 191//3 189//3
f 185//6 186//6 192//6 191//6
f 186//9 184//9 190//9 192//9
g wall_20_119
usemtl wall_1_1
f 188//7 187//7 189//7
f 188//7 189//7 190//7
g wall_20_120
usemtl wall_1_1
f 190//7 189//7 191//7
f 190//7 191//7 192//7
