999
dxfrw 0.6.3
  0
SECTION
  2
HEADER
  9
$ACADVER
  1
AC1021
  9
$DWGCODEPAGE
  3
ANSI_1252
  9
$INSBASE
 10
0
 20
0
 30
0
  9
$EXTMIN
 10
-28.38063115649765
 20
-427.2156177201261
 30
0
  9
$EXTMAX
 10
6824.262966779623
 20
4947.234505993675
 30
0
  9
$LIMMIN
 10
0
 20
0
  9
$LIMMAX
 10
420
 20
297
  9
$ORTHOMODE
 70
    0
  9
$REGENMODE
 70
    1
  9
$FILLMODE
 70
    1
  9
$QTEXTMODE
 70
    0
  9
$MIRRTEXT
 70
    0
  9
$LTSCALE
 40
1
  9
$ATTMODE
 70
    0
  9
$TEXTSIZE
 40
2.5
  9
$TRACEWID
 40
15.68
  9
$TEXTSTYLE
  7
STANDARD
  9
$CLAYER
  8
Geländer3
  9
$CELTYPE
  6
BYLAYER
  9
$CECOLOR
 62
  256
  9
$CELTSCALE
 40
1
  9
$DISPSILH
 70
    0
  9
$DIMSCALE
 40
20
  9
$DIMASZ
 40
2.5
  9
$DIMEXO
 40
0.625
  9
$DIMDLI
 40
3.75
  9
$DIMRND
 40
0
  9
$DIMDLE
 40
0
  9
$DIMEXE
 40
1.25
  9
$DIMTP
 40
0
  9
$DIMTM
 40
0
  9
$DIMTXT
 40
2.5
  9
$DIMCEN
 40
2.5
  9
$DIMTSZ
 40
0
  9
$DIMTOL
 70
    0
  9
$DIMLIM
 70
    0
  9
$DIMTIH
 70
    0
  9
$DIMTOH
 70
    0
  9
$DIMSE1
 70
    0
  9
$DIMSE2
 70
    0
  9
$DIMTAD
 70
    1
  9
$DIMZIN
 70
    1
  9
$DIMBLK
  1

  9
$DIMASO
 70
    1
  9
$DIMSHO
 70
    1
  9
$DIMPOST
  1

  9
$DIMAPOST
  1

  9
$DIMALT
 70
    0
  9
$DIMALTD
 70
    3
  9
$DIMALTF
 40
0.03937
  9
$DIMLFAC
 40
1
  9
$DIMTOFL
 70
    1
  9
$DIMTVP
 40
0
  9
$DIMTIX
 70
    0
  9
$DIMSOXD
 70
    0
  9
$DIMSAH
 70
    0
  9
$DIMBLK1
  1

  9
$DIMBLK2
  1

  9
$DIMSTYLE
  2
STANDARD
  9
$DIMCLRD
 70
    0
  9
$DIMCLRE
 70
    0
  9
$DIMCLRT
 70
    0
  9
$DIMTFAC
 40
1
  9
$DIMGAP
 40
0.625
  9
$DIMJUST
 70
    0
  9
$DIMSD1
 70
    0
  9
$DIMSD2
 70
    0
  9
$DIMTOLJ
 70
    0
  9
$DIMTZIN
 70
    8
  9
$DIMALTZ
 70
    0
  9
$DIMALTTZ
 70
    0
  9
$DIMUPT
 70
    0
  9
$DIMDEC
 70
    0
  9
$DIMTDEC
 70
    2
  9
$DIMALTU
 70
    2
  9
$DIMALTTD
 70
    3
  9
$DIMTXSTY
  7
STANDARD
  9
$DIMAUNIT
 70
    0
  9
$DIMADEC
 70
    0
  9
$DIMALTRND
 40
0
  9
$DIMAZIN
 70
    0
  9
$DIMDSEP
 70
    0
  9
$DIMATFIT
 70
    3
  9
$DIMFRAC
 70
    0
  9
$DIMLDRBLK
  1
STANDARD
  9
$DIMLUNIT
 70
    2
  9
$DIMLWD
 70
   -2
  9
$DIMLWE
 70
   -2
  9
$DIMTMOVE
 70
    0
  9
$DIMFXL
 40
1
  9
$DIMFXLON
 70
    0
  9
$DIMJOGANG
 40
0.7854
  9
$DIMTFILL
 70
    0
  9
$DIMTFILLCLR
 70
    0
  9
$DIMARCSYM
 70
    0
  9
$DIMLTYPE
  6

  9
$DIMLTEX1
  6

  9
$DIMLTEX2
  6

  9
$LUNITS
 70
    2
  9
$LUPREC
 70
    0
  9
$SKETCHINC
 40
1
  9
$FILLETRAD
 40
0
  9
$AUNITS
 70
    0
  9
$AUPREC
 70
    2
  9
$MENU
  1
.
  9
$ELEVATION
 40
0
  9
$PELEVATION
 40
0
  9
$THICKNESS
 40
0
  9
$LIMCHECK
 70
    0
  9
$CHAMFERA
 40
0
  9
$CHAMFERB
 40
0
  9
$CHAMFERC
 40
0
  9
$CHAMFERD
 40
0
  9
$SKPOLY
 70
    0
  9
$USRTIMER
 70
    1
  9
$ANGBASE
 50
0
  9
$ANGDIR
 70
    0
  9
$PDMODE
 70
   34
  9
$PDSIZE
 40
0
  9
$PLINEWID
 40
0
  9
$SPLFRAME
 70
    0
  9
$SPLINETYPE
 70
    2
  9
$SPLINESEGS
 70
    8
  9
$HANDSEED
  5
20000
  9
$SURFTAB1
 70
    6
  9
$SURFTAB2
 70
    6
  9
$SURFTYPE
 70
    6
  9
$SURFU
 70
    6
  9
$SURFV
 70
    6
  9
$UCSBASE
  2

  9
$UCSNAME
  2

  9
$UCSORG
 10
0
 20
0
 30
0
  9
$UCSXDIR
 10
1
 20
0
 30
0
  9
$UCSYDIR
 10
0
 20
1
 30
0
  9
$UCSORTHOREF
  2

  9
$UCSORTHOVIEW
 70
    0
  9
$UCSORGTOP
 10
0
 20
0
 30
0
  9
$UCSORGBOTTOM
 10
0
 20
0
 30
0
  9
$UCSORGLEFT
 10
0
 20
0
 30
0
  9
$UCSORGRIGHT
 10
0
 20
0
 30
0
  9
$UCSORGFRONT
 10
0
 20
0
 30
0
  9
$UCSORGBACK
 10
0
 20
0
 30
0
  9
$PUCSBASE
  2

  9
$PUCSNAME
  2

  9
$PUCSORG
 10
0
 20
0
 30
0
  9
$PUCSXDIR
 10
1
 20
0
 30
0
  9
$PUCSYDIR
 10
0
 20
1
 30
0
  9
$PUCSORTHOREF
  2

  9
$PUCSORTHOVIEW
 70
    0
  9
$PUCSORGTOP
 10
0
 20
0
 30
0
  9
$PUCSORGBOTTOM
 10
0
 20
0
 30
0
  9
$PUCSORGLEFT
 10
0
 20
0
 30
0
  9
$PUCSORGRIGHT
 10
0
 20
0
 30
0
  9
$PUCSORGFRONT
 10
0
 20
0
 30
0
  9
$PUCSORGBACK
 10
0
 20
0
 30
0
  9
$USERI1
 70
    0
  9
$USERI2
 70
    0
  9
$USERI3
 70
    0
  9
$USERI4
 70
    0
  9
$USERI5
 70
    0
  9
$USERR1
 40
0
  9
$USERR2
 40
0
  9
$USERR3
 40
0
  9
$USERR4
 40
0
  9
$USERR5
 40
0
  9
$WORLDVIEW
 70
    1
  9
$SHADEDGE
 70
    3
  9
$SHADEDIF
 70
   70
  9
$TILEMODE
 70
    1
  9
$MAXACTVP
 70
   64
  9
$PINSBASE
 10
12.34966264786971
 20
22.90587736252427
 30
0
  9
$PLIMCHECK
 70
    0
  9
$PEXTMIN
 10
0
 20
0
 30
0
  9
$PEXTMAX
 10
0
 20
0
 30
0
  9
$GRIDMODE
 70
    0
  9
$SNAPSTYLE
 70
    0
  9
$GRIDUNIT
 10
0
 20
0
  9
$PLIMMIN
 10
0
 20
0
  9
$PLIMMAX
 10
297
 20
210
  9
$UNITMODE
 70
    0
  9
$VISRETAIN
 70
    1
  9
$PLINEGEN
 70
    0
  9
$PSLTSCALE
 70
    1
  9
$TREEDEPTH
 70
 3020
  9
$CMLSTYLE
  2
Standard
  9
$CMLJUST
 70
    0
  9
$CMLSCALE
 40
20
  9
$PROXYGRAPHICS
 70
    1
  9
$MEASUREMENT
 70
    1
  9
$CELWEIGHT
370
   -1
  9
$ENDCAPS
280
    0
  9
$JOINSTYLE
280
    0
  9
$LWDISPLAY
290
    0
  9
$INSUNITS
 70
    4
  9
$HYPERLINKBASE
  1

  9
$STYLESHEET
  1

  9
$XEDIT
290
    1
  9
$CEPSNTYPE
380
    0
  9
$PSTYLEMODE
290
    1
  9
$EXTNAMES
290
    1
  9
$PSVPSCALE
 40
0.04
  9
$OLESTARTUP
290
    0
  9
$SORTENTS
280
  127
  9
$INDEXCTL
280
    0
  9
$HIDETEXT
280
    1
  9
$XCLIPFRAME
290
    0
  9
$HALOGAP
280
    0
  9
$OBSCOLOR
 70
  257
  9
$OBSLTYPE
280
    0
  9
$INTERSECTIONDISPLAY
280
    0
  9
$INTERSECTIONCOLOR
 70
  257
  9
$DIMASSOC
280
    1
  9
$PROJECTNAME
  1

  9
$CAMERADISPLAY
290
    0
  9
$LENSLENGTH
 40
50
  9
$CAMERAHEIGHT
 40
0
  9
$STEPSPERSEC
 40
2
  9
$STEPSIZE
 40
50
  9
$3DDWFPREC
 40
2
  9
$PSOLWIDTH
 40
5
  9
$PSOLHEIGHT
 40
80
  9
$LOFTANG1
 40
1.570796326794897
  9
$LOFTANG2
 40
1.570796326794897
  9
$LOFTMAG1
 40
0
  9
$LOFTMAG2
 40
0
  9
$LOFTPARAM
 70
    7
  9
$LOFTNORMALS
280
    1
  9
$LATITUDE
 40
1
  9
$LONGITUDE
 40
1
  9
$NORTHDIRECTION
 40
0
  9
$TIMEZONE
 70
-8000
  9
$LIGHTGLYPHDISPLAY
280
    1
  9
$TILEMODELIGHTSYNCH
280
    1
  9
$SOLIDHIST
280
    1
  9
$SHOWHIST
280
    1
  9
$DWFFRAME
280
    2
  9
$DGNFRAME
280
    0
  9
$REALWORLDSCALE
290
    1
  9
$INTERFERECOLOR
 62
    1
  9
$CSHADOW
280
    0
  9
$SHADOWPLANELOCATION
 40
0
  0
ENDSEC
  0
SECTION
  2
CLASSES
  0
ENDSEC
  0
SECTION
  2
TABLES
  0
TABLE
  2
VPORT
  5
8
330
0
100
AcDbSymbolTable
 70
    1
  0
VPORT
  5
31
330
2
100
AcDbSymbolTableRecord
100
AcDbViewportTableRecord
  2
*ACTIVE
 70
    0
 10
0
 20
0
 11
1
 21
1
 12
4116.80504348655
 22
2585.9490799888
 13
0
 23
0
 14
10
 24
10
 15
10
 25
10
 16
0
 26
0
 36
1
 17
0
 27
0
 37
0
 40
5754.464911414375
 41
1.770528683914511
 42
50
 43
0
 44
0
 50
0
 51
0
 71
    0
 72
  100
 73
    1
 74
    3
 75
    0
 76
    0
 77
    0
 78
    0
281
    0
 65
    1
110
0
120
0
130
0
111
1
121
0
131
0
112
0
122
1
132
0
 79
    0
146
0
348
10020
 60
    7
 61
    5
292
1
282
    1
141
0
142
0
 63
  250
421
3358443
  0
ENDTAB
  0
TABLE
  2
LTYPE
  5
5
330
0
100
AcDbSymbolTable
 70
    4
  0
LTYPE
  5
14
330
5
100
AcDbSymbolTableRecord
100
AcDbLinetypeTableRecord
  2
ByBlock
 70
    0
  3

 72
   65
 73
    0
 40
0
  0
LTYPE
  5
15
330
5
100
AcDbSymbolTableRecord
100
AcDbLinetypeTableRecord
  2
ByLayer
 70
    0
  3

 72
   65
 73
    0
 40
0
  0
LTYPE
  5
16
330
5
100
AcDbSymbolTableRecord
100
AcDbLinetypeTableRecord
  2
Continuous
 70
    0
  3
Solid line
 72
   65
 73
    0
 40
0
  0
LTYPE
  5
32
330
5
100
AcDbSymbolTableRecord
100
AcDbLinetypeTableRecord
  2
DOT
 70
    0
  3
Dot . . . . . . . . . . . . . . . . . . . . . .
 72
   65
 73
    2
 40
6.35
 49
0
 74
    0
 49
-6.35
 74
    0
  0
LTYPE
  5
33
330
5
100
AcDbSymbolTableRecord
100
AcDbLinetypeTableRecord
  2
DOTTINY
 70
    0
  3
Dot (.15x) .....................................
 72
   65
 73
    2
 40
0.9525
 49
0
 74
    0
 49
-0.9525
 74
    0
  0
LTYPE
  5
34
330
5
100
AcDbSymbolTableRecord
100
AcDbLinetypeTableRecord
  2
DOT2
 70
    0
  3
Dot (.5x) .....................................
 72
   65
 73
    2
 40
3.175
 49
0
 74
    0
 49
-3.175
 74
    0
  0
LTYPE
  5
35
330
5
100
AcDbSymbolTableRecord
100
AcDbLinetypeTableRecord
  2
DOTX2
 70
    0
  3
Dot (2x) .  .  .  .  .  .  .  .  .  .  .  .  .
 72
   65
 73
    2
 40
12.7
 49
0
 74
    0
 49
-12.7
 74
    0
  0
LTYPE
  5
36
330
5
100
AcDbSymbolTableRecord
100
AcDbLinetypeTableRecord
  2
DASHED
 70
    0
  3
Dashed _ _ _ _ _ _ _ _ _ _ _ _ _ _ _ _ _
 72
   65
 73
    2
 40
19.05
 49
12.7
 74
    0
 49
-6.35
 74
    0
  0
LTYPE
  5
37
330
5
100
AcDbSymbolTableRecord
100
AcDbLinetypeTableRecord
  2
DASHEDTINY
 70
    0
  3
Dashed (.15x) _ _ _ _ _ _ _ _ _ _ _ _ _ _ _ _ _
 72
   65
 73
    2
 40
2.8575
 49
1.905
 74
    0
 49
-0.9525
 74
    0
  0
LTYPE
  5
38
330
5
100
AcDbSymbolTableRecord
100
AcDbLinetypeTableRecord
  2
DASHED2
 70
    0
  3
Dashed (.5x) _ _ _ _ _ _ _ _ _ _ _ _ _ _ _ _ _
 72
   65
 73
    2
 40
9.524999999999999
 49
6.35
 74
    0
 49
-3.175
 74
    0
  0
LTYPE
  5
39
330
5
100
AcDbSymbolTableRecord
100
AcDbLinetypeTableRecord
  2
DASHEDX2
 70
    0
  3
Dashed (2x) ____  ____  ____  ____  ____  ___
 72
   65
 73
    2
 40
38.09999999999999
 49
25.4
 74
    0
 49
-12.7
 74
    0
  0
LTYPE
  5
3A
330
5
100
AcDbSymbolTableRecord
100
AcDbLinetypeTableRecord
  2
DASHDOT
 70
    0
  3
Dash dot __ . __ . __ . __ . __ . __ . __ . __
 72
   65
 73
    4
 40
25.4
 49
12.7
 74
    0
 49
-6.35
 74
    0
 49
0
 74
    0
 49
-6.35
 74
    0
  0
LTYPE
  5
3B
330
5
100
AcDbSymbolTableRecord
100
AcDbLinetypeTableRecord
  2
DASHDOTTINY
 70
    0
  3
Dash dot (.15x) _._._._._._._._._._._._._._._.
 72
   65
 73
    4
 40
3.81
 49
1.905
 74
    0
 49
-0.9525
 74
    0
 49
0
 74
    0
 49
-0.9525
 74
    0
  0
LTYPE
  5
3C
330
5
100
AcDbSymbolTableRecord
100
AcDbLinetypeTableRecord
  2
DASHDOT2
 70
    0
  3
Dash dot (.5x) _._._._._._._._._._._._._._._.
 72
   65
 73
    4
 40
12.7
 49
6.35
 74
    0
 49
-3.175
 74
    0
 49
0
 74
    0
 49
-3.175
 74
    0
  0
LTYPE
  5
3D
330
5
100
AcDbSymbolTableRecord
100
AcDbLinetypeTableRecord
  2
DASHDOTX2
 70
    0
  3
Dash dot (2x) ____  .  ____  .  ____  .  ___
 72
   65
 73
    4
 40
50.8
 49
25.4
 74
    0
 49
-12.7
 74
    0
 49
0
 74
    0
 49
-12.7
 74
    0
  0
LTYPE
  5
3E
330
5
100
AcDbSymbolTableRecord
100
AcDbLinetypeTableRecord
  2
DIVIDE
 70
    0
  3
Divide ____ . . ____ . . ____ . . ____ . . ____
 72
   65
 73
    6
 40
31.75
 49
12.7
 74
    0
 49
-6.35
 74
    0
 49
0
 74
    0
 49
-6.35
 74
    0
 49
0
 74
    0
 49
-6.35
 74
    0
  0
LTYPE
  5
3F
330
5
100
AcDbSymbolTableRecord
100
AcDbLinetypeTableRecord
  2
DIVIDETINY
 70
    0
  3
Divide (.15x) __..__..__..__..__..__..__..__.._
 72
   65
 73
    6
 40
4.7625
 49
1.905
 74
    0
 49
-0.9525
 74
    0
 49
0
 74
    0
 49
-0.9525
 74
    0
 49
0
 74
    0
 49
-0.9525
 74
    0
  0
LTYPE
  5
40
330
5
100
AcDbSymbolTableRecord
100
AcDbLinetypeTableRecord
  2
DIVIDE2
 70
    0
  3
Divide (.5x) __..__..__..__..__..__..__..__.._
 72
   65
 73
    6
 40
15.875
 49
6.35
 74
    0
 49
-3.175
 74
    0
 49
0
 74
    0
 49
-3.175
 74
    0
 49
0
 74
    0
 49
-3.175
 74
    0
  0
LTYPE
  5
41
330
5
100
AcDbSymbolTableRecord
100
AcDbLinetypeTableRecord
  2
DIVIDEX2
 70
    0
  3
Divide (2x) ________  .  .  ________  .  .  _
 72
   65
 73
    6
 40
63.5
 49
25.4
 74
    0
 49
-12.7
 74
    0
 49
0
 74
    0
 49
-12.7
 74
    0
 49
0
 74
    0
 49
-12.7
 74
    0
  0
LTYPE
  5
42
330
5
100
AcDbSymbolTableRecord
100
AcDbLinetypeTableRecord
  2
BORDER
 70
    0
  3
Border __ __ . __ __ . __ __ . __ __ . __ __ .
 72
   65
 73
    6
 40
44.45
 49
12.7
 74
    0
 49
-6.35
 74
    0
 49
12.7
 74
    0
 49
-6.35
 74
    0
 49
0
 74
    0
 49
-6.35
 74
    0
  0
LTYPE
  5
43
330
5
100
AcDbSymbolTableRecord
100
AcDbLinetypeTableRecord
  2
BORDERTINY
 70
    0
  3
Border (.15x) __.__.__.__.__.__.__.__.__.__.__.
 72
   65
 73
    6
 40
6.6675
 49
1.905
 74
    0
 49
-0.9525
 74
    0
 49
1.905
 74
    0
 49
-0.9525
 74
    0
 49
0
 74
    0
 49
-0.9525
 74
    0
  0
LTYPE
  5
44
330
5
100
AcDbSymbolTableRecord
100
AcDbLinetypeTableRecord
  2
BORDER2
 70
    0
  3
Border (.5x) __.__.__.__.__.__.__.__.__.__.__.
 72
   65
 73
    6
 40
22.225
 49
6.35
 74
    0
 49
-3.175
 74
    0
 49
6.35
 74
    0
 49
-3.175
 74
    0
 49
0
 74
    0
 49
-3.175
 74
    0
  0
LTYPE
  5
45
330
5
100
AcDbSymbolTableRecord
100
AcDbLinetypeTableRecord
  2
BORDERX2
 70
    0
  3
Border (2x) ____  ____  .  ____  ____  .  ___
 72
   65
 73
    6
 40
88.89999999999999
 49
25.4
 74
    0
 49
-12.7
 74
    0
 49
25.4
 74
    0
 49
-12.7
 74
    0
 49
0
 74
    0
 49
-12.7
 74
    0
  0
LTYPE
  5
46
330
5
100
AcDbSymbolTableRecord
100
AcDbLinetypeTableRecord
  2
CENTER
 70
    0
  3
Center ____ _ ____ _ ____ _ ____ _ ____ _ ____
 72
   65
 73
    4
 40
50.8
 49
31.75
 74
    0
 49
-6.35
 74
    0
 49
6.35
 74
    0
 49
-6.35
 74
    0
  0
LTYPE
  5
47
330
5
100
AcDbSymbolTableRecord
100
AcDbLinetypeTableRecord
  2
CENTERTINY
 70
    0
  3
Center (.15x) ___ _ ___ _ ___ _ ___ _ ___ _ ___
 72
   65
 73
    4
 40
7.62
 49
4.7625
 74
    0
 49
-0.9525
 74
    0
 49
0.9525
 74
    0
 49
-0.9525
 74
    0
  0
LTYPE
  5
48
330
5
100
AcDbSymbolTableRecord
100
AcDbLinetypeTableRecord
  2
CENTER2
 70
    0
  3
Center (.5x) ___ _ ___ _ ___ _ ___ _ ___ _ ___
 72
   65
 73
    4
 40
28.575
 49
19.05
 74
    0
 49
-3.175
 74
    0
 49
3.175
 74
    0
 49
-3.175
 74
    0
  0
LTYPE
  5
49
330
5
100
AcDbSymbolTableRecord
100
AcDbLinetypeTableRecord
  2
CENTERX2
 70
    0
  3
Center (2x) ________  __  ________  __  _____
 72
   65
 73
    4
 40
101.6
 49
63.5
 74
    0
 49
-12.7
 74
    0
 49
12.7
 74
    0
 49
-12.7
 74
    0
  0
ENDTAB
  0
TABLE
  2
LAYER
  5
2
330
0
100
AcDbSymbolTable
 70
    1
  0
LAYER
  5
10
330
2
100
AcDbSymbolTableRecord
100
AcDbLayerTableRecord
  2
0
 70
    0
 62
    7
  6
CONTINUOUS
370
   25
390
F
  0
LAYER
  5
4A
330
2
100
AcDbSymbolTableRecord
100
AcDbLayerTableRecord
  2
Geländer
 70
    1
 62
    5
  6
CONTINUOUS
370
   18
390
F
  0
LAYER
  5
4B
330
2
100
AcDbSymbolTableRecord
100
AcDbLayerTableRecord
  2
Geländer2
 70
    1
 62
  136
420
32896
  6
CONTINUOUS
370
   25
390
F
  0
LAYER
  5
4C
330
2
100
AcDbSymbolTableRecord
100
AcDbLayerTableRecord
  2
Geländer3
 70
    0
 62
  176
420
  128
  6
CONTINUOUS
370
   25
390
F
  0
LAYER
  5
4D
330
2
100
AcDbSymbolTableRecord
100
AcDbLayerTableRecord
  2
Geländer_unsichtbar
 70
    1
 62
    7
  6
DASHED2
370
   13
390
F
  0
LAYER
  5
4E
330
2
100
AcDbSymbolTableRecord
100
AcDbLayerTableRecord
  2
Isolatio_neu
 70
    0
 62
   96
420
32768
  6
CONTINUOUS
370
   35
390
F
  0
LAYER
  5
4F
330
2
100
AcDbSymbolTableRecord
100
AcDbLayerTableRecord
  2
Masse
 70
    0
 62
    7
  6
CONTINUOUS
370
    0
390
F
  0
LAYER
  5
50
330
2
100
AcDbSymbolTableRecord
100
AcDbLayerTableRecord
  2
Masse Baubewilligung
 70
    0
 62
    7
  6
CONTINUOUS
370
   13
390
F
  0
LAYER
  5
51
330
2
100
AcDbSymbolTableRecord
100
AcDbLayerTableRecord
  2
alt
 70
    0
 62
   16
420
8388608
  6
CONTINUOUS
370
   25
390
F
  0
LAYER
  5
52
330
2
100
AcDbSymbolTableRecord
100
AcDbLayerTableRecord
  2
hilfe_1
 70
    1
 62
   56
420
8421376
  6
CONTINUOUS
370
   50
390
F
  0
LAYER
  5
53
330
2
100
AcDbSymbolTableRecord
100
AcDbLayerTableRecord
  2
hilfe_12
 70
    0
 62
    4
  6
CONTINUOUS
370
    0
390
F
1001
LibreCad
1070
    1
  0
ENDTAB
  0
TABLE
  2
STYLE
  5
3
330
0
100
AcDbSymbolTable
 70
    3
  0
STYLE
  5
54
330
2
100
AcDbSymbolTableRecord
100
AcDbTextStyleTableRecord
  2
standard
 70
    0
 40
0
 41
1
 50
0
 71
    0
 42
1
  3
standard
  4

  0
ENDTAB
  0
TABLE
  2
VIEW
  5
6
330
0
100
AcDbSymbolTable
 70
    0
  0
ENDTAB
  0
TABLE
  2
UCS
  5
7
330
0
100
AcDbSymbolTable
 70
    0
  0
ENDTAB
  0
TABLE
  2
APPID
  5
9
330
0
100
AcDbSymbolTable
 70
    1
  0
APPID
  5
12
330
9
100
AcDbSymbolTableRecord
100
AcDbRegAppTableRecord
  2
ACAD
 70
    0
  0
APPID
  5
55
330
9
100
AcDbSymbolTableRecord
100
AcDbRegAppTableRecord
  2
LibreCad
 70
    0
  0
ENDTAB
  0
TABLE
  2
DIMSTYLE
  5
A
330
0
100
AcDbSymbolTable
 70
    1
100
AcDbDimStyleTable
 71
    1
  0
DIMSTYLE
105
56
330
A
100
AcDbSymbolTableRecord
100
AcDbDimStyleTableRecord
  2
Standard
 70
    0
 40
20
 41
2.5
 42
0.625
 43
0.38
 44
1.25
 45
0
 46
0
 47
0
 48
0
 49
1
140
2.5
141
0.09
142
0
143
25.4
144
1
145
0
146
1
147
0.625
148
0
 71
    0
 72
    0
 73
    0
 74
    1
 75
    0
 76
    0
 77
    0
 78
    1
 79
    0
170
    0
171
    2
172
    0
173
    0
174
    0
175
    0
176
    0
177
    0
178
    0
179
    0
271
    0
272
    4
273
    2
274
    2
275
    0
276
    0
277
    2
278
    0
279
    0
280
    0
281
    0
282
    0
283
    1
284
    0
285
    0
286
    0
288
    0
289
    3
340
STANDARD
341

371
   -2
372
   -2
  0
ENDTAB
  0
TABLE
  2
BLOCK_RECORD
  5
1
330
0
100
AcDbSymbolTable
 70
    2
  0
BLOCK_RECORD
  5
1F
330
1
100
AcDbSymbolTableRecord
100
AcDbBlockTableRecord
  2
*Model_Space
 70
    0
280
    1
281
    0
  0
BLOCK_RECORD
  5
1E
330
1
100
AcDbSymbolTableRecord
100
AcDbBlockTableRecord
  2
*Paper_Space
 70
    0
280
    1
281
    0
  0
BLOCK_RECORD
  5
57
330
1
100
AcDbSymbolTableRecord
100
AcDbBlockTableRecord
  2
*D17
 70
    0
280
    1
281
    0
  0
BLOCK_RECORD
  5
5A
330
1
100
AcDbSymbolTableRecord
100
AcDbBlockTableRecord
  2
*D5
 70
    0
280
    1
281
    0
  0
BLOCK_RECORD
  5
5D
330
1
100
AcDbSymbolTableRecord
100
AcDbBlockTableRecord
  2
*D1
 70
    0
280
    1
281
    0
  0
BLOCK_RECORD
  5
60
330
1
100
AcDbSymbolTableRecord
100
AcDbBlockTableRecord
  2
*D4
 70
    0
280
    1
281
    0
  0
BLOCK_RECORD
  5
63
330
1
100
AcDbSymbolTableRecord
100
AcDbBlockTableRecord
  2
*D10
 70
    0
280
    1
281
    0
  0
BLOCK_RECORD
  5
66
330
1
100
AcDbSymbolTableRecord
100
AcDbBlockTableRecord
  2
*D11
 70
    0
280
    1
281
    0
  0
BLOCK_RECORD
  5
69
330
1
100
AcDbSymbolTableRecord
100
AcDbBlockTableRecord
  2
*D14
 70
    0
280
    1
281
    0
  0
BLOCK_RECORD
  5
6C
330
1
100
AcDbSymbolTableRecord
100
AcDbBlockTableRecord
  2
*D7
 70
    0
280
    1
281
    0
  0
BLOCK_RECORD
  5
6F
330
1
100
AcDbSymbolTableRecord
100
AcDbBlockTableRecord
  2
*D9
 70
    0
280
    1
281
    0
  0
BLOCK_RECORD
  5
72
330
1
100
AcDbSymbolTableRecord
100
AcDbBlockTableRecord
  2
*D16
 70
    0
280
    1
281
    0
  0
BLOCK_RECORD
  5
75
330
1
100
AcDbSymbolTableRecord
100
AcDbBlockTableRecord
  2
*D20
 70
    0
280
    1
281
    0
  0
BLOCK_RECORD
  5
78
330
1
100
AcDbSymbolTableRecord
100
AcDbBlockTableRecord
  2
*D15
 70
    0
280
    1
281
    0
  0
BLOCK_RECORD
  5
7B
330
1
100
AcDbSymbolTableRecord
100
AcDbBlockTableRecord
  2
*D13
 70
    0
280
    1
281
    0
  0
BLOCK_RECORD
  5
7E
330
1
100
AcDbSymbolTableRecord
100
AcDbBlockTableRecord
  2
*D12
 70
    0
280
    1
281
    0
  0
BLOCK_RECORD
  5
81
330
1
100
AcDbSymbolTableRecord
100
AcDbBlockTableRecord
  2
*D19
 70
    0
280
    1
281
    0
  0
BLOCK_RECORD
  5
84
330
1
100
AcDbSymbolTableRecord
100
AcDbBlockTableRecord
  2
*D3
 70
    0
280
    1
281
    0
  0
BLOCK_RECORD
  5
87
330
1
100
AcDbSymbolTableRecord
100
AcDbBlockTableRecord
  2
*D6
 70
    0
280
    1
281
    0
  0
BLOCK_RECORD
  5
8A
330
1
100
AcDbSymbolTableRecord
100
AcDbBlockTableRecord
  2
*D2
 70
    0
280
    1
281
    0
  0
BLOCK_RECORD
  5
8D
330
1
100
AcDbSymbolTableRecord
100
AcDbBlockTableRecord
  2
*D18
 70
    0
280
    1
281
    0
  0
BLOCK_RECORD
  5
90
330
1
100
AcDbSymbolTableRecord
100
AcDbBlockTableRecord
  2
*D8
 70
    0
280
    1
281
    0
  0
BLOCK_RECORD
  5
93
330
1
100
AcDbSymbolTableRecord
100
AcDbBlockTableRecord
  2
Geländer_Flansch
 70
    0
280
    1
281
    0
  0
BLOCK_RECORD
  5
96
330
1
100
AcDbSymbolTableRecord
100
AcDbBlockTableRecord
  2
Geländer_Flansch-1_Stab
 70
    0
280
    1
281
    0
  0
BLOCK_RECORD
  5
99
330
1
100
AcDbSymbolTableRecord
100
AcDbBlockTableRecord
  2
Geländer_Flansch-2
 70
    0
280
    1
281
    0
  0
BLOCK_RECORD
  5
9C
330
1
100
AcDbSymbolTableRecord
100
AcDbBlockTableRecord
  2
Geländer_Flansch-3
 70
    0
280
    1
281
    0
  0
BLOCK_RECORD
  5
9F
330
1
100
AcDbSymbolTableRecord
100
AcDbBlockTableRecord
  2
Geländer_Flansch-3_Stab
 70
    0
280
    1
281
    0
  0
BLOCK_RECORD
  5
A2
330
1
100
AcDbSymbolTableRecord
100
AcDbBlockTableRecord
  2
Geländer_Flansch-5
 70
    0
280
    1
281
    0
  0
BLOCK_RECORD
  5
A5
330
1
100
AcDbSymbolTableRecord
100
AcDbBlockTableRecord
  2
Geländer_Flansch-4
 70
    0
280
    1
281
    0
  0
ENDTAB
  0
ENDSEC
  0
SECTION
  2
BLOCKS
  0
BLOCK
  5
20
330
1F
100
AcDbEntity
  8
0
100
AcDbBlockBegin
  2
*Model_Space
 70
    0
 10
0
 20
0
 30
0
  3
*Model_Space
  1

  0
ENDBLK
  5
21
330
1F
100
AcDbEntity
  8
0
100
AcDbBlockEnd
  0
BLOCK
  5
1C
330
1B
100
AcDbEntity
  8
0
100
AcDbBlockBegin
  2
*Paper_Space
 70
    0
 10
0
 20
0
 30
0
  3
*Paper_Space
  1

  0
ENDBLK
  5
1D
330
1F
100
AcDbEntity
  8
0
100
AcDbBlockEnd
  0
BLOCK
  5
58
330
57
100
AcDbEntity
  8
0
100
AcDbBlockBegin
  2
*D17
 70
    1
 10
0
 20
0
  3
*D17
  1

  0
LINE
  5
A8
100
AcDbEntity
  8
Geländer
  6
ByBlock
 62
    0
370
   -2
100
AcDbLine
 10
178.1625898587354
 20
3430
 11
178.1625898587354
 21
3630
  0
SOLID
  5
A9
100
AcDbEntity
  8
Geländer
  6
ByBlock
 62
    0
370
   -2
100
AcDbTrace
 10
178.1625898587354
 20
3430
 30
0
 11
169.8368967032786
 21
3480
 31
0
 12
186.4882830141922
 22
3480
 32
0
 13
186.4882830141922
 23
3480
 33
0
  0
SOLID
  5
AA
100
AcDbEntity
  8
Geländer
  6
ByBlock
 62
    0
370
   -2
100
AcDbTrace
 10
178.1625898587354
 20
3630
 30
0
 11
186.4882830141922
 21
3580
 31
0
 12
169.8368967032786
 22
3580
 32
0
 13
169.8368967032786
 23
3580
 33
0
  0
MTEXT
  5
AB
100
AcDbEntity
  8
Geländer
  6
CONTINUOUS
 62
    0
370
   -2
100
AcDbMText
 10
140.6625898587354
 20
3530
 30
0
 40
50
 41
100
 71
    5
 72
    1
  1
200
  7
STANDARD
210
0
220
0
230
1
 50
90
 73
    2
 44
1
  0
LINE
  5
AC
100
AcDbEntity
  8
Geländer
  6
ByBlock
 62
    0
370
   -2
100
AcDbLine
 10
346.9784998919622
 20
3430
 11
153.1625898587354
 21
3430
  0
LINE
  5
AD
100
AcDbEntity
  8
Geländer
  6
ByBlock
 62
    0
370
   -2
100
AcDbLine
 10
376.9350415496256
 20
3630
 11
153.1625898587354
 21
3630
  0
ENDBLK
  5
59
330
57
100
AcDbEntity
  8
0
100
AcDbBlockEnd
  0
BLOCK
  5
5B
330
5A
100
AcDbEntity
  8
0
100
AcDbBlockBegin
  2
*D5
 70
    1
 10
0
 20
0
  3
*D5
  1

  0
LINE
  5
AE
100
AcDbEntity
  8
Masse Baubewilligung
  6
ByBlock
 62
    0
370
   -2
100
AcDbLine
 10
6577.68396910973
 20
3290
 11
6577.68396910973
 21
4190
  0
SOLID
  5
AF
100
AcDbEntity
  8
Masse Baubewilligung
  6
ByBlock
 62
    0
370
   -2
100
AcDbTrace
 10
6577.68396910973
 20
3290
 30
0
 11
6569.358275954273
 21
3340
 31
0
 12
6586.009662265187
 22
3340
 32
0
 13
6586.009662265187
 23
3340
 33
0
  0
SOLID
  5
B0
100
AcDbEntity
  8
Masse Baubewilligung
  6
ByBlock
 62
    0
370
   -2
100
AcDbTrace
 10
6577.68396910973
 20
4190
 30
0
 11
6586.009662265187
 21
4140
 31
0
 12
6569.358275954273
 22
4140
 32
0
 13
6569.358275954273
 23
4140
 33
0
  0
MTEXT
  5
B1
100
AcDbEntity
  8
Masse Baubewilligung
  6
CONTINUOUS
 62
    0
370
   -2
100
AcDbMText
 10
6540.18396910973
 20
3740
 30
0
 40
50
 41
100.0000000000031
 71
    5
 72
    1
  1
900
  7
STANDARD
210
0
220
0
230
1
 50
90
 73
    2
 44
1
  0
LINE
  5
B2
100
AcDbEntity
  8
Masse Baubewilligung
  6
ByBlock
 62
    0
370
   -2
100
AcDbLine
 10
6397.5
 20
3290
 11
6602.68396910973
 21
3290
  0
LINE
  5
B3
100
AcDbEntity
  8
Masse Baubewilligung
  6
ByBlock
 62
    0
370
   -2
100
AcDbLine
 10
6136.5
 20
4190
 11
6602.68396910973
 21
4190
  0
ENDBLK
  5
5C
330
5A
100
AcDbEntity
  8
0
100
AcDbBlockEnd
  0
BLOCK
  5
5E
330
5D
100
AcDbEntity
  8
0
100
AcDbBlockBegin
  2
*D1
 70
    1
 10
0
 20
0
  3
*D1
  1

  0
LINE
  5
B4
100
AcDbEntity
  8
hilfe_1
  6
ByBlock
 62
    0
370
   -2
100
AcDbLine
 10
5450
 20
4759.686515030212
 11
60.0000000000002
 21
4759.686515030212
  0
SOLID
  5
B5
100
AcDbEntity
  8
hilfe_1
  6
ByBlock
 62
    0
370
   -2
100
AcDbTrace
 10
5450
 20
4759.686515030212
 30
0
 11
5400
 21
4751.360821874755
 31
0
 12
5400
 22
4768.012208185669
 32
0
 13
5400
 23
4768.012208185669
 33
0
  0
SOLID
  5
B6
100
AcDbEntity
  8
hilfe_1
  6
ByBlock
 62
    0
370
   -2
100
AcDbTrace
 10
60.0000000000002
 20
4759.686515030212
 30
0
 11
110.0000000000002
 21
4768.012208185669
 31
0
 12
110.0000000000002
 22
4751.360821874755
 32
0
 13
110.0000000000002
 23
4751.360821874755
 33
0
  0
MTEXT
  5
B7
100
AcDbEntity
  8
hilfe_1
  6
CONTINUOUS
 62
    0
370
   -2
100
AcDbMText
 10
2755
 20
4797.186515030212
 30
0
 40
50
 41
138.8888888888951
 71
    5
 72
    1
  1
5390
  7
STANDARD
210
0
220
0
230
1
 50
360
 73
    2
 44
1
  0
LINE
  5
B8
100
AcDbEntity
  8
hilfe_1
  6
ByBlock
 62
    0
370
   -2
100
AcDbLine
 10
5450
 20
3162.5
 11
5450
 21
4784.686515030212
  0
LINE
  5
B9
100
AcDbEntity
  8
hilfe_1
  6
ByBlock
 62
    0
370
   -2
100
AcDbLine
 10
60.0000000000002
 20
3162.5
 11
60.0000000000002
 21
4784.686515030212
  0
ENDBLK
  5
5F
330
5D
100
AcDbEntity
  8
0
100
AcDbBlockEnd
  0
BLOCK
  5
61
330
60
100
AcDbEntity
  8
0
100
AcDbBlockBegin
  2
*D4
 70
    1
 10
0
 20
0
  3
*D4
  1

  0
LINE
  5
BA
100
AcDbEntity
  8
Masse Baubewilligung
  6
ByBlock
 62
    0
370
   -2
100
AcDbLine
 10
6782.48910637036
 20
-9.094947017729282e-013
 11
6782.48910637036
 21
3290
  0
SOLID
  5
BB
100
AcDbEntity
  8
Masse Baubewilligung
  6
ByBlock
 62
    0
370
   -2
100
AcDbTrace
 10
6782.48910637036
 20
-9.094947017729282e-013
 30
0
 11
6774.163413214903
 21
49.99999999999909
 31
0
 12
6790.814799525817
 22
49.99999999999909
 32
0
 13
6790.814799525817
 23
49.99999999999909
 33
0
  0
SOLID
  5
BC
100
AcDbEntity
  8
Masse Baubewilligung
  6
ByBlock
 62
    0
370
   -2
100
AcDbTrace
 10
6782.48910637036
 20
3290
 30
0
 11
6790.814799525817
 21
3240
 31
0
 12
6774.163413214903
 22
3240
 32
0
 13
6774.163413214903
 23
3240
 33
0
  0
MTEXT
  5
BD
100
AcDbEntity
  8
Masse Baubewilligung
  6
CONTINUOUS
 62
    0
370
   -2
100
AcDbMText
 10
6744.98910637036
 20
1645
 30
0
 40
50
 41
138.888888888892
 71
    5
 72
    1
  1
3290
  7
STANDARD
210
0
220
0
230
1
 50
90
 73
    2
 44
1
  0
LINE
  5
BE
100
AcDbEntity
  8
Masse Baubewilligung
  6
ByBlock
 62
    0
370
   -2
100
AcDbLine
 10
5763.904163683251
 20
-2.59085016895283e-013
 11
6807.48910637036
 21
-9.378221940345433e-013
  0
LINE
  5
BF
100
AcDbEntity
  8
Masse Baubewilligung
  6
ByBlock
 62
    0
370
   -2
100
AcDbLine
 10
6461.969874034201
 20
3290
 11
6807.48910637036
 21
3290
  0
ENDBLK
  5
62
330
60
100
AcDbEntity
  8
0
100
AcDbBlockEnd
  0
BLOCK
  5
64
330
63
100
AcDbEntity
  8
0
100
AcDbBlockBegin
  2
*D10
 70
    1
 10
0
 20
0
  3
*D10
  1

  0
LINE
  5
C0
100
AcDbEntity
  8
Masse
  6
ByBlock
 62
    0
370
   -2
100
AcDbLine
 10
4580
 20
2092.5
 11
4580
 21
2187.590978672228
  0
LINE
  5
C1
100
AcDbEntity
  8
Masse
  6
ByBlock
 62
    0
370
   -2
100
AcDbLine
 10
5450
 20
2092.5
 11
5450
 21
2187.590978672228
  0
LINE
  5
C2
100
AcDbEntity
  8
Masse
  6
ByBlock
 62
    0
370
   -2
100
AcDbLine
 10
4580
 20
2162.590978672228
 11
5450
 21
2162.590978672228
  0
SOLID
  5
C3
100
AcDbEntity
  8
Masse
  6
ByBlock
 62
    0
370
   -2
100
AcDbTrace
 10
4580
 20
2162.590978672228
 30
0
 11
4630
 21
2170.916671827685
 31
0
 12
4630
 22
2154.265285516771
 32
0
 13
4630
 23
2154.265285516771
 33
0
  0
SOLID
  5
C4
100
AcDbEntity
  8
Masse
  6
ByBlock
 62
    0
370
   -2
100
AcDbTrace
 10
5450
 20
2162.590978672228
 30
0
 11
5400
 21
2154.265285516771
 31
0
 12
5400
 22
2170.916671827685
 32
0
 13
5400
 23
2170.916671827685
 33
0
  0
MTEXT
  5
C5
100
AcDbEntity
  8
Masse
  6
CONTINUOUS
 62
    0
370
   -2
100
AcDbMText
 10
5015
 20
2200.090978672228
 30
0
 40
50
 41
100
 71
    5
 72
    1
  1
870
  7
STANDARD
210
0
220
0
230
1
 50
0
 73
    2
 44
1
  0
ENDBLK
  5
65
330
63
100
AcDbEntity
  8
0
100
AcDbBlockEnd
  0
BLOCK
  5
67
330
66
100
AcDbEntity
  8
0
100
AcDbBlockBegin
  2
*D11
 70
    1
 10
0
 20
0
  3
*D11
  1

  0
LINE
  5
C6
100
AcDbEntity
  8
Masse
  6
ByBlock
 62
    0
370
   -2
100
AcDbLine
 10
3550
 20
2092.5
 11
3550
 21
2186.950998152875
  0
LINE
  5
C7
100
AcDbEntity
  8
Masse
  6
ByBlock
 62
    0
370
   -2
100
AcDbLine
 10
4580
 20
2092.5
 11
4580
 21
2186.950998152875
  0
LINE
  5
C8
100
AcDbEntity
  8
Masse
  6
ByBlock
 62
    0
370
   -2
100
AcDbLine
 10
3550
 20
2161.950998152875
 11
4580
 21
2161.950998152875
  0
SOLID
  5
C9
100
AcDbEntity
  8
Masse
  6
ByBlock
 62
    0
370
   -2
100
AcDbTrace
 10
3550
 20
2161.950998152875
 30
0
 11
3600
 21
2170.276691308332
 31
0
 12
3600
 22
2153.625304997418
 32
0
 13
3600
 23
2153.625304997418
 33
0
  0
SOLID
  5
CA
100
AcDbEntity
  8
Masse
  6
ByBlock
 62
    0
370
   -2
100
AcDbTrace
 10
4580
 20
2161.950998152875
 30
0
 11
4530
 21
2153.625304997418
 31
0
 12
4530
 22
2170.276691308332
 32
0
 13
4530
 23
2170.276691308332
 33
0
  0
MTEXT
  5
CB
100
AcDbEntity
  8
Masse
  6
CONTINUOUS
 62
    0
370
   -2
100
AcDbMText
 10
4065
 20
2199.450998152875
 30
0
 40
50
 41
127.7777777777809
 71
    5
 72
    1
  1
1030
  7
STANDARD
210
0
220
0
230
1
 50
0
 73
    2
 44
1
  0
ENDBLK
  5
68
330
66
100
AcDbEntity
  8
0
100
AcDbBlockEnd
  0
BLOCK
  5
6A
330
69
100
AcDbEntity
  8
0
100
AcDbBlockBegin
  2
*D14
 70
    1
 10
0
 20
0
  3
*D14
  1

  0
LINE
  5
CC
100
AcDbEntity
  8
Geländer
  6
ByBlock
 62
    0
370
   -2
100
AcDbLine
 10
184.4692302077176
 20
3630
 11
184.4692302077176
 21
3870
  0
SOLID
  5
CD
100
AcDbEntity
  8
Geländer
  6
ByBlock
 62
    0
370
   -2
100
AcDbTrace
 10
184.4692302077176
 20
3630
 30
0
 11
176.1435370522608
 21
3680
 31
0
 12
192.7949233631744
 22
3680
 32
0
 13
192.7949233631744
 23
3680
 33
0
  0
SOLID
  5
CE
100
AcDbEntity
  8
Geländer
  6
ByBlock
 62
    0
370
   -2
100
AcDbTrace
 10
184.4692302077176
 20
3870
 30
0
 11
192.7949233631744
 21
3820
 31
0
 12
176.1435370522608
 22
3820
 32
0
 13
176.1435370522608
 23
3820
 33
0
  0
MTEXT
  5
CF
100
AcDbEntity
  8
Geländer
  6
CONTINUOUS
 62
    0
370
   -2
100
AcDbMText
 10
146.9692302077176
 20
3750
 30
0
 40
50
 41
105.5555555555556
 71
    5
 72
    1
  1
240
  7
STANDARD
210
0
220
0
230
1
 50
90
 73
    2
 44
1
  0
LINE
  5
D0
100
AcDbEntity
  8
Geländer
  6
ByBlock
 62
    0
370
   -2
100
AcDbLine
 10
370.6284012006441
 20
3630
 11
159.4692302077176
 21
3630
  0
LINE
  5
D1
100
AcDbEntity
  8
Geländer
  6
ByBlock
 62
    0
370
   -2
100
AcDbLine
 10
383.2416818986077
 20
3870
 11
159.4692302077176
 21
3870
  0
ENDBLK
  5
6B
330
69
100
AcDbEntity
  8
0
100
AcDbBlockEnd
  0
BLOCK
  5
6D
330
6C
100
AcDbEntity
  8
0
100
AcDbBlockBegin
  2
*D7
 70
    1
 10
0
 20
0
  3
*D7
  1

  0
LINE
  5
D2
100
AcDbEntity
  8
Masse Baubewilligung
  6
ByBlock
 62
    0
370
   -2
100
AcDbLine
 10
6330
 20
4386.082547016074
 11
6129.916682362284
 21
4386.082547016074
  0
SOLID
  5
D3
100
AcDbEntity
  8
Masse Baubewilligung
  6
ByBlock
 62
    0
370
   -2
100
AcDbTrace
 10
6330
 20
4386.082547016074
 30
0
 11
6280
 21
4377.756853860617
 31
0
 12
6280
 22
4394.408240171531
 32
0
 13
6280
 23
4394.408240171531
 33
0
  0
SOLID
  5
D4
100
AcDbEntity
  8
Masse Baubewilligung
  6
ByBlock
 62
    0
370
   -2
100
AcDbTrace
 10
6129.916682362284
 20
4386.082547016074
 30
0
 11
6179.916682362284
 21
4394.408240171531
 31
0
 12
6179.916682362284
 22
4377.756853860617
 32
0
 13
6179.916682362284
 23
4377.756853860617
 33
0
  0
MTEXT
  5
D5
100
AcDbEntity
  8
Masse Baubewilligung
  6
CONTINUOUS
 62
    0
370
   -2
100
AcDbMText
 10
6229.958341181142
 20
4423.582547016074
 30
0
 40
50
 41
100
 71
    5
 72
    1
  1
200
  7
STANDARD
210
0
220
0
230
1
 50
360
 73
    2
 44
1
  0
LINE
  5
D6
100
AcDbEntity
  8
Masse Baubewilligung
  6
ByBlock
 62
    0
370
   -2
100
AcDbLine
 10
6330
 20
3162.5
 11
6330
 21
4411.082547016074
  0
LINE
  5
D7
100
AcDbEntity
  8
Masse Baubewilligung
  6
ByBlock
 62
    0
370
   -2
100
AcDbLine
 10
6129.916682362284
 20
4193.978879754272
 11
6129.916682362284
 21
4411.082547016074
  0
ENDBLK
  5
6E
330
6C
100
AcDbEntity
  8
0
100
AcDbBlockEnd
  0
BLOCK
  5
70
330
6F
100
AcDbEntity
  8
0
100
AcDbBlockBegin
  2
*D9
 70
    1
 10
0
 20
0
  3
*D9
  1

  0
LINE
  5
D8
100
AcDbEntity
  8
Masse
  6
ByBlock
 62
    0
370
   -2
100
AcDbLine
 10
2970
 20
2092.5
 11
2970
 21
2185.5527213879
  0
LINE
  5
D9
100
AcDbEntity
  8
Masse
  6
ByBlock
 62
    0
370
   -2
100
AcDbLine
 10
3550
 20
2092.5
 11
3550
 21
2185.5527213879
  0
LINE
  5
DA
100
AcDbEntity
  8
Masse
  6
ByBlock
 62
    0
370
   -2
100
AcDbLine
 10
2970
 20
2160.5527213879
 11
3550
 21
2160.5527213879
  0
SOLID
  5
DB
100
AcDbEntity
  8
Masse
  6
ByBlock
 62
    0
370
   -2
100
AcDbTrace
 10
2970
 20
2160.5527213879
 30
0
 11
3020
 21
2168.878414543357
 31
0
 12
3020
 22
2152.227028232443
 32
0
 13
3020
 23
2152.227028232443
 33
0
  0
SOLID
  5
DC
100
AcDbEntity
  8
Masse
  6
ByBlock
 62
    0
370
   -2
100
AcDbTrace
 10
3550
 20
2160.5527213879
 30
0
 11
3500
 21
2152.227028232443
 31
0
 12
3500
 22
2168.878414543357
 32
0
 13
3500
 23
2168.878414543357
 33
0
  0
MTEXT
  5
DD
100
AcDbEntity
  8
Masse
  6
CONTINUOUS
 62
    0
370
   -2
100
AcDbMText
 10
3260
 20
2198.0527213879
 30
0
 40
50
 41
100.0000000000031
 71
    5
 72
    1
  1
580
  7
STANDARD
210
0
220
0
230
1
 50
0
 73
    2
 44
1
  0
ENDBLK
  5
71
330
6F
100
AcDbEntity
  8
0
100
AcDbBlockEnd
  0
BLOCK
  5
73
330
72
100
AcDbEntity
  8
0
100
AcDbBlockBegin
  2
*D16
 70
    1
 10
0
 20
0
  3
*D16
  1

  0
LINE
  5
DE
100
AcDbEntity
  8
Geländer
  6
ByBlock
 62
    0
370
   -2
100
AcDbLine
 10
170.2792894225086
 20
3290
 11
170.2792894225086
 21
3430
  0
SOLID
  5
DF
100
AcDbEntity
  8
Geländer
  6
ByBlock
 62
    0
370
   -2
100
AcDbTrace
 10
170.2792894225086
 20
3290
 30
0
 11
161.9535962670518
 21
3340
 31
0
 12
178.6049825779654
 22
3340
 32
0
 13
178.6049825779654
 23
3340
 33
0
  0
SOLID
  5
E0
100
AcDbEntity
  8
Geländer
  6
ByBlock
 62
    0
370
   -2
100
AcDbTrace
 10
170.2792894225086
 20
3430
 30
0
 11
178.6049825779654
 21
3380
 31
0
 12
161.9535962670518
 22
3380
 32
0
 13
161.9535962670518
 23
3380
 33
0
  0
MTEXT
  5
E1
100
AcDbEntity
  8
Geländer
  6
CONTINUOUS
 62
    0
370
   -2
100
AcDbMText
 10
132.7792894225086
 20
3360
 30
0
 40
50
 41
94.44444444444444
 71
    5
 72
    1
  1
140
  7
STANDARD
210
0
220
0
230
1
 50
90
 73
    2
 44
1
  0
LINE
  5
E2
100
AcDbEntity
  8
Geländer
  6
ByBlock
 62
    0
370
   -2
100
AcDbLine
 10
287.0654165766355
 20
3290
 11
145.2792894225086
 21
3290
  0
LINE
  5
E3
100
AcDbEntity
  8
Geländer
  6
ByBlock
 62
    0
370
   -2
100
AcDbLine
 10
343.8251797174717
 20
3430
 11
145.2792894225086
 21
3430
  0
ENDBLK
  5
74
330
72
100
AcDbEntity
  8
0
100
AcDbBlockEnd
  0
BLOCK
  5
76
330
75
100
AcDbEntity
  8
0
100
AcDbBlockBegin
  2
*D20
 70
    1
 10
0
 20
0
  3
*D20
  1

  0
LINE
  5
E4
100
AcDbEntity
  8
Masse Baubewilligung
  6
ByBlock
 62
    0
370
   -2
100
AcDbLine
 10
184.6442394774684
 20
3190
 11
184.6442394774685
 21
3470
  0
SOLID
  5
E5
100
AcDbEntity
  8
Masse Baubewilligung
  6
ByBlock
 62
    0
370
   -2
100
AcDbTrace
 10
184.6442394774684
 20
3290
 30
0
 11
192.9699326329252
 21
3240
 31
0
 12
176.3185463220116
 22
3240
 32
0
 13
176.3185463220116
 23
3240
 33
0
  0
SOLID
  5
E6
100
AcDbEntity
  8
Masse Baubewilligung
  6
ByBlock
 62
    0
370
   -2
100
AcDbTrace
 10
184.6442394774684
 20
3370
 30
0
 11
176.3185463220116
 21
3420
 31
0
 12
192.9699326329252
 22
3420
 32
0
 13
192.9699326329252
 23
3420
 33
0
  0
MTEXT
  5
E7
100
AcDbEntity
  8
Masse Baubewilligung
  6
CONTINUOUS
 62
    0
370
   -2
100
AcDbMText
 10
147.1442394774684
 20
3330
 30
0
 40
50
 41
61.11111111111111
 71
    5
 72
    1
  1
80
  7
STANDARD
210
0
220
0
230
1
 50
89.99999999999999
 73
    2
 44
1
  0
LINE
  5
E8
100
AcDbEntity
  8
Masse Baubewilligung
  6
ByBlock
 62
    0
370
   -2
100
AcDbLine
 10
231.4999999999998
 20
3290
 11
159.6442394774684
 21
3290
  0
LINE
  5
E9
100
AcDbEntity
  8
Masse Baubewilligung
  6
ByBlock
 62
    0
370
   -2
100
AcDbLine
 10
247.4999999999998
 20
3370
 11
159.6442394774684
 21
3370
  0
ENDBLK
  5
77
330
75
100
AcDbEntity
  8
0
100
AcDbBlockEnd
  0
BLOCK
  5
79
330
78
100
AcDbEntity
  8
0
100
AcDbBlockBegin
  2
*D15
 70
    1
 10
0
 20
0
  3
*D15
  1

  0
LINE
  5
EA
100
AcDbEntity
  8
Geländer
  6
ByBlock
 62
    0
370
   -2
100
AcDbLine
 10
187.6225503822084
 20
3870
 11
187.6225503822084
 21
4150
  0
SOLID
  5
EB
100
AcDbEntity
  8
Geländer
  6
ByBlock
 62
    0
370
   -2
100
AcDbTrace
 10
187.6225503822084
 20
3870
 30
0
 11
179.2968572267516
 21
3920
 31
0
 12
195.9482435376652
 22
3920
 32
0
 13
195.9482435376652
 23
3920
 33
0
  0
SOLID
  5
EC
100
AcDbEntity
  8
Geländer
  6
ByBlock
 62
    0
370
   -2
100
AcDbTrace
 10
187.6225503822084
 20
4150
 30
0
 11
195.9482435376652
 21
4100
 31
0
 12
179.2968572267516
 22
4100
 32
0
 13
179.2968572267516
 23
4100
 33
0
  0
MTEXT
  5
ED
100
AcDbEntity
  8
Geländer
  6
CONTINUOUS
 62
    0
370
   -2
100
AcDbMText
 10
150.1225503822084
 20
4010
 30
0
 40
50
 41
100
 71
    5
 72
    1
  1
280
  7
STANDARD
210
0
220
0
230
1
 50
90
 73
    2
 44
1
  0
LINE
  5
EE
100
AcDbEntity
  8
Geländer
  6
ByBlock
 62
    0
370
   -2
100
AcDbLine
 10
413.1982235562713
 20
3870
 11
162.6225503822084
 21
3870
  0
LINE
  5
EF
100
AcDbEntity
  8
Geländer
  6
ByBlock
 62
    0
370
   -2
100
AcDbLine
 10
424.2348441669894
 20
4150
 11
162.6225503822084
 21
4150
  0
ENDBLK
  5
7A
330
78
100
AcDbEntity
  8
0
100
AcDbBlockEnd
  0
BLOCK
  5
7C
330
7B
100
AcDbEntity
  8
0
100
AcDbBlockBegin
  2
*D13
 70
    1
 10
0
 20
0
  3
*D13
  1

  0
LINE
  5
F0
100
AcDbEntity
  8
Geländer
  6
ByBlock
 62
    0
370
   -2
100
AcDbLine
 10
178.1625898587357
 20
3430
 11
178.1625898587357
 21
3630
  0
SOLID
  5
F1
100
AcDbEntity
  8
Geländer
  6
ByBlock
 62
    0
370
   -2
100
AcDbTrace
 10
178.1625898587357
 20
3430
 30
0
 11
169.8368967032789
 21
3480
 31
0
 12
186.4882830141925
 22
3480
 32
0
 13
186.4882830141925
 23
3480
 33
0
  0
SOLID
  5
F2
100
AcDbEntity
  8
Geländer
  6
ByBlock
 62
    0
370
   -2
100
AcDbTrace
 10
178.1625898587357
 20
3630
 30
0
 11
186.4882830141925
 21
3580
 31
0
 12
169.8368967032789
 22
3580
 32
0
 13
169.8368967032789
 23
3580
 33
0
  0
MTEXT
  5
F3
100
AcDbEntity
  8
Geländer
  6
CONTINUOUS
 62
    0
370
   -2
100
AcDbMText
 10
140.6625898587357
 20
3530
 30
0
 40
50
 41
100
 71
    5
 72
    1
  1
200
  7
STANDARD
210
0
220
0
230
1
 50
90
 73
    2
 44
1
  0
LINE
  5
F4
100
AcDbEntity
  8
Geländer
  6
ByBlock
 62
    0
370
   -2
100
AcDbLine
 10
346.9784998919624
 20
3430
 11
153.1625898587357
 21
3430
  0
LINE
  5
F5
100
AcDbEntity
  8
Geländer
  6
ByBlock
 62
    0
370
   -2
100
AcDbLine
 10
376.935041549626
 20
3630
 11
153.1625898587357
 21
3630
  0
ENDBLK
  5
7D
330
7B
100
AcDbEntity
  8
0
100
AcDbBlockEnd
  0
BLOCK
  5
7F
330
7E
100
AcDbEntity
  8
0
100
AcDbBlockBegin
  2
*D12
 70
    1
 10
0
 20
0
  3
*D12
  1

  0
LINE
  5
F6
100
AcDbEntity
  8
Geländer
  6
ByBlock
 62
    0
370
   -2
100
AcDbLine
 10
170.2792894225085
 20
3290
 11
170.2792894225085
 21
3430
  0
SOLID
  5
F7
100
AcDbEntity
  8
Geländer
  6
ByBlock
 62
    0
370
   -2
100
AcDbTrace
 10
170.2792894225085
 20
3290
 30
0
 11
161.9535962670517
 21
3340
 31
0
 12
178.6049825779653
 22
3340
 32
0
 13
178.6049825779653
 23
3340
 33
0
  0
SOLID
  5
F8
100
AcDbEntity
  8
Geländer
  6
ByBlock
 62
    0
370
   -2
100
AcDbTrace
 10
170.2792894225085
 20
3430
 30
0
 11
178.6049825779653
 21
3380
 31
0
 12
161.9535962670517
 22
3380
 32
0
 13
161.9535962670517
 23
3380
 33
0
  0
MTEXT
  5
F9
100
AcDbEntity
  8
Geländer
  6
CONTINUOUS
 62
    0
370
   -2
100
AcDbMText
 10
132.7792894225085
 20
3360
 30
0
 40
50
 41
94.44444444444444
 71
    5
 72
    1
  1
140
  7
STANDARD
210
0
220
0
230
1
 50
90
 73
    2
 44
1
  0
LINE
  5
FA
100
AcDbEntity
  8
Geländer
  6
ByBlock
 62
    0
370
   -2
100
AcDbLine
 10
287.0654165766354
 20
3290
 11
145.2792894225085
 21
3290
  0
LINE
  5
FB
100
AcDbEntity
  8
Geländer
  6
ByBlock
 62
    0
370
   -2
100
AcDbLine
 10
343.8251797174715
 20
3430
 11
145.2792894225085
 21
3430
  0
ENDBLK
  5
80
330
7E
100
AcDbEntity
  8
0
100
AcDbBlockEnd
  0
BLOCK
  5
82
330
81
100
AcDbEntity
  8
0
100
AcDbBlockBegin
  2
*D19
 70
    1
 10
0
 20
0
  3
*D19
  1

  0
LINE
  5
FC
100
AcDbEntity
  8
Geländer
  6
ByBlock
 62
    0
370
   -2
100
AcDbLine
 10
187.6225503822088
 20
3870
 11
187.6225503822088
 21
4150
  0
SOLID
  5
FD
100
AcDbEntity
  8
Geländer
  6
ByBlock
 62
    0
370
   -2
100
AcDbTrace
 10
187.6225503822088
 20
3870
 30
0
 11
179.296857226752
 21
3920
 31
0
 12
195.9482435376656
 22
3920
 32
0
 13
195.9482435376656
 23
3920
 33
0
  0
SOLID
  5
FE
100
AcDbEntity
  8
Geländer
  6
ByBlock
 62
    0
370
   -2
100
AcDbTrace
 10
187.6225503822088
 20
4150
 30
0
 11
195.9482435376656
 21
4100
 31
0
 12
179.296857226752
 22
4100
 32
0
 13
179.296857226752
 23
4100
 33
0
  0
MTEXT
  5
FF
100
AcDbEntity
  8
Geländer
  6
CONTINUOUS
 62
    0
370
   -2
100
AcDbMText
 10
150.1225503822088
 20
4010
 30
0
 40
50
 41
100
 71
    5
 72
    1
  1
280
  7
STANDARD
210
0
220
0
230
1
 50
90
 73
    2
 44
1
  0
LINE
  5
100
100
AcDbEntity
  8
Geländer
  6
ByBlock
 62
    0
370
   -2
100
AcDbLine
 10
413.1982235562709
 20
3870
 11
162.6225503822088
 21
3870
  0
LINE
  5
101
100
AcDbEntity
  8
Geländer
  6
ByBlock
 62
    0
370
   -2
100
AcDbLine
 10
424.2348441669892
 20
4150
 11
162.6225503822088
 21
4150
  0
ENDBLK
  5
83
330
81
100
AcDbEntity
  8
0
100
AcDbBlockEnd
  0
BLOCK
  5
85
330
84
100
AcDbEntity
  8
0
100
AcDbBlockBegin
  2
*D3
 70
    1
 10
0
 20
0
  3
*D3
  1

  0
LINE
  5
102
100
AcDbEntity
  8
Masse Baubewilligung
  6
ByBlock
 62
    0
370
   -2
100
AcDbLine
 10
6568.044713565999
 20
-9.094947017729282e-013
 11
6568.044713565999
 21
2290
  0
SOLID
  5
103
100
AcDbEntity
  8
Masse Baubewilligung
  6
ByBlock
 62
    0
370
   -2
100
AcDbTrace
 10
6568.044713565999
 20
-9.094947017729282e-013
 30
0
 11
6559.719020410542
 21
49.99999999999909
 31
0
 12
6576.370406721456
 22
49.99999999999909
 32
0
 13
6576.370406721456
 23
49.99999999999909
 33
0
  0
SOLID
  5
104
100
AcDbEntity
  8
Masse Baubewilligung
  6
ByBlock
 62
    0
370
   -2
100
AcDbTrace
 10
6568.044713565999
 20
2290
 30
0
 11
6576.370406721456
 21
2240
 31
0
 12
6559.719020410542
 22
2240
 32
0
 13
6559.719020410542
 23
2240
 33
0
  0
MTEXT
  5
105
100
AcDbEntity
  8
Masse Baubewilligung
  6
CONTINUOUS
 62
    0
370
   -2
100
AcDbMText
 10
6530.544713565999
 20
1145
 30
0
 40
50
 41
138.8888888888889
 71
    5
 72
    1
  1
2290
  7
STANDARD
210
0
220
0
230
1
 50
90
 73
    2
 44
1
  0
LINE
  5
106
100
AcDbEntity
  8
Masse Baubewilligung
  6
ByBlock
 62
    0
370
   -2
100
AcDbLine
 10
6507.5
 20
-3.590050891115471e-013
 11
6593.044713565999
 21
-1.137662338467071e-012
  0
LINE
  5
107
100
AcDbEntity
  8
Masse Baubewilligung
  6
ByBlock
 62
    0
370
   -2
100
AcDbLine
 10
6484.595166125051
 20
2290
 11
6593.044713565999
 21
2290
  0
ENDBLK
  5
86
330
84
100
AcDbEntity
  8
0
100
AcDbBlockEnd
  0
BLOCK
  5
88
330
87
100
AcDbEntity
  8
0
100
AcDbBlockBegin
  2
*D6
 70
    1
 10
0
 20
0
  3
*D6
  1

  0
LINE
  5
108
100
AcDbEntity
  8
Masse Baubewilligung
  6
ByBlock
 62
    0
370
   -2
100
AcDbLine
 10
60
 20
4384.291418589911
 11
5660.24047857935
 21
4384.291418589911
  0
SOLID
  5
109
100
AcDbEntity
  8
Masse Baubewilligung
  6
ByBlock
 62
    0
370
   -2
100
AcDbTrace
 10
60
 20
4384.291418589911
 30
0
 11
110
 21
4392.617111745368
 31
0
 12
110
 22
4375.965725434454
 32
0
 13
110
 23
4375.965725434454
 33
0
  0
SOLID
  5
10A
100
AcDbEntity
  8
Masse Baubewilligung
  6
ByBlock
 62
    0
370
   -2
100
AcDbTrace
 10
5660.24047857935
 20
4384.291418589911
 30
0
 11
5610.24047857935
 21
4375.965725434454
 31
0
 12
5610.24047857935
 22
4392.617111745368
 32
0
 13
5610.24047857935
 23
4392.617111745368
 33
0
  0
MTEXT
  5
10B
100
AcDbEntity
  8
Masse Baubewilligung
  6
CONTINUOUS
 62
    0
370
   -2
100
AcDbMText
 10
2860.120239289675
 20
4421.791418589911
 30
0
 40
50
 41
138.8888888888951
 71
    5
 72
    1
  1
5600
  7
STANDARD
210
0
220
0
230
1
 50
0
 73
    2
 44
1
  0
LINE
  5
10C
100
AcDbEntity
  8
Masse Baubewilligung
  6
ByBlock
 62
    0
370
   -2
100
AcDbLine
 10
60.00000000000026
 20
4202.5
 11
59.99999999999996
 21
4409.291418589911
  0
LINE
  5
10D
100
AcDbEntity
  8
Masse Baubewilligung
  6
ByBlock
 62
    0
370
   -2
100
AcDbLine
 10
5660.24047857935
 20
4192.965690157092
 11
5660.24047857935
 21
4409.291418589911
  0
ENDBLK
  5
89
330
87
100
AcDbEntity
  8
0
100
AcDbBlockEnd
  0
BLOCK
  5
8B
330
8A
100
AcDbEntity
  8
0
100
AcDbBlockBegin
  2
*D2
 70
    1
 10
0
 20
0
  3
*D2
  1

  0
LINE
  5
10E
100
AcDbEntity
  8
Masse Baubewilligung
  6
ByBlock
 62
    0
370
   -2
100
AcDbLine
 10
6672.049260373906
 20
-9.094947017729282e-013
 11
6672.049260373906
 21
2350
  0
SOLID
  5
10F
100
AcDbEntity
  8
Masse Baubewilligung
  6
ByBlock
 62
    0
370
   -2
100
AcDbTrace
 10
6672.049260373906
 20
-9.094947017729282e-013
 30
0
 11
6663.723567218449
 21
49.99999999999909
 31
0
 12
6680.374953529363
 22
49.99999999999909
 32
0
 13
6680.374953529363
 23
49.99999999999909
 33
0
  0
SOLID
  5
110
100
AcDbEntity
  8
Masse Baubewilligung
  6
ByBlock
 62
    0
370
   -2
100
AcDbTrace
 10
6672.049260373906
 20
2350
 30
0
 11
6680.374953529363
 21
2300
 31
0
 12
6663.723567218449
 22
2300
 32
0
 13
6663.723567218449
 23
2300
 33
0
  0
MTEXT
  5
111
100
AcDbEntity
  8
Masse Baubewilligung
  6
CONTINUOUS
 62
    0
370
   -2
100
AcDbMText
 10
6634.549260373906
 20
1175
 30
0
 40
50
 41
138.8888888888951
 71
    5
 72
    1
  1
2350
  7
STANDARD
210
0
220
0
230
1
 50
90
 73
    2
 44
1
  0
LINE
  5
112
100
AcDbEntity
  8
Masse Baubewilligung
  6
ByBlock
 62
    0
370
   -2
100
AcDbLine
 10
6507.5
 20
-2.923917076340377e-013
 11
6697.049260373906
 21
-1.004435575512053e-012
  0
LINE
  5
113
100
AcDbEntity
  8
Masse Baubewilligung
  6
ByBlock
 62
    0
370
   -2
100
AcDbLine
 10
6462.5
 20
2350
 11
6697.049260373906
 21
2350
  0
ENDBLK
  5
8C
330
8A
100
AcDbEntity
  8
0
100
AcDbBlockEnd
  0
BLOCK
  5
8E
330
8D
100
AcDbEntity
  8
0
100
AcDbBlockBegin
  2
*D18
 70
    1
 10
0
 20
0
  3
*D18
  1

  0
LINE
  5
114
100
AcDbEntity
  8
Geländer
  6
ByBlock
 62
    0
370
   -2
100
AcDbLine
 10
184.4692302077174
 20
3630
 11
184.4692302077174
 21
3870
  0
SOLID
  5
115
100
AcDbEntity
  8
Geländer
  6
ByBlock
 62
    0
370
   -2
100
AcDbTrace
 10
184.4692302077174
 20
3630
 30
0
 11
176.1435370522606
 21
3680
 31
0
 12
192.7949233631742
 22
3680
 32
0
 13
192.7949233631742
 23
3680
 33
0
  0
SOLID
  5
116
100
AcDbEntity
  8
Geländer
  6
ByBlock
 62
    0
370
   -2
100
AcDbTrace
 10
184.4692302077174
 20
3870
 30
0
 11
192.7949233631742
 21
3820
 31
0
 12
176.1435370522606
 22
3820
 32
0
 13
176.1435370522606
 23
3820
 33
0
  0
MTEXT
  5
117
100
AcDbEntity
  8
Geländer
  6
CONTINUOUS
 62
    0
370
   -2
100
AcDbMText
 10
146.9692302077174
 20
3750
 30
0
 40
50
 41
105.5555555555556
 71
    5
 72
    1
  1
240
  7
STANDARD
210
0
220
0
230
1
 50
90
 73
    2
 44
1
  0
LINE
  5
118
100
AcDbEntity
  8
Geländer
  6
ByBlock
 62
    0
370
   -2
100
AcDbLine
 10
370.6284012006445
 20
3630
 11
159.4692302077174
 21
3630
  0
LINE
  5
119
100
AcDbEntity
  8
Geländer
  6
ByBlock
 62
    0
370
   -2
100
AcDbLine
 10
383.2416818986076
 20
3870
 11
159.4692302077174
 21
3870
  0
ENDBLK
  5
8F
330
8D
100
AcDbEntity
  8
0
100
AcDbBlockEnd
  0
BLOCK
  5
91
330
90
100
AcDbEntity
  8
0
100
AcDbBlockBegin
  2
*D8
 70
    1
 10
0
 20
0
  3
*D8
  1

  0
LINE
  5
11A
100
AcDbEntity
  8
Masse
  6
ByBlock
 62
    0
370
   -2
100
AcDbLine
 10
400.0000000000001
 20
2092.5
 11
400.0000000000001
 21
2184.908632086049
  0
LINE
  5
11B
100
AcDbEntity
  8
Masse
  6
ByBlock
 62
    0
370
   -2
100
AcDbLine
 10
2970
 20
2092.5
 11
2970
 21
2184.908632086049
  0
LINE
  5
11C
100
AcDbEntity
  8
Masse
  6
ByBlock
 62
    0
370
   -2
100
AcDbLine
 10
400.0000000000001
 20
2159.908632086049
 11
2970
 21
2159.908632086049
  0
SOLID
  5
11D
100
AcDbEntity
  8
Masse
  6
ByBlock
 62
    0
370
   -2
100
AcDbTrace
 10
400.0000000000001
 20
2159.908632086049
 30
0
 11
450.0000000000001
 21
2168.234325241506
 31
0
 12
450.0000000000001
 22
2151.582938930592
 32
0
 13
450.0000000000001
 23
2151.582938930592
 33
0
  0
SOLID
  5
11E
100
AcDbEntity
  8
Masse
  6
ByBlock
 62
    0
370
   -2
100
AcDbTrace
 10
2970
 20
2159.908632086049
 30
0
 11
2920
 21
2151.582938930592
 31
0
 12
2920
 22
2168.234325241506
 32
0
 13
2920
 23
2168.234325241506
 33
0
  0
MTEXT
  5
11F
100
AcDbEntity
  8
Masse
  6
CONTINUOUS
 62
    0
370
   -2
100
AcDbMText
 10
1685
 20
2197.408632086049
 30
0
 40
50
 41
138.888888888892
 71
    5
 72
    1
  1
2570
  7
STANDARD
210
0
220
0
230
1
 50
0
 73
    2
 44
1
  0
ENDBLK
  5
92
330
90
100
AcDbEntity
  8
0
100
AcDbBlockEnd
  0
BLOCK
  5
94
330
93
100
AcDbEntity
  8
0
100
AcDbBlockBegin
  2
Geländer_Flansch
 70
    0
 10
0
 20
0
  3
Geländer_Flansch
  1

  0
LINE
  5
120
100
AcDbEntity
  8
Geländer
  6
ByLayer
 62
  256
370
   -1
100
AcDbLine
 10
16.00000000000001
 20
1070
 11
-15.99999999999998
 21
1070
  0
LINE
  5
121
100
AcDbEntity
  8
Geländer
  6
ByLayer
 62
  256
370
   -1
100
AcDbLine
 10
-16
 20
1070
 11
-16
 21
-80
  0
LINE
  5
122
100
AcDbEntity
  8
Geländer
  6
ByLayer
 62
  256
370
   -1
100
AcDbLine
 10
16
 20
-80
 11
16
 21
1070
  0
LINE
  5
123
100
AcDbEntity
  8
Geländer
  6
ByLayer
 62
  256
370
   -1
100
AcDbLine
 10
-5.999999999999986
 20
1070
 11
1.4210854715202e-014
 21
1070
  0
LINE
  5
124
100
AcDbEntity
  8
Isolatio_neu
  6
ByLayer
 62
  256
370
   -1
100
AcDbLine
 10
6.000000000000027
 20
1150
 11
-5.999999999999973
 21
1150
  0
LINE
  5
125
100
AcDbEntity
  8
Geländer
  6
ByLayer
 62
  256
370
   -1
100
AcDbLine
 10
-5.999999999999986
 20
1150
 11
-5.999999999999986
 21
1070
  0
LINE
  5
126
100
AcDbEntity
  8
Geländer
  6
ByLayer
 62
  256
370
   -1
100
AcDbLine
 10
6.000000000000014
 20
1150
 11
6.000000000000014
 21
1070
  0
POINT
  5
127
100
AcDbEntity
  8
Geländer_unsichtbar
  6
DASHED
 62
  256
370
   13
100
AcDbPoint
 10
-30
 20
-70
  0
POINT
  5
128
100
AcDbEntity
  8
Geländer_unsichtbar
  6
DASHED
 62
  256
370
   13
100
AcDbPoint
 10
30
 20
-70
  0
LWPOLYLINE
  5
129
100
AcDbEntity
  8
Geländer_unsichtbar
  6
DASHED
 62
  256
370
   13
100
AcDbPolyline
 90
    4
 70
    1
 43
0
 10
-4
 20
80
 10
4
 20
80
 10
4
 20
40
 10
-4
 20
40
  0
LWPOLYLINE
  5
12A
100
AcDbEntity
  8
Geländer_unsichtbar
  6
DASHED
 62
  256
370
   13
100
AcDbPolyline
 90
    4
 70
    1
 43
0
 10
-4
 20
-80
 10
4
 20
-80
 10
4
 20
-40
 10
-4
 20
-40
  0
LINE
  5
12B
100
AcDbEntity
  8
Geländer_unsichtbar
  6
DASHED
 62
  256
370
   13
100
AcDbLine
 10
-16
 20
-80
 11
16
 21
-80
  0
LINE
  5
12C
100
AcDbEntity
  8
Geländer_unsichtbar
  6
DASHED
 62
  256
370
   13
100
AcDbLine
 10
40
 20
86
 11
-40
 21
86
  0
LINE
  5
12D
100
AcDbEntity
  8
Geländer_unsichtbar
  6
DASHED
 62
  256
370
   13
100
AcDbLine
 10
-40
 20
-86
 11
40
 21
-86
  0
CIRCLE
  5
12E
100
AcDbEntity
  8
Geländer_unsichtbar
  6
DASHED
 62
  256
370
   13
100
AcDbCircle
 10
-30
 20
76
 40
5
  0
CIRCLE
  5
12F
100
AcDbEntity
  8
Geländer_unsichtbar
  6
DASHED
 62
  256
370
   13
100
AcDbCircle
 10
30
 20
76
 40
5
  0
CIRCLE
  5
130
100
AcDbEntity
  8
Geländer_unsichtbar
  6
DASHED
 62
  256
370
   13
100
AcDbCircle
 10
-30
 20
-76
 40
5
  0
CIRCLE
  5
131
100
AcDbEntity
  8
Geländer_unsichtbar
  6
DASHED
 62
  256
370
   13
100
AcDbCircle
 10
30
 20
-76
 40
5
  0
LINE
  5
132
100
AcDbEntity
  8
Geländer_unsichtbar
  6
DASHED
 62
  256
370
   13
100
AcDbLine
 10
40
 20
-86
 11
40
 21
86
  0
LINE
  5
133
100
AcDbEntity
  8
Geländer_unsichtbar
  6
DASHED
 62
  256
370
   13
100
AcDbLine
 10
-40
 20
86
 11
-40
 21
-86
  0
LINE
  5
134
100
AcDbEntity
  8
Geländer
  6
ByLayer
 62
  256
370
   -1
100
AcDbLine
 10
-16
 20
-80
 11
16
 21
-80
  0
POINT
  5
135
100
AcDbEntity
  8
Geländer2
  6
ByLayer
 62
  256
370
   -1
100
AcDbPoint
 10
0
 20
0
  0
ENDBLK
  5
95
330
93
100
AcDbEntity
  8
0
100
AcDbBlockEnd
  0
BLOCK
  5
97
330
96
100
AcDbEntity
  8
0
100
AcDbBlockBegin
  2
Geländer_Flansch-1_Stab
 70
    0
 10
0
 20
0
  3
Geländer_Flansch-1_Stab
  1

  0
LWPOLYLINE
  5
136
100
AcDbEntity
  8
Geländer2
  6
ByLayer
 62
  256
370
   -1
100
AcDbPolyline
 90
    4
 70
    1
 43
0
 10
-6
 20
-70
 10
6
 20
-70
 10
6
 20
630
 10
-6
 20
630
  0
ENDBLK
  5
98
330
96
100
AcDbEntity
  8
0
100
AcDbBlockEnd
  0
BLOCK
  5
9A
330
99
100
AcDbEntity
  8
0
100
AcDbBlockBegin
  2
Geländer_Flansch-2
 70
    0
 10
0
 20
0
  3
Geländer_Flansch-2
  1

  0
POINT
  5
137
100
AcDbEntity
  8
Geländer_unsichtbar
  6
DASHED
 62
  256
370
   13
100
AcDbPoint
 10
-30
 20
-70
  0
POINT
  5
138
100
AcDbEntity
  8
Geländer_unsichtbar
  6
DASHED
 62
  256
370
   13
100
AcDbPoint
 10
30
 20
-70
  0
LWPOLYLINE
  5
139
100
AcDbEntity
  8
Geländer_unsichtbar
  6
DASHED
 62
  256
370
   13
100
AcDbPolyline
 90
    4
 70
    1
 43
0
 10
-4
 20
80
 10
4
 20
80
 10
4
 20
40
 10
-4
 20
40
  0
LWPOLYLINE
  5
13A
100
AcDbEntity
  8
Geländer_unsichtbar
  6
DASHED
 62
  256
370
   13
100
AcDbPolyline
 90
    4
 70
    1
 43
0
 10
-4
 20
-80
 10
4
 20
-80
 10
4
 20
-40
 10
-4
 20
-40
  0
LINE
  5
13B
100
AcDbEntity
  8
Geländer_unsichtbar
  6
DASHED
 62
  256
370
   13
100
AcDbLine
 10
-16
 20
-80
 11
16
 21
-80
  0
LINE
  5
13C
100
AcDbEntity
  8
Geländer_unsichtbar
  6
DASHED
 62
  256
370
   13
100
AcDbLine
 10
40
 20
86
 11
-40
 21
86
  0
LINE
  5
13D
100
AcDbEntity
  8
Geländer_unsichtbar
  6
DASHED
 62
  256
370
   13
100
AcDbLine
 10
-40
 20
-86
 11
40
 21
-86
  0
CIRCLE
  5
13E
100
AcDbEntity
  8
Geländer_unsichtbar
  6
DASHED
 62
  256
370
   13
100
AcDbCircle
 10
-30
 20
76
 40
5
  0
CIRCLE
  5
13F
100
AcDbEntity
  8
Geländer_unsichtbar
  6
DASHED
 62
  256
370
   13
100
AcDbCircle
 10
30
 20
76
 40
5
  0
CIRCLE
  5
140
100
AcDbEntity
  8
Geländer_unsichtbar
  6
DASHED
 62
  256
370
   13
100
AcDbCircle
 10
-30
 20
-76
 40
5
  0
CIRCLE
  5
141
100
AcDbEntity
  8
Geländer_unsichtbar
  6
DASHED
 62
  256
370
   13
100
AcDbCircle
 10
30
 20
-76
 40
5
  0
LINE
  5
142
100
AcDbEntity
  8
Geländer_unsichtbar
  6
DASHED
 62
  256
370
   13
100
AcDbLine
 10
40
 20
-86
 11
40
 21
86
  0
LINE
  5
143
100
AcDbEntity
  8
Geländer_unsichtbar
  6
DASHED
 62
  256
370
   13
100
AcDbLine
 10
-40
 20
86
 11
-40
 21
-86
  0
LINE
  5
144
100
AcDbEntity
  8
Geländer
  6
ByLayer
 62
  256
370
   -1
100
AcDbLine
 10
-16
 20
-80
 11
16
 21
-80
  0
LINE
  5
145
100
AcDbEntity
  8
Geländer2
  6
ByLayer
 62
  256
370
   -1
100
AcDbLine
 10
-16
 20
-80
 11
16
 21
-80
  0
LINE
  5
146
100
AcDbEntity
  8
Geländer3
  6
ByLayer
 62
  256
370
   -1
100
AcDbLine
 10
-16
 20
1070
 11
-16
 21
-80
  0
LINE
  5
147
100
AcDbEntity
  8
Geländer3
  6
ByLayer
 62
  256
370
   -1
100
AcDbLine
 10
16
 20
-80
 11
16
 21
1070
  0
LINE
  5
148
100
AcDbEntity
  8
Geländer3
  6
ByLayer
 62
  256
370
   -1
100
AcDbLine
 10
-16
 20
1150
 11
-16
 21
1070
  0
LINE
  5
149
100
AcDbEntity
  8
Geländer3
  6
ByLayer
 62
  256
370
   -1
100
AcDbLine
 10
-16
 20
1150
 11
16
 21
1150
  0
LINE
  5
14A
100
AcDbEntity
  8
Geländer3
  6
ByLayer
 62
  256
370
   -1
100
AcDbLine
 10
16
 20
1070
 11
16
 21
1150
  0
LINE
  5
14B
100
AcDbEntity
  8
Geländer_unsichtbar
  6
DASHDOT
 62
  256
370
   -1
100
AcDbLine
 10
2.664535259100376e-014
 20
1150
 11
-6.520012394567454e-014
 21
-350
  0
POINT
  5
14C
100
AcDbEntity
  8
Geländer_unsichtbar
  6
ByLayer
 62
  256
370
   -1
100
AcDbPoint
 10
-4.376951275378294e-014
 20
0
  0
ENDBLK
  5
9B
330
99
100
AcDbEntity
  8
0
100
AcDbBlockEnd
  0
BLOCK
  5
9D
330
9C
100
AcDbEntity
  8
0
100
AcDbBlockBegin
  2
Geländer_Flansch-3
 70
    0
 10
0
 20
0
  3
Geländer_Flansch-3
  1

  0
POINT
  5
14D
100
AcDbEntity
  8
Geländer_unsichtbar
  6
DASHED
 62
  256
370
   13
100
AcDbPoint
 10
-30
 20
-70
  0
POINT
  5
14E
100
AcDbEntity
  8
Geländer_unsichtbar
  6
DASHED
 62
  256
370
   13
100
AcDbPoint
 10
30
 20
-70
  0
LWPOLYLINE
  5
14F
100
AcDbEntity
  8
Geländer_unsichtbar
  6
DASHED
 62
  256
370
   13
100
AcDbPolyline
 90
    4
 70
    1
 43
0
 10
-4
 20
80
 10
4
 20
80
 10
4
 20
40
 10
-4
 20
40
  0
LWPOLYLINE
  5
150
100
AcDbEntity
  8
Geländer_unsichtbar
  6
DASHED
 62
  256
370
   13
100
AcDbPolyline
 90
    4
 70
    1
 43
0
 10
-4
 20
-80
 10
4
 20
-80
 10
4
 20
-40
 10
-4
 20
-40
  0
LINE
  5
151
100
AcDbEntity
  8
Geländer_unsichtbar
  6
DASHED
 62
  256
370
   13
100
AcDbLine
 10
-16
 20
-80
 11
16
 21
-80
  0
LINE
  5
152
100
AcDbEntity
  8
Geländer_unsichtbar
  6
DASHED
 62
  256
370
   13
100
AcDbLine
 10
40
 20
86
 11
-40
 21
86
  0
LINE
  5
153
100
AcDbEntity
  8
Geländer_unsichtbar
  6
DASHED
 62
  256
370
   13
100
AcDbLine
 10
-40
 20
-86
 11
40
 21
-86
  0
CIRCLE
  5
154
100
AcDbEntity
  8
Geländer_unsichtbar
  6
DASHED
 62
  256
370
   13
100
AcDbCircle
 10
-30
 20
76
 40
5
  0
CIRCLE
  5
155
100
AcDbEntity
  8
Geländer_unsichtbar
  6
DASHED
 62
  256
370
   13
100
AcDbCircle
 10
30
 20
76
 40
5
  0
CIRCLE
  5
156
100
AcDbEntity
  8
Geländer_unsichtbar
  6
DASHED
 62
  256
370
   13
100
AcDbCircle
 10
-30
 20
-76
 40
5
  0
CIRCLE
  5
157
100
AcDbEntity
  8
Geländer_unsichtbar
  6
DASHED
 62
  256
370
   13
100
AcDbCircle
 10
30
 20
-76
 40
5
  0
LINE
  5
158
100
AcDbEntity
  8
Geländer_unsichtbar
  6
DASHED
 62
  256
370
   13
100
AcDbLine
 10
40
 20
-86
 11
40
 21
86
  0
LINE
  5
159
100
AcDbEntity
  8
Geländer_unsichtbar
  6
DASHED
 62
  256
370
   13
100
AcDbLine
 10
-40
 20
86
 11
-40
 21
-86
  0
LINE
  5
15A
100
AcDbEntity
  8
Geländer
  6
ByLayer
 62
  256
370
   -1
100
AcDbLine
 10
-16
 20
-80
 11
16
 21
-80
  0
LINE
  5
15B
100
AcDbEntity
  8
Geländer2
  6
ByLayer
 62
  256
370
   -1
100
AcDbLine
 10
-16
 20
1070
 11
-16
 21
-80
  0
LINE
  5
15C
100
AcDbEntity
  8
Geländer2
  6
ByLayer
 62
  256
370
   -1
100
AcDbLine
 10
16
 20
-80
 11
16
 21
1070
  0
LINE
  5
15D
100
AcDbEntity
  8
Geländer_unsichtbar
  6
DASHDOT
 62
  256
370
   -1
100
AcDbLine
 10
2.664535259100376e-014
 20
1150
 11
-6.520012394567454e-014
 21
-350
  0
POINT
  5
15E
100
AcDbEntity
  8
Geländer2
  6
ByLayer
 62
  256
370
   -1
100
AcDbPoint
 10
-4.376951275378294e-014
 20
0
  0
LINE
  5
15F
100
AcDbEntity
  8
Geländer2
  6
ByLayer
 62
  256
370
   -1
100
AcDbLine
 10
-16
 20
1150
 11
-16
 21
1070
  0
LINE
  5
160
100
AcDbEntity
  8
Geländer2
  6
ByLayer
 62
  256
370
   -1
100
AcDbLine
 10
-16
 20
1150
 11
16
 21
1150
  0
LINE
  5
161
100
AcDbEntity
  8
Geländer2
  6
ByLayer
 62
  256
370
   -1
100
AcDbLine
 10
16
 20
1070
 11
16
 21
1150
  0
LINE
  5
162
100
AcDbEntity
  8
Geländer2
  6
ByLayer
 62
  256
370
   -1
100
AcDbLine
 10
-16
 20
-80
 11
16
 21
-80
  0
ENDBLK
  5
9E
330
9C
100
AcDbEntity
  8
0
100
AcDbBlockEnd
  0
BLOCK
  5
A0
330
9F
100
AcDbEntity
  8
0
100
AcDbBlockBegin
  2
Geländer_Flansch-3_Stab
 70
    0
 10
0
 20
0
  3
Geländer_Flansch-3_Stab
  1

  0
LWPOLYLINE
  5
163
100
AcDbEntity
  8
Geländer3
  6
ByLayer
 62
  256
370
   -1
100
AcDbPolyline
 90
    4
 70
    1
 43
0
 10
6
 20
600
 10
-6
 20
600
 10
-6
 20
-40
 10
6
 20
-40
  0
LWPOLYLINE
  5
164
100
AcDbEntity
  8
Geländer_unsichtbar
  6
ByLayer
 62
  256
370
   -1
100
AcDbPolyline
 90
    4
 70
    1
 43
0
 10
-6
 20
-70
 10
6
 20
-70
 10
6
 20
630
 10
-6
 20
630
  0
POINT
  5
165
100
AcDbEntity
  8
Geländer_unsichtbar
  6
ByLayer
 62
  256
370
   -1
100
AcDbPoint
 10
0
 20
0
  0
ENDBLK
  5
A1
330
9F
100
AcDbEntity
  8
0
100
AcDbBlockEnd
  0
BLOCK
  5
A3
330
A2
100
AcDbEntity
  8
0
100
AcDbBlockBegin
  2
Geländer_Flansch-5
 70
    0
 10
0
 20
0
  3
Geländer_Flansch-5
  1

  0
POINT
  5
166
100
AcDbEntity
  8
Geländer_unsichtbar
  6
DASHED
 62
  256
370
   13
100
AcDbPoint
 10
-30
 20
-70
  0
POINT
  5
167
100
AcDbEntity
  8
Geländer_unsichtbar
  6
DASHED
 62
  256
370
   13
100
AcDbPoint
 10
30
 20
-70
  0
LWPOLYLINE
  5
168
100
AcDbEntity
  8
Geländer_unsichtbar
  6
DASHED
 62
  256
370
   13
100
AcDbPolyline
 90
    4
 70
    1
 43
0
 10
-4
 20
80
 10
4
 20
80
 10
4
 20
40
 10
-4
 20
40
  0
LWPOLYLINE
  5
169
100
AcDbEntity
  8
Geländer_unsichtbar
  6
DASHED
 62
  256
370
   13
100
AcDbPolyline
 90
    4
 70
    1
 43
0
 10
-4
 20
-80
 10
4
 20
-80
 10
4
 20
-40
 10
-4
 20
-40
  0
LINE
  5
16A
100
AcDbEntity
  8
Geländer_unsichtbar
  6
DASHED
 62
  256
370
   13
100
AcDbLine
 10
-16
 20
-80
 11
16
 21
-80
  0
LINE
  5
16B
100
AcDbEntity
  8
Geländer_unsichtbar
  6
DASHED
 62
  256
370
   13
100
AcDbLine
 10
40
 20
86
 11
-40
 21
86
  0
LINE
  5
16C
100
AcDbEntity
  8
Geländer_unsichtbar
  6
DASHED
 62
  256
370
   13
100
AcDbLine
 10
-40
 20
-86
 11
40
 21
-86
  0
CIRCLE
  5
16D
100
AcDbEntity
  8
Geländer_unsichtbar
  6
DASHED
 62
  256
370
   13
100
AcDbCircle
 10
-30
 20
76
 40
5
  0
CIRCLE
  5
16E
100
AcDbEntity
  8
Geländer_unsichtbar
  6
DASHED
 62
  256
370
   13
100
AcDbCircle
 10
30
 20
76
 40
5
  0
CIRCLE
  5
16F
100
AcDbEntity
  8
Geländer_unsichtbar
  6
DASHED
 62
  256
370
   13
100
AcDbCircle
 10
-30
 20
-76
 40
5
  0
CIRCLE
  5
170
100
AcDbEntity
  8
Geländer_unsichtbar
  6
DASHED
 62
  256
370
   13
100
AcDbCircle
 10
30
 20
-76
 40
5
  0
LINE
  5
171
100
AcDbEntity
  8
Geländer_unsichtbar
  6
DASHED
 62
  256
370
   13
100
AcDbLine
 10
40
 20
-86
 11
40
 21
86
  0
LINE
  5
172
100
AcDbEntity
  8
Geländer_unsichtbar
  6
DASHED
 62
  256
370
   13
100
AcDbLine
 10
-40
 20
86
 11
-40
 21
-86
  0
LINE
  5
173
100
AcDbEntity
  8
Geländer
  6
ByLayer
 62
  256
370
   -1
100
AcDbLine
 10
-16
 20
-80
 11
16
 21
-80
  0
LINE
  5
174
100
AcDbEntity
  8
Geländer2
  6
ByLayer
 62
  256
370
   -1
100
AcDbLine
 10
-16
 20
1070
 11
-16
 21
-80
  0
LINE
  5
175
100
AcDbEntity
  8
Geländer2
  6
ByLayer
 62
  256
370
   -1
100
AcDbLine
 10
16
 20
-80
 11
16
 21
1070
  0
LINE
  5
176
100
AcDbEntity
  8
Geländer_unsichtbar
  6
DASHDOT
 62
  256
370
   -1
100
AcDbLine
 10
2.664535259100376e-014
 20
1150
 11
-6.520012394567454e-014
 21
-350
  0
POINT
  5
177
100
AcDbEntity
  8
Geländer2
  6
ByLayer
 62
  256
370
   -1
100
AcDbPoint
 10
-4.376951275378294e-014
 20
0
  0
LINE
  5
178
100
AcDbEntity
  8
Geländer2
  6
ByLayer
 62
  256
370
   -1
100
AcDbLine
 10
-16
 20
1150
 11
-16
 21
1070
  0
LINE
  5
179
100
AcDbEntity
  8
Geländer2
  6
ByLayer
 62
  256
370
   -1
100
AcDbLine
 10
-16
 20
1150
 11
16
 21
1150
  0
LINE
  5
17A
100
AcDbEntity
  8
Geländer2
  6
ByLayer
 62
  256
370
   -1
100
AcDbLine
 10
16
 20
1070
 11
16
 21
1150
  0
LINE
  5
17B
100
AcDbEntity
  8
Geländer2
  6
ByLayer
 62
  256
370
   -1
100
AcDbLine
 10
-16
 20
-80
 11
16
 21
-80
  0
ENDBLK
  5
A4
330
A2
100
AcDbEntity
  8
0
100
AcDbBlockEnd
  0
BLOCK
  5
A6
330
A5
100
AcDbEntity
  8
0
100
AcDbBlockBegin
  2
Geländer_Flansch-4
 70
    0
 10
0
 20
0
  3
Geländer_Flansch-4
  1

  0
POINT
  5
17C
100
AcDbEntity
  8
Geländer_unsichtbar
  6
DASHED
 62
  256
370
   13
100
AcDbPoint
 10
-30
 20
-70
  0
POINT
  5
17D
100
AcDbEntity
  8
Geländer_unsichtbar
  6
DASHED
 62
  256
370
   13
100
AcDbPoint
 10
30
 20
-70
  0
LWPOLYLINE
  5
17E
100
AcDbEntity
  8
Geländer_unsichtbar
  6
DASHED
 62
  256
370
   13
100
AcDbPolyline
 90
    4
 70
    1
 43
0
 10
-4
 20
80
 10
4
 20
80
 10
4
 20
40
 10
-4
 20
40
  0
LWPOLYLINE
  5
17F
100
AcDbEntity
  8
Geländer_unsichtbar
  6
DASHED
 62
  256
370
   13
100
AcDbPolyline
 90
    4
 70
    1
 43
0
 10
-4
 20
-80
 10
4
 20
-80
 10
4
 20
-40
 10
-4
 20
-40
  0
LINE
  5
180
100
AcDbEntity
  8
Geländer_unsichtbar
  6
DASHED
 62
  256
370
   13
100
AcDbLine
 10
-16
 20
-80
 11
16
 21
-80
  0
LINE
  5
181
100
AcDbEntity
  8
Geländer_unsichtbar
  6
DASHED
 62
  256
370
   13
100
AcDbLine
 10
40
 20
86
 11
-40
 21
86
  0
LINE
  5
182
100
AcDbEntity
  8
Geländer_unsichtbar
  6
DASHED
 62
  256
370
   13
100
AcDbLine
 10
-40
 20
-86
 11
40
 21
-86
  0
CIRCLE
  5
183
100
AcDbEntity
  8
Geländer_unsichtbar
  6
DASHED
 62
  256
370
   13
100
AcDbCircle
 10
-30
 20
76
 40
5
  0
CIRCLE
  5
184
100
AcDbEntity
  8
Geländer_unsichtbar
  6
DASHED
 62
  256
370
   13
100
AcDbCircle
 10
30
 20
76
 40
5
  0
CIRCLE
  5
185
100
AcDbEntity
  8
Geländer_unsichtbar
  6
DASHED
 62
  256
370
   13
100
AcDbCircle
 10
-30
 20
-76
 40
5
  0
CIRCLE
  5
186
100
AcDbEntity
  8
Geländer_unsichtbar
  6
DASHED
 62
  256
370
   13
100
AcDbCircle
 10
30
 20
-76
 40
5
  0
LINE
  5
187
100
AcDbEntity
  8
Geländer_unsichtbar
  6
DASHED
 62
  256
370
   13
100
AcDbLine
 10
40
 20
-86
 11
40
 21
86
  0
LINE
  5
188
100
AcDbEntity
  8
Geländer_unsichtbar
  6
DASHED
 62
  256
370
   13
100
AcDbLine
 10
-40
 20
86
 11
-40
 21
-86
  0
LINE
  5
189
100
AcDbEntity
  8
Geländer
  6
ByLayer
 62
  256
370
   -1
100
AcDbLine
 10
-16
 20
-80
 11
16
 21
-80
  0
LINE
  5
18A
100
AcDbEntity
  8
Geländer2
  6
ByLayer
 62
  256
370
   -1
100
AcDbLine
 10
-16
 20
-80
 11
16
 21
-80
  0
LINE
  5
18B
100
AcDbEntity
  8
Geländer3
  6
ByLayer
 62
  256
370
   -1
100
AcDbLine
 10
-16
 20
1070
 11
-16
 21
-80
  0
LINE
  5
18C
100
AcDbEntity
  8
Geländer3
  6
ByLayer
 62
  256
370
   -1
100
AcDbLine
 10
16
 20
-80
 11
16
 21
1070
  0
LINE
  5
18D
100
AcDbEntity
  8
Geländer3
  6
ByLayer
 62
  256
370
   -1
100
AcDbLine
 10
-16
 20
1150
 11
-16
 21
1070
  0
LINE
  5
18E
100
AcDbEntity
  8
Geländer3
  6
ByLayer
 62
  256
370
   -1
100
AcDbLine
 10
-16
 20
1150
 11
16
 21
1150
  0
LINE
  5
18F
100
AcDbEntity
  8
Geländer3
  6
ByLayer
 62
  256
370
   -1
100
AcDbLine
 10
16
 20
1070
 11
16
 21
1150
  0
LINE
  5
190
100
AcDbEntity
  8
Geländer_unsichtbar
  6
DASHDOT
 62
  256
370
   -1
100
AcDbLine
 10
2.664535259100376e-014
 20
1150
 11
-6.520012394567454e-014
 21
-350
  0
POINT
  5
191
100
AcDbEntity
  8
Geländer_unsichtbar
  6
ByLayer
 62
  256
370
   -1
100
AcDbPoint
 10
-4.376951275378294e-014
 20
0
  0
LINE
  5
192
100
AcDbEntity
  8
Geländer3
  6
ByLayer
 62
  256
370
   -1
100
AcDbLine
 10
-16
 20
-80
 11
16
 21
-80
  0
ENDBLK
  5
A7
330
A5
100
AcDbEntity
  8
0
100
AcDbBlockEnd
  0
ENDSEC
  0
SECTION
  2
ENTITIES
  0
LINE
  5
193
100
AcDbEntity
  8
0
  6
ByLayer
 62
  256
370
   -1
100
AcDbLine
 10
0
 20
0
 11
5450
 21
0
  0
LINE
  5
194
100
AcDbEntity
  8
0
  6
ByLayer
 62
  256
370
   -1
100
AcDbLine
 10
5450
 20
3150
 11
5450
 21
0
  0
LINE
  5
195
100
AcDbEntity
  8
0
  6
ByLayer
 62
  256
370
   -1
100
AcDbLine
 10
4.592273826833915e-014
 20
2350
 11
5450
 21
2350
  0
LINE
  5
196
100
AcDbEntity
  8
0
  6
ByLayer
 62
  256
370
   -1
100
AcDbLine
 10
420.0000000000001
 20
1000
 11
420.0000000000001
 21
1980
  0
LINE
  5
197
100
AcDbEntity
  8
0
  6
ByLayer
 62
  256
370
   -1
100
AcDbLine
 10
400.0000000000001
 20
1980
 11
400.0000000000001
 21
2080
  0
LINE
  5
198
100
AcDbEntity
  8
0
  6
ByLayer
 62
  256
370
   -1
100
AcDbLine
 10
400.0000000000001
 20
1000
 11
400.0000000000001
 21
900
  0
LINE
  5
199
100
AcDbEntity
  8
0
  6
ByLayer
 62
  256
370
   -1
100
AcDbLine
 10
2950
 20
1000
 11
2950
 21
1980
  0
LINE
  5
19A
100
AcDbEntity
  8
0
  6
ByLayer
 62
  256
370
   -1
100
AcDbLine
 10
2970
 20
1980
 11
2970
 21
2080
  0
LINE
  5
19B
100
AcDbEntity
  8
0
  6
ByLayer
 62
  256
370
   -1
100
AcDbLine
 10
2970
 20
900
 11
2970
 21
1000
  0
LINE
  5
19C
100
AcDbEntity
  8
0
  6
ByLayer
 62
  256
370
   -1
100
AcDbLine
 10
3550
 20
2080
 11
4580
 21
2080
  0
LINE
  5
19D
100
AcDbEntity
  8
0
  6
ByLayer
 62
  256
370
   -1
100
AcDbLine
 10
400.0000000000001
 20
2080
 11
2970
 21
2080
  0
LINE
  5
19E
100
AcDbEntity
  8
0
  6
ByLayer
 62
  256
370
   -1
100
AcDbLine
 10
400.0000000000001
 20
1980
 11
2970
 21
1980
  0
LINE
  5
19F
100
AcDbEntity
  8
0
  6
ByLayer
 62
  256
370
   -1
100
AcDbLine
 10
400.0000000000001
 20
1000
 11
2970
 21
1000
  0
LINE
  5
1A0
100
AcDbEntity
  8
0
  6
ByLayer
 62
  256
370
   -1
100
AcDbLine
 10
400.0000000000001
 20
900
 11
2970
 21
900
  0
LINE
  5
1A1
100
AcDbEntity
  8
0
  6
ByLayer
 62
  256
370
   -1
100
AcDbLine
 10
3570
 20
-4.898425415289509e-015
 11
3570
 21
1980
  0
LINE
  5
1A2
100
AcDbEntity
  8
0
  6
ByLayer
 62
  256
370
   -1
100
AcDbLine
 10
4560
 20
-2.49819696179765e-013
 11
4560
 21
1980
  0
LINE
  5
1A3
100
AcDbEntity
  8
0
  6
ByLayer
 62
  256
370
   -1
100
AcDbLine
 10
3550
 20
1980
 11
3550
 21
2080
  0
LINE
  5
1A4
100
AcDbEntity
  8
0
  6
ByLayer
 62
  256
370
   -1
100
AcDbLine
 10
3550
 20
1980
 11
4580
 21
1980
  0
LINE
  5
1A5
100
AcDbEntity
  8
0
  6
ByLayer
 62
  256
370
   -1
100
AcDbLine
 10
3650
 20
-2.449212707644755e-014
 11
3650
 21
1980
  0
LINE
  5
1A6
100
AcDbEntity
  8
0
  6
ByLayer
 62
  256
370
   -1
100
AcDbLine
 10
4480
 20
-2.400228453491859e-013
 11
4480
 21
1980
  0
LINE
  5
1A7
100
AcDbEntity
  8
hilfe_1
  6
ByLayer
 62
  256
370
   -1
100
AcDbLine
 10
-1.836909530733566e-014
 20
-100
 11
5450
 21
-100
  0
LINE
  5
1A8
100
AcDbEntity
  8
hilfe_1
  6
ByLayer
 62
  256
370
   -1
100
AcDbLine
 10
2700
 20
3150.000000000001
 11
2700
 21
-99.99999999999993
  0
LINE
  5
1A9
100
AcDbEntity
  8
0
  6
ByLayer
 62
  256
370
   -1
100
AcDbLine
 10
0
 20
0
 11
1.59198825996909e-013
 21
2600
  0
LINE
  5
1AA
100
AcDbEntity
  8
0
  6
ByLayer
 62
  256
370
   -1
100
AcDbLine
 10
60.0000000000002
 20
3150
 11
5450
 21
3150
  0
DIMENSION
  5
1AB
100
AcDbEntity
  8
hilfe_1
  6
ByLayer
 62
  256
370
   -1
100
AcDbDimension
  2
*D1
 10
60.00000000000031
 20
4759.686515030212
 30
0
 11
2755
 21
4797.186515030212
 31
0
 70
   32
 71
    5
  3
Standard
 53
0
210
0
220
0
230
1
100
AcDbAlignedDimension
 13
5450
 23
3150
 33
0
 14
60.0000000000002
 24
3150
 34
0
100
AcDbRotatedDimension
  0
LINE
  5
1AC
100
AcDbEntity
  8
0
  6
ByLayer
 62
  256
370
   -1
100
AcDbLine
 10
60.00000000000016
 20
2600
 11
60.00000000000031
 21
4947.234505993675
  0
LINE
  5
1AD
100
AcDbEntity
  8
0
  6
ByLayer
 62
  256
370
   -1
100
AcDbLine
 10
1.59198825996909e-013
 20
2600
 11
60.00000000000016
 21
2600
  0
LINE
  5
1AE
100
AcDbEntity
  8
0
  6
ByLayer
 62
  256
370
   -1
100
AcDbLine
 10
6450
 20
2350
 11
6450
 21
-2.449212707644755e-013
  0
LINE
  5
1AF
100
AcDbEntity
  8
0
  6
ByLayer
 62
  256
370
   -1
100
AcDbLine
 10
6330
 20
2350
 11
6450
 21
2350
  0
LINE
  5
1B0
100
AcDbEntity
  8
0
  6
ByLayer
 62
  256
370
   -1
100
AcDbLine
 10
6330
 20
3150
 11
6330
 21
2350
  0
LINE
  5
1B1
100
AcDbEntity
  8
0
  6
ByLayer
 62
  256
370
   -1
100
AcDbLine
 10
6150
 20
-2.449212707644755e-013
 11
6495
 21
-2.449212707644755e-013
  0
CIRCLE
  5
1B2
100
AcDbEntity
  8
0
  6
ByLayer
 62
  256
370
   -1
100
AcDbCircle
 10
3742.404582715369
 20
1000
 40
28
  0
CIRCLE
  5
1B3
100
AcDbEntity
  8
0
  6
ByLayer
 62
  256
370
   -1
100
AcDbCircle
 10
3742.404582715369
 20
1000
 40
10
  0
CIRCLE
  5
1B4
100
AcDbEntity
  8
0
  6
ByLayer
 62
  256
370
   -1
100
AcDbCircle
 10
3821.449869195437
 20
1000
 40
10
  0
LINE
  5
1B5
100
AcDbEntity
  8
0
  6
ByLayer
 62
  256
370
   -1
100
AcDbLine
 10
3742.404582715369
 20
990
 11
3821.449869195437
 21
990
  0
LINE
  5
1B6
100
AcDbEntity
  8
0
  6
ByLayer
 62
  256
370
   -1
100
AcDbLine
 10
3821.449869195437
 20
1010
 11
3742.404582715369
 21
1010
  0
LINE
  5
1B7
100
AcDbEntity
  8
0
  6
ByLayer
 62
  256
370
   -1
100
AcDbLine
 10
3800
 20
300
 11
3966.666666666667
 21
300
  0
LINE
  5
1B8
100
AcDbEntity
  8
0
  6
ByLayer
 62
  256
370
   -1
100
AcDbLine
 10
3986.666666666667
 20
300
 11
4143.333333333333
 21
300
  0
LINE
  5
1B9
100
AcDbEntity
  8
0
  6
ByLayer
 62
  256
370
   -1
100
AcDbLine
 10
4163.333333333333
 20
300
 11
4330
 21
300
  0
LINE
  5
1BA
100
AcDbEntity
  8
0
  6
ByLayer
 62
  256
370
   -1
100
AcDbLine
 10
3650
 20
150
 11
4480
 21
150
  0
LINE
  5
1BB
100
AcDbEntity
  8
0
  6
ByLayer
 62
  256
370
   -1
100
AcDbLine
 10
4330
 20
300
 11
4330
 21
1830
  0
LINE
  5
1BC
100
AcDbEntity
  8
0
  6
ByLayer
 62
  256
370
   -1
100
AcDbLine
 10
4163.333333333333
 20
300
 11
4163.333333333333
 21
1830
  0
LINE
  5
1BD
100
AcDbEntity
  8
0
  6
ByLayer
 62
  256
370
   -1
100
AcDbLine
 10
4143.333333333333
 20
300
 11
4143.333333333333
 21
1830
  0
LINE
  5
1BE
100
AcDbEntity
  8
0
  6
ByLayer
 62
  256
370
   -1
100
AcDbLine
 10
3986.666666666667
 20
1830
 11
3986.666666666667
 21
300
  0
LINE
  5
1BF
100
AcDbEntity
  8
0
  6
ByLayer
 62
  256
370
   -1
100
AcDbLine
 10
3966.666666666667
 20
1830
 11
3966.666666666667
 21
300
  0
LINE
  5
1C0
100
AcDbEntity
  8
0
  6
ByLayer
 62
  256
370
   -1
100
AcDbLine
 10
3800
 20
300
 11
3800
 21
1830
  0
LINE
  5
1C1
100
AcDbEntity
  8
0
  6
ByLayer
 62
  256
370
   -1
100
AcDbLine
 10
3800
 20
1830
 11
3966.666666666667
 21
1830
  0
LINE
  5
1C2
100
AcDbEntity
  8
0
  6
ByLayer
 62
  256
370
   -1
100
AcDbLine
 10
4163.333333333333
 20
1830
 11
4330
 21
1830
  0
LINE
  5
1C3
100
AcDbEntity
  8
0
  6
ByLayer
 62
  256
370
   -1
100
AcDbLine
 10
3986.666666666667
 20
1830
 11
4143.333333333333
 21
1830
  0
CIRCLE
  5
1C4
100
AcDbEntity
  8
0
  6
ByLayer
 62
  256
370
   -1
100
AcDbCircle
 10
3816
 20
100
 40
10
  0
CIRCLE
  5
1C5
100
AcDbEntity
  8
0
  6
ByLayer
 62
  256
370
   -1
100
AcDbCircle
 10
3982
 20
100
 40
10
  0
CIRCLE
  5
1C6
100
AcDbEntity
  8
0
  6
ByLayer
 62
  256
370
   -1
100
AcDbCircle
 10
4148
 20
100
 40
10
  0
CIRCLE
  5
1C7
100
AcDbEntity
  8
0
  6
ByLayer
 62
  256
370
   -1
100
AcDbCircle
 10
4314
 20
100
 40
10
  0
LINE
  5
1C8
100
AcDbEntity
  8
0
  6
ByLayer
 62
  256
370
   -1
100
AcDbLine
 10
520
 20
1000
 11
520.0000000000001
 21
1980
  0
LINE
  5
1C9
100
AcDbEntity
  8
0
  6
ByLayer
 62
  256
370
   -1
100
AcDbLine
 10
2850
 20
1000
 11
2850
 21
1980
  0
LINE
  5
1CA
100
AcDbEntity
  8
0
  6
ByLayer
 62
  256
370
   -1
100
AcDbLine
 10
1230
 20
1653.333333333333
 11
1230
 21
1698.333333333333
  0
LINE
  5
1CB
100
AcDbEntity
  8
0
  6
ByLayer
 62
  256
370
   -1
100
AcDbLine
 10
1330
 20
1653.333333333333
 11
1330
 21
1698.333333333333
  0
LINE
  5
1CC
100
AcDbEntity
  8
0
  6
ByLayer
 62
  256
370
   -1
100
AcDbLine
 10
2040
 20
1653.333333333333
 11
2040
 21
1698.333333333333
  0
LINE
  5
1CD
100
AcDbEntity
  8
0
  6
ByLayer
 62
  256
370
   -1
100
AcDbLine
 10
2140
 20
1653.333333333333
 11
2140
 21
1698.333333333333
  0
LINE
  5
1CE
100
AcDbEntity
  8
0
  6
ByLayer
 62
  256
370
   -1
100
AcDbLine
 10
1230
 20
999.9999999999998
 11
1230
 21
1980
  0
LINE
  5
1CF
100
AcDbEntity
  8
0
  6
ByLayer
 62
  256
370
   -1
100
AcDbLine
 10
1330
 20
999.9999999999998
 11
1330
 21
1980
  0
LINE
  5
1D0
100
AcDbEntity
  8
0
  6
ByLayer
 62
  256
370
   -1
100
AcDbLine
 10
2040
 20
999.9999999999997
 11
2040
 21
1980
  0
LINE
  5
1D1
100
AcDbEntity
  8
0
  6
ByLayer
 62
  256
370
   -1
100
AcDbLine
 10
2140
 20
999.9999999999997
 11
2140
 21
1980
  0
LINE
  5
1D2
100
AcDbEntity
  8
0
  6
ByLayer
 62
  256
370
   -1
100
AcDbLine
 10
550.0000000000001
 20
1950
 11
1200
 21
1950
  0
LINE
  5
1D3
100
AcDbEntity
  8
0
  6
ByLayer
 62
  256
370
   -1
100
AcDbLine
 10
550
 20
1030
 11
550.0000000000001
 21
1950
  0
LINE
  5
1D4
100
AcDbEntity
  8
0
  6
ByLayer
 62
  256
370
   -1
100
AcDbLine
 10
1200
 20
1030
 11
1200
 21
1950
  0
LINE
  5
1D5
100
AcDbEntity
  8
0
  6
ByLayer
 62
  256
370
   -1
100
AcDbLine
 10
550
 20
1030
 11
1200
 21
1030
  0
LINE
  5
1D6
100
AcDbEntity
  8
0
  6
ByLayer
 62
  256
370
   -1
100
AcDbLine
 10
919.9999999999999
 20
1030
 11
920
 21
1950
  0
LINE
  5
1D7
100
AcDbEntity
  8
0
  6
ByLayer
 62
  256
370
   -1
100
AcDbLine
 10
830
 20
1950
 11
920
 21
1950
  0
LINE
  5
1D8
100
AcDbEntity
  8
0
  6
ByLayer
 62
  256
370
   -1
100
AcDbLine
 10
849.9999999999999
 20
1030
 11
850
 21
1950
  0
LINE
  5
1D9
100
AcDbEntity
  8
0
  6
ByLayer
 62
  256
370
   -1
100
AcDbLine
 10
899.9999999999999
 20
1030
 11
900
 21
1950
  0
LINE
  5
1DA
100
AcDbEntity
  8
0
  6
ByLayer
 62
  256
370
   -1
100
AcDbLine
 10
830
 20
1653.333333333333
 11
830
 21
1950
  0
LINE
  5
1DB
100
AcDbEntity
  8
0
  6
ByLayer
 62
  256
370
   -1
100
AcDbLine
 10
829.9999999999999
 20
1030
 11
830.0000000000001
 21
1633.333333333333
  0
LINE
  5
1DC
100
AcDbEntity
  8
0
  6
ByLayer
 62
  256
370
   -1
100
AcDbLine
 10
830.0000000000001
 20
1633.333333333333
 11
830
 21
1653.333333333333
  0
LINE
  5
1DD
100
AcDbEntity
  8
0
  6
ByLayer
 62
  256
370
   -1
100
AcDbLine
 10
550.0000000000001
 20
1653.333333333333
 11
830
 21
1653.333333333333
  0
LINE
  5
1DE
100
AcDbEntity
  8
0
  6
ByLayer
 62
  256
370
   -1
100
AcDbLine
 10
550.0000000000001
 20
1633.333333333333
 11
830
 21
1633.333333333333
  0
LINE
  5
1DF
100
AcDbEntity
  8
0
  6
ByLayer
 62
  256
370
   -1
100
AcDbLine
 10
550
 20
1346.666666666667
 11
830
 21
1346.666666666667
  0
LINE
  5
1E0
100
AcDbEntity
  8
0
  6
ByLayer
 62
  256
370
   -1
100
AcDbLine
 10
550
 20
1326.666666666667
 11
830
 21
1326.666666666667
  0
LINE
  5
1E1
100
AcDbEntity
  8
0
  6
ByLayer
 62
  256
370
   -1
100
AcDbLine
 10
1200
 20
1633.333333333333
 11
1200
 21
1653.333333333333
  0
LINE
  5
1E2
100
AcDbEntity
  8
0
  6
ByLayer
 62
  256
370
   -1
100
AcDbLine
 10
920
 20
1653.333333333333
 11
1200
 21
1653.333333333333
  0
LINE
  5
1E3
100
AcDbEntity
  8
0
  6
ByLayer
 62
  256
370
   -1
100
AcDbLine
 10
920
 20
1633.333333333333
 11
1200
 21
1633.333333333333
  0
LINE
  5
1E4
100
AcDbEntity
  8
0
  6
ByLayer
 62
  256
370
   -1
100
AcDbLine
 10
919.9999999999999
 20
1346.666666666667
 11
1200
 21
1346.666666666667
  0
LINE
  5
1E5
100
AcDbEntity
  8
0
  6
ByLayer
 62
  256
370
   -1
100
AcDbLine
 10
919.9999999999999
 20
1326.666666666667
 11
1200
 21
1326.666666666667
  0
LINE
  5
1E6
100
AcDbEntity
  8
0
  6
ByLayer
 62
  256
370
   -1
100
AcDbLine
 10
1360
 20
1950
 11
2010
 21
1950
  0
LINE
  5
1E7
100
AcDbEntity
  8
0
  6
ByLayer
 62
  256
370
   -1
100
AcDbLine
 10
1360
 20
1030
 11
1360
 21
1950
  0
LINE
  5
1E8
100
AcDbEntity
  8
0
  6
ByLayer
 62
  256
370
   -1
100
AcDbLine
 10
2010
 20
1030
 11
2010
 21
1950
  0
LINE
  5
1E9
100
AcDbEntity
  8
0
  6
ByLayer
 62
  256
370
   -1
100
AcDbLine
 10
1360
 20
1030
 11
2010
 21
1030
  0
LINE
  5
1EA
100
AcDbEntity
  8
0
  6
ByLayer
 62
  256
370
   -1
100
AcDbLine
 10
1730
 20
1030
 11
1730
 21
1950
  0
LINE
  5
1EB
100
AcDbEntity
  8
0
  6
ByLayer
 62
  256
370
   -1
100
AcDbLine
 10
1640
 20
1950
 11
1730
 21
1950
  0
LINE
  5
1EC
100
AcDbEntity
  8
0
  6
ByLayer
 62
  256
370
   -1
100
AcDbLine
 10
1660
 20
1030
 11
1660
 21
1950
  0
LINE
  5
1ED
100
AcDbEntity
  8
0
  6
ByLayer
 62
  256
370
   -1
100
AcDbLine
 10
1710
 20
1030
 11
1710
 21
1950
  0
LINE
  5
1EE
100
AcDbEntity
  8
0
  6
ByLayer
 62
  256
370
   -1
100
AcDbLine
 10
1640
 20
1653.333333333334
 11
1640
 21
1950
  0
LINE
  5
1EF
100
AcDbEntity
  8
0
  6
ByLayer
 62
  256
370
   -1
100
AcDbLine
 10
1640
 20
1030
 11
1640
 21
1633.333333333333
  0
LINE
  5
1F0
100
AcDbEntity
  8
0
  6
ByLayer
 62
  256
370
   -1
100
AcDbLine
 10
1640
 20
1633.333333333333
 11
1640
 21
1653.333333333334
  0
LINE
  5
1F1
100
AcDbEntity
  8
0
  6
ByLayer
 62
  256
370
   -1
100
AcDbLine
 10
1360
 20
1653.333333333333
 11
1640
 21
1653.333333333334
  0
LINE
  5
1F2
100
AcDbEntity
  8
0
  6
ByLayer
 62
  256
370
   -1
100
AcDbLine
 10
1360
 20
1633.333333333333
 11
1640
 21
1633.333333333334
  0
LINE
  5
1F3
100
AcDbEntity
  8
0
  6
ByLayer
 62
  256
370
   -1
100
AcDbLine
 10
1360
 20
1346.666666666667
 11
1640
 21
1346.666666666667
  0
LINE
  5
1F4
100
AcDbEntity
  8
0
  6
ByLayer
 62
  256
370
   -1
100
AcDbLine
 10
1360
 20
1326.666666666667
 11
1640
 21
1326.666666666667
  0
LINE
  5
1F5
100
AcDbEntity
  8
0
  6
ByLayer
 62
  256
370
   -1
100
AcDbLine
 10
2010
 20
1633.333333333333
 11
2010
 21
1653.333333333334
  0
LINE
  5
1F6
100
AcDbEntity
  8
0
  6
ByLayer
 62
  256
370
   -1
100
AcDbLine
 10
1730
 20
1653.333333333333
 11
2010
 21
1653.333333333334
  0
LINE
  5
1F7
100
AcDbEntity
  8
0
  6
ByLayer
 62
  256
370
   -1
100
AcDbLine
 10
1730
 20
1633.333333333333
 11
2010
 21
1633.333333333334
  0
LINE
  5
1F8
100
AcDbEntity
  8
0
  6
ByLayer
 62
  256
370
   -1
100
AcDbLine
 10
1730
 20
1346.666666666667
 11
2010
 21
1346.666666666667
  0
LINE
  5
1F9
100
AcDbEntity
  8
0
  6
ByLayer
 62
  256
370
   -1
100
AcDbLine
 10
1730
 20
1326.666666666667
 11
2010
 21
1326.666666666667
  0
LINE
  5
1FA
100
AcDbEntity
  8
0
  6
ByLayer
 62
  256
370
   -1
100
AcDbLine
 10
2170
 20
1950
 11
2820
 21
1950
  0
LINE
  5
1FB
100
AcDbEntity
  8
0
  6
ByLayer
 62
  256
370
   -1
100
AcDbLine
 10
2170
 20
1030
 11
2170
 21
1950
  0
LINE
  5
1FC
100
AcDbEntity
  8
0
  6
ByLayer
 62
  256
370
   -1
100
AcDbLine
 10
2820
 20
1030
 11
2820
 21
1950
  0
LINE
  5
1FD
100
AcDbEntity
  8
0
  6
ByLayer
 62
  256
370
   -1
100
AcDbLine
 10
2170
 20
1030
 11
2820
 21
1030
  0
LINE
  5
1FE
100
AcDbEntity
  8
0
  6
ByLayer
 62
  256
370
   -1
100
AcDbLine
 10
2540
 20
1030
 11
2540
 21
1950
  0
LINE
  5
1FF
100
AcDbEntity
  8
0
  6
ByLayer
 62
  256
370
   -1
100
AcDbLine
 10
2450
 20
1950
 11
2540
 21
1950
  0
LINE
  5
200
100
AcDbEntity
  8
0
  6
ByLayer
 62
  256
370
   -1
100
AcDbLine
 10
2470
 20
1030
 11
2470
 21
1950
  0
LINE
  5
201
100
AcDbEntity
  8
0
  6
ByLayer
 62
  256
370
   -1
100
AcDbLine
 10
2520
 20
1030
 11
2520
 21
1950
  0
LINE
  5
202
100
AcDbEntity
  8
0
  6
ByLayer
 62
  256
370
   -1
100
AcDbLine
 10
2450
 20
1653.333333333334
 11
2450
 21
1950
  0
LINE
  5
203
100
AcDbEntity
  8
0
  6
ByLayer
 62
  256
370
   -1
100
AcDbLine
 10
2450
 20
1030
 11
2450
 21
1633.333333333333
  0
LINE
  5
204
100
AcDbEntity
  8
0
  6
ByLayer
 62
  256
370
   -1
100
AcDbLine
 10
2450
 20
1633.333333333333
 11
2450
 21
1653.333333333334
  0
LINE
  5
205
100
AcDbEntity
  8
0
  6
ByLayer
 62
  256
370
   -1
100
AcDbLine
 10
2170
 20
1653.333333333333
 11
2450
 21
1653.333333333334
  0
LINE
  5
206
100
AcDbEntity
  8
0
  6
ByLayer
 62
  256
370
   -1
100
AcDbLine
 10
2170
 20
1633.333333333333
 11
2450
 21
1633.333333333334
  0
LINE
  5
207
100
AcDbEntity
  8
0
  6
ByLayer
 62
  256
370
   -1
100
AcDbLine
 10
2170
 20
1346.666666666667
 11
2450
 21
1346.666666666667
  0
LINE
  5
208
100
AcDbEntity
  8
0
  6
ByLayer
 62
  256
370
   -1
100
AcDbLine
 10
2170
 20
1326.666666666667
 11
2450
 21
1326.666666666667
  0
LINE
  5
209
100
AcDbEntity
  8
0
  6
ByLayer
 62
  256
370
   -1
100
AcDbLine
 10
2820
 20
1633.333333333333
 11
2820
 21
1653.333333333334
  0
LINE
  5
20A
100
AcDbEntity
  8
0
  6
ByLayer
 62
  256
370
   -1
100
AcDbLine
 10
2540
 20
1653.333333333333
 11
2820
 21
1653.333333333334
  0
LINE
  5
20B
100
AcDbEntity
  8
0
  6
ByLayer
 62
  256
370
   -1
100
AcDbLine
 10
2540
 20
1633.333333333333
 11
2820
 21
1633.333333333334
  0
LINE
  5
20C
100
AcDbEntity
  8
0
  6
ByLayer
 62
  256
370
   -1
100
AcDbLine
 10
2540
 20
1346.666666666667
 11
2820
 21
1346.666666666667
  0
LINE
  5
20D
100
AcDbEntity
  8
0
  6
ByLayer
 62
  256
370
   -1
100
AcDbLine
 10
2540
 20
1326.666666666667
 11
2820
 21
1326.666666666667
  0
INSERT
  5
20E
100
AcDbEntity
  8
Geländer
  6
ByLayer
 62
  256
370
   -1
100
AcDbBlockReference
  2
Geländer_Flansch
 10
5373.262512105691
 20
3000
 30
0
 41
1
 42
1
 43
0
 50
0
 70
    1
 71
    1
 44
1
 45
1
  0
INSERT
  5
20F
100
AcDbEntity
  8
Geländer
  6
ByLayer
 62
  256
370
   -1
100
AcDbBlockReference
  2
Geländer_Flansch
 10
260.0000000000002
 20
3000
 30
0
 41
1
 42
1
 43
0
 50
0
 70
    1
 71
    1
 44
1
 45
1
  0
INSERT
  5
210
100
AcDbEntity
  8
Geländer
  6
ByLayer
 62
  256
370
   -1
100
AcDbBlockReference
  2
Geländer_Flansch
 10
1112.210418684282
 20
3000
 30
0
 41
1
 42
1
 43
0
 50
0
 70
    1
 71
    1
 44
1
 45
1
  0
INSERT
  5
211
100
AcDbEntity
  8
Geländer
  6
ByLayer
 62
  256
370
   -1
100
AcDbBlockReference
  2
Geländer_Flansch
 10
1964.420837368564
 20
3000
 30
0
 41
1
 42
1
 43
0
 50
0
 70
    1
 71
    1
 44
1
 45
1
  0
INSERT
  5
212
100
AcDbEntity
  8
Geländer
  6
ByLayer
 62
  256
370
   -1
100
AcDbBlockReference
  2
Geländer_Flansch
 10
2816.631256052846
 20
3000
 30
0
 41
1
 42
1
 43
0
 50
0
 70
    1
 71
    1
 44
1
 45
1
  0
INSERT
  5
213
100
AcDbEntity
  8
Geländer
  6
ByLayer
 62
  256
370
   -1
100
AcDbBlockReference
  2
Geländer_Flansch
 10
3668.841674737128
 20
3000
 30
0
 41
1
 42
1
 43
0
 50
0
 70
    1
 71
    1
 44
1
 45
1
  0
INSERT
  5
214
100
AcDbEntity
  8
Geländer
  6
ByLayer
 62
  256
370
   -1
100
AcDbBlockReference
  2
Geländer_Flansch
 10
4521.052093421409
 20
3000
 30
0
 41
1
 42
1
 43
0
 50
0
 70
    1
 71
    1
 44
1
 45
1
  0
LINE
  5
215
100
AcDbEntity
  8
Isolatio_neu
  6
ByLayer
 62
  256
370
   -1
100
AcDbLine
 10
6320
 20
2290
 11
6320
 21
-1.971616229654027e-013
  0
LINE
  5
216
100
AcDbEntity
  8
Isolatio_neu
  6
ByLayer
 62
  256
370
   -1
100
AcDbLine
 10
6200
 20
2290
 11
6320
 21
2290
  0
LINE
  5
217
100
AcDbEntity
  8
Isolatio_neu
  6
ByLayer
 62
  256
370
   -1
100
AcDbLine
 10
6140
 20
3210
 11
6140
 21
3230
  0
LINE
  5
218
100
AcDbEntity
  8
Geländer
  6
ByLayer
 62
  256
370
   -1
100
AcDbLine
 10
6140
 20
2920
 11
6140
 21
4070
  0
LINE
  5
219
100
AcDbEntity
  8
Geländer
  6
ByLayer
 62
  256
370
   -1
100
AcDbLine
 10
6108
 20
2920
 11
6108
 21
4070
  0
LINE
  5
21A
100
AcDbEntity
  8
Geländer
  6
ByLayer
 62
  256
370
   -1
100
AcDbLine
 10
6140
 20
3080
 11
6322
 21
3080
  0
LINE
  5
21B
100
AcDbEntity
  8
Geländer
  6
ByLayer
 62
  256
370
   -1
100
AcDbLine
 10
6140
 20
3040
 11
6322
 21
3040
  0
LINE
  5
21C
100
AcDbEntity
  8
Geländer
  6
ByLayer
 62
  256
370
   -1
100
AcDbLine
 10
6140
 20
2920
 11
6322
 21
2920
  0
LINE
  5
21D
100
AcDbEntity
  8
Geländer
  6
ByLayer
 62
  256
370
   -1
100
AcDbLine
 10
6140
 20
2920
 11
6108
 21
2920
  0
LINE
  5
21E
100
AcDbEntity
  8
Geländer
  6
ByLayer
 62
  256
370
   -1
100
AcDbLine
 10
6140
 20
4070
 11
6108
 21
4070
  0
LINE
  5
21F
100
AcDbEntity
  8
Geländer
  6
ByLayer
 62
  256
370
   -1
100
AcDbLine
 10
6118
 20
4070
 11
6118
 21
4150
  0
LINE
  5
220
100
AcDbEntity
  8
Geländer
  6
ByLayer
 62
  256
370
   -1
100
AcDbLine
 10
6130
 20
4070
 11
6130
 21
4150
  0
CIRCLE
  5
221
100
AcDbEntity
  8
Geländer
  6
ByLayer
 62
  256
370
   -1
100
AcDbCircle
 10
6124
 20
4170
 40
20
  0
LINE
  5
222
100
AcDbEntity
  8
Geländer
  6
ByLayer
 62
  256
370
   -1
100
AcDbLine
 10
6118
 20
4150
 11
6130
 21
4150
  0
LINE
  5
223
100
AcDbEntity
  8
Geländer
  6
ByLayer
 62
  256
370
   -1
100
AcDbLine
 10
6140
 20
2960
 11
6200
 21
2960
  0
LINE
  5
224
100
AcDbEntity
  8
Geländer
  6
ByLayer
 62
  256
370
   -1
100
AcDbLine
 10
6200
 20
2960
 11
6322
 21
2960
  0
LINE
  5
225
100
AcDbEntity
  8
Isolatio_neu
  6
ByLayer
 62
  256
370
   -1
100
AcDbLine
 10
6200
 20
2920
 11
6200
 21
2290
  0
LINE
  5
226
100
AcDbEntity
  8
Geländer
  6
ByLayer
 62
  256
370
   -1
100
AcDbLine
 10
6322
 20
3086
 11
6330
 21
3086
  0
LINE
  5
227
100
AcDbEntity
  8
Geländer
  6
ByLayer
 62
  256
370
   -1
100
AcDbLine
 10
6330
 20
2914
 11
6322
 21
2914
  0
LINE
  5
228
100
AcDbEntity
  8
Geländer
  6
ByLayer
 62
  256
370
   -1
100
AcDbLine
 10
6322
 20
2914
 11
6322
 21
3086
  0
LINE
  5
229
100
AcDbEntity
  8
alt
  6
ByLayer
 62
  256
370
   -1
100
AcDbLine
 10
6350
 20
2080
 11
6350
 21
1980
  0
LINE
  5
22A
100
AcDbEntity
  8
alt
  6
ByLayer
 62
  256
370
   -1
100
AcDbLine
 10
6350
 20
1000
 11
6350
 21
900
  0
LINE
  5
22B
100
AcDbEntity
  8
alt
  6
ByLayer
 62
  256
370
   -1
100
AcDbLine
 10
6350
 20
2080
 11
6450
 21
2080
  0
LINE
  5
22C
100
AcDbEntity
  8
alt
  6
ByLayer
 62
  256
370
   -1
100
AcDbLine
 10
6350
 20
900
 11
6450
 21
900
  0
LINE
  5
22D
100
AcDbEntity
  8
alt
  6
ByLayer
 62
  256
370
   -1
100
AcDbLine
 10
6350
 20
1000
 11
6450
 21
1000
  0
LINE
  5
22E
100
AcDbEntity
  8
alt
  6
ByLayer
 62
  256
370
   -1
100
AcDbLine
 10
6350
 20
1980
 11
6450
 21
1980
  0
LINE
  5
22F
100
AcDbEntity
  8
alt
  6
ByLayer
 62
  256
370
   -1
100
AcDbLine
 10
6390
 20
1980
 11
6390
 21
1000
  0
LINE
  5
230
100
AcDbEntity
  8
Isolatio_neu
  6
ByLayer
 62
  256
370
   -1
100
AcDbLine
 10
6220
 20
2080
 11
6220
 21
1980
  0
LINE
  5
231
100
AcDbEntity
  8
Isolatio_neu
  6
ByLayer
 62
  256
370
   -1
100
AcDbLine
 10
6220
 20
1000
 11
6220
 21
900
  0
LINE
  5
232
100
AcDbEntity
  8
Isolatio_neu
  6
ByLayer
 62
  256
370
   -1
100
AcDbLine
 10
6220
 20
2080
 11
6320
 21
2080
  0
LINE
  5
233
100
AcDbEntity
  8
Isolatio_neu
  6
ByLayer
 62
  256
370
   -1
100
AcDbLine
 10
6220
 20
900
 11
6320
 21
900
  0
LINE
  5
234
100
AcDbEntity
  8
Isolatio_neu
  6
ByLayer
 62
  256
370
   -1
100
AcDbLine
 10
6220
 20
1000
 11
6320
 21
1000
  0
LINE
  5
235
100
AcDbEntity
  8
Isolatio_neu
  6
ByLayer
 62
  256
370
   -1
100
AcDbLine
 10
6220
 20
1980
 11
6320
 21
1980
  0
LINE
  5
236
100
AcDbEntity
  8
Isolatio_neu
  6
ByLayer
 62
  256
370
   -1
100
AcDbLine
 10
6260
 20
1980
 11
6260
 21
1000
  0
LINE
  5
237
100
AcDbEntity
  8
Geländer
  6
ByLayer
 62
  256
370
   -1
100
AcDbLine
 10
5640
 20
2920
 11
5640
 21
4070
  0
LINE
  5
238
100
AcDbEntity
  8
Geländer
  6
ByLayer
 62
  256
370
   -1
100
AcDbLine
 10
5672
 20
2920
 11
5672
 21
4070
  0
LINE
  5
239
100
AcDbEntity
  8
Geländer
  6
ByLayer
 62
  256
370
   -1
100
AcDbLine
 10
5640
 20
2920
 11
5672
 21
2920
  0
LINE
  5
23A
100
AcDbEntity
  8
Geländer
  6
ByLayer
 62
  256
370
   -1
100
AcDbLine
 10
5640
 20
4070
 11
5672
 21
4070
  0
LINE
  5
23B
100
AcDbEntity
  8
Geländer
  6
ByLayer
 62
  256
370
   -1
100
AcDbLine
 10
5662
 20
4070
 11
5662
 21
4150
  0
LINE
  5
23C
100
AcDbEntity
  8
Geländer
  6
ByLayer
 62
  256
370
   -1
100
AcDbLine
 10
5650
 20
4070
 11
5650
 21
4150
  0
CIRCLE
  5
23D
100
AcDbEntity
  8
Geländer
  6
ByLayer
 62
  256
370
   -1
100
AcDbCircle
 10
5656
 20
4170
 40
20
  0
LINE
  5
23E
100
AcDbEntity
  8
Geländer
  6
ByLayer
 62
  256
370
   -1
100
AcDbLine
 10
5662
 20
4150
 11
5650
 21
4150
  0
LINE
  5
23F
100
AcDbEntity
  8
Geländer
  6
ByLayer
 62
  256
370
   -1
100
AcDbLine
 10
5640
 20
2960
 11
5580
 21
2960
  0
LINE
  5
240
100
AcDbEntity
  8
Geländer
  6
ByLayer
 62
  256
370
   -1
100
AcDbLine
 10
60.00000000000028
 20
4190
 11
5656
 21
4190
  0
LINE
  5
241
100
AcDbEntity
  8
Geländer
  6
ByLayer
 62
  256
370
   -1
100
AcDbLine
 10
60.00000000000028
 20
4150
 11
5656.000089742109
 21
4150
  0
LINE
  5
242
100
AcDbEntity
  8
0
  6
ByLayer
 62
  256
370
   -1
100
AcDbLine
 10
6330
 20
3150
 11
6360
 21
3150
  0
LINE
  5
243
100
AcDbEntity
  8
hilfe_1
  6
ByLayer
 62
  256
370
   -1
100
AcDbLine
 10
260.0000000000002
 20
3000
 11
5450
 21
3000
  0
LINE
  5
244
100
AcDbEntity
  8
Masse Baubewilligung
  6
ByLayer
 62
  256
370
   -1
100
AcDbLine
 10
6385
 20
3270
 11
6160
 21
3270
  0
LINE
  5
245
100
AcDbEntity
  8
Isolatio_neu
  6
ByLayer
 62
  256
370
   -1
100
AcDbLine
 10
6160
 20
3270
 11
6160
 21
3290
  0
LINE
  5
246
100
AcDbEntity
  8
Isolatio_neu
  6
ByLayer
 62
  256
370
   -1
100
AcDbLine
 10
6160
 20
3290
 11
6385
 21
3290
  0
LINE
  5
247
100
AcDbEntity
  8
Isolatio_neu
  6
ByLayer
 62
  256
370
   -1
100
AcDbLine
 10
6385
 20
3270
 11
6160
 21
3270
  0
LINE
  5
248
100
AcDbEntity
  8
Isolatio_neu
  6
ByLayer
 62
  256
370
   -1
100
AcDbLine
 10
60
 20
3290
 11
5620
 21
3290
  0
LINE
  5
249
100
AcDbEntity
  8
Isolatio_neu
  6
ByLayer
 62
  256
370
   -1
100
AcDbLine
 10
60
 20
3270
 11
5620
 21
3270
  0
LINE
  5
24A
100
AcDbEntity
  8
Isolatio_neu
  6
ByLayer
 62
  256
370
   -1
100
AcDbLine
 10
5620
 20
3270
 11
5620
 21
3290
  0
LINE
  5
24B
100
AcDbEntity
  8
Isolatio_neu
  6
ByLayer
 62
  256
370
   -1
100
AcDbLine
 10
5570
 20
2920
 11
5570
 21
-2.939055249173705e-014
  0
LINE
  5
24C
100
AcDbEntity
  8
Geländer
  6
ByLayer
 62
  256
370
   -1
100
AcDbLine
 10
5640
 20
3080
 11
5570
 21
3080
  0
LINE
  5
24D
100
AcDbEntity
  8
Geländer
  6
ByLayer
 62
  256
370
   -1
100
AcDbLine
 10
5640
 20
3040
 11
5570
 21
3040
  0
LINE
  5
24E
100
AcDbEntity
  8
Geländer
  6
ByLayer
 62
  256
370
   -1
100
AcDbLine
 10
5580
 20
2960
 11
5570
 21
2960
  0
LINE
  5
24F
100
AcDbEntity
  8
Geländer
  6
ByLayer
 62
  256
370
   -1
100
AcDbLine
 10
5640
 20
2920
 11
5570
 21
2920
  0
LINE
  5
250
100
AcDbEntity
  8
Geländer_unsichtbar
  6
ByLayer
 62
  256
370
   -1
100
AcDbLine
 10
5450
 20
3086
 11
5450
 21
2914
  0
LINE
  5
251
100
AcDbEntity
  8
Geländer_unsichtbar
  6
ByLayer
 62
  256
370
   -1
100
AcDbLine
 10
5458
 20
3086
 11
5450
 21
3086
  0
LINE
  5
252
100
AcDbEntity
  8
Geländer_unsichtbar
  6
ByLayer
 62
  256
370
   -1
100
AcDbLine
 10
5450
 20
2914
 11
5458
 21
2914
  0
LINE
  5
253
100
AcDbEntity
  8
Geländer_unsichtbar
  6
ByLayer
 62
  256
370
   -1
100
AcDbLine
 10
5458
 20
2914
 11
5458
 21
3086
  0
LINE
  5
254
100
AcDbEntity
  8
Geländer_unsichtbar
  6
ByLayer
 62
  256
370
   -1
100
AcDbLine
 10
5450
 20
3086
 11
5450
 21
2914
  0
LINE
  5
255
100
AcDbEntity
  8
Geländer_unsichtbar
  6
ByLayer
 62
  256
370
   -1
100
AcDbLine
 10
5570
 20
3080
 11
5458
 21
3080
  0
LINE
  5
256
100
AcDbEntity
  8
Geländer_unsichtbar
  6
ByLayer
 62
  256
370
   -1
100
AcDbLine
 10
5570
 20
3040
 11
5458
 21
3040
  0
LINE
  5
257
100
AcDbEntity
  8
Geländer_unsichtbar
  6
ByLayer
 62
  256
370
   -1
100
AcDbLine
 10
5570
 20
2960
 11
5458
 21
2960
  0
LINE
  5
258
100
AcDbEntity
  8
Geländer_unsichtbar
  6
ByLayer
 62
  256
370
   -1
100
AcDbLine
 10
5570
 20
2920
 11
5458
 21
2920
  0
DIMENSION
  5
259
100
AcDbEntity
  8
Masse Baubewilligung
  6
ByLayer
 62
  256
370
   -1
100
AcDbDimension
  2
*D2
 10
6672.049260373906
 20
2350
 30
0
 11
6634.549260373906
 21
1175
 31
0
 70
   32
 71
    5
  3
Standard
 53
0
210
0
220
0
230
1
100
AcDbAlignedDimension
 13
6495
 23
-2.449212707644755e-013
 33
0
 14
6450
 24
2350
 34
0
 50
90
100
AcDbRotatedDimension
  0
DIMENSION
  5
25A
100
AcDbEntity
  8
Masse Baubewilligung
  6
ByLayer
 62
  256
370
   -1
100
AcDbDimension
  2
*D3
 10
6568.044713565999
 20
2290
 30
0
 11
6530.544713565999
 21
1145
 31
0
 70
   32
 71
    5
  3
Standard
 53
0
210
0
220
0
230
1
100
AcDbAlignedDimension
 13
6495
 23
-2.449212707644755e-013
 33
0
 14
6472.095166125051
 24
2290
 34
0
 50
90
100
AcDbRotatedDimension
  0
DIMENSION
  5
25B
100
AcDbEntity
  8
Masse Baubewilligung
  6
ByLayer
 62
  256
370
   -1
100
AcDbDimension
  2
*D4
 10
6782.48910637036
 20
3290
 30
0
 11
6744.98910637036
 21
1645
 31
0
 70
   32
 71
    5
  3
Standard
 53
0
210
0
220
0
230
1
100
AcDbAlignedDimension
 13
5751.404163683251
 23
-2.449212707644755e-013
 33
0
 14
6449.469874034201
 24
3290
 34
0
 50
90
100
AcDbRotatedDimension
  0
LINE
  5
25C
100
AcDbEntity
  8
hilfe_1
  6
ByLayer
 62
  256
370
   -1
100
AcDbLine
 10
4580
 20
1980
 11
4580
 21
2079.999999999999
  0
LINE
  5
25D
100
AcDbEntity
  8
hilfe_1
  6
ByLayer
 62
  256
370
   -1
100
AcDbLine
 10
4740
 20
750
 11
5450
 21
750
  0
LINE
  5
25E
100
AcDbEntity
  8
hilfe_1
  6
ByLayer
 62
  256
370
   -1
100
AcDbLine
 10
4740
 20
-2.914563122097258e-013
 11
4740
 21
750
  0
MTEXT
  5
25F
100
AcDbEntity
  8
hilfe_1
  6
ByLayer
 62
  256
370
   -1
100
AcDbMText
 10
-66.23783963833216
 20
3297.172461996979
 30
0
 40
20
 41
343.3333539048278
 71
    7
 72
    1
  1
Fasade Lärche bestehend
  7
standard
210
0
220
0
230
1
 50
90
 73
    2
 44
1
  0
LINE
  5
260
100
AcDbEntity
  8
0
  6
ByLayer
 62
  256
370
   -1
100
AcDbLine
 10
4580
 20
2080
 11
4580
 21
1980
  0
LINE
  5
261
100
AcDbEntity
  8
Geländer
  6
ByLayer
 62
  256
370
   -1
100
AcDbLine
 10
260.0000000000002
 20
3870
 11
5656
 21
3870
  0
LINE
  5
262
100
AcDbEntity
  8
Geländer
  6
ByLayer
 62
  256
370
   -1
100
AcDbLine
 10
260.0000000000002
 20
3630
 11
5656
 21
3630
  0
LINE
  5
263
100
AcDbEntity
  8
Geländer
  6
ByLayer
 62
  256
370
   -1
100
AcDbLine
 10
260.0000000000002
 20
3430
 11
5656
 21
3430
  0
MTEXT
  5
264
100
AcDbEntity
  8
Isolatio_neu
  6
ByLayer
 62
  256
370
   -1
100
AcDbMText
 10
6277.128179844668
 20
2337.297044409011
 30
0
 40
40
 41
531.1111316826084
 71
    7
 72
    1
  1
Isolation neu 120mm
  7
standard
210
0
220
0
230
1
 50
90
 73
    2
 44
1
  0
MTEXT
  5
265
100
AcDbEntity
  8
Isolatio_neu
  6
ByLayer
 62
  256
370
   -1
100
AcDbMText
 10
6404.204387358976
 20
156.9458108932658
 30
0
 40
40
 41
531.1111316826084
 71
    7
 72
    1
  1
Isolation neu 120mm
  7
standard
210
0
220
0
230
1
 50
90
 73
    2
 44
1
  0
MTEXT
  5
266
100
AcDbEntity
  8
Isolatio_neu
  6
ByLayer
 62
  256
370
   -1
100
AcDbMText
 10
5532.060063351796
 20
129.4447551769509
 30
0
 40
40
 41
531.1111316826084
 71
    7
 72
    1
  1
Isolation neu 120mm
  7
standard
210
0
220
0
230
1
 50
90
 73
    2
 44
1
  0
MTEXT
  5
267
100
AcDbEntity
  8
0
  6
ByLayer
 62
  256
370
   -1
100
AcDbMText
 10
6412.138046418072
 20
2429.443607649083
 30
0
 40
40
 41
452.2222427937177
 71
    7
 72
    1
  1
Mauer bestehend
  7
standard
210
0
220
0
230
1
 50
90
 73
    2
 44
1
  0
MTEXT
  5
268
100
AcDbEntity
  8
0
  6
ByLayer
 62
  256
370
   -1
100
AcDbMText
 10
6528.876894919153
 20
148.7909890934348
 30
0
 40
40
 41
452.2222427937177
 71
    7
 72
    1
  1
Mauer bestehend
  7
standard
210
0
220
0
230
1
 50
90
 73
    2
 44
1
  0
DIMENSION
  5
269
100
AcDbEntity
  8
Masse Baubewilligung
  6
ByLayer
 62
  256
370
   -1
100
AcDbDimension
  2
*D5
 10
6577.68396910973
 20
4190
 30
0
 11
6540.18396910973
 21
3740
 31
0
 70
   32
 71
    5
  3
Standard
 53
0
210
0
220
0
230
1
100
AcDbAlignedDimension
 13
6385
 23
3290
 33
0
 14
6124
 24
4190
 34
0
 50
90
100
AcDbRotatedDimension
  0
MTEXT
  5
26A
100
AcDbEntity
  8
Masse Baubewilligung
  6
ByLayer
 62
  256
370
   -1
100
AcDbMText
 10
11.61936999759428
 20
3079.133049362483
 30
0
 40
40
 41
686.6667078096557
 71
    7
 72
    1
  1
Fasade Lärche bestehend
  7
standard
210
0
220
0
230
1
 50
90
 73
    2
 44
1
  0
MTEXT
  5
26B
100
AcDbEntity
  8
Isolatio_neu
  6
ByLayer
 62
  256
370
   -1
100
AcDbMText
 10
6159.33944094284
 20
772.8743189550099
 30
0
 40
40
 41
1396.666748952639
 71
    7
 72
    1
  1
Fenster und Türe neu 120mm nach aussen gesetzt
  7
standard
210
0
220
0
230
1
 50
90
 73
    2
 44
1
  0
MTEXT
  5
26C
100
AcDbEntity
  8
Geländer
  6
ByLayer
 62
  256
370
   -1
100
AcDbMText
 10
2201.396460692352
 20
4237.904941951851
 30
0
 40
40
 41
1210.00005727004
 71
    7
 72
    1
  1
Absturzsicherung neu (Geländer Chromstahl)
  7
standard
210
0
220
0
230
1
 50
0
 73
    2
 44
1
  0
DIMENSION
  5
26D
100
AcDbEntity
  8
Masse Baubewilligung
  6
ByLayer
 62
  256
370
   -1
100
AcDbDimension
  2
*D6
 10
5609.284046471145
 20
4384.291418589911
 30
0
 11
2860.120239289675
 21
4421.791418589911
 31
0
 70
   32
 71
    5
  3
Standard
 53
0
210
0
220
0
230
1
100
AcDbAlignedDimension
 13
60.00000000000028
 23
4190
 33
0
 14
5660.24047857935
 24
4180.465690157092
 34
0
100
AcDbRotatedDimension
  0
DIMENSION
  5
26E
100
AcDbEntity
  8
Masse Baubewilligung
  6
ByLayer
 62
  256
370
   -1
100
AcDbDimension
  2
*D7
 10
6154.105072291287
 20
4386.082547016074
 30
0
 11
6229.958341181142
 21
4423.582547016074
 31
0
 70
   32
 71
    5
  3
Standard
 53
0
210
0
220
0
230
1
100
AcDbAlignedDimension
 13
6330
 23
3150
 33
0
 14
6129.916682362284
 24
4181.478879754272
 34
0
100
AcDbRotatedDimension
  0
DIMENSION
  5
26F
100
AcDbEntity
  8
Masse
  6
ByLayer
 62
  256
370
   -1
100
AcDbDimension
  2
*D8
 10
2970
 20
2159.908632086049
 30
0
 11
1685
 21
2197.408632086049
 31
0
 70
   33
 71
    5
  3
Standard
 53
0
210
0
220
0
230
1
100
AcDbAlignedDimension
 13
400.0000000000001
 23
2080
 33
0
 14
2970
 24
2080
 34
0
  0
DIMENSION
  5
270
100
AcDbEntity
  8
Masse
  6
ByLayer
 62
  256
370
   -1
100
AcDbDimension
  2
*D9
 10
3550
 20
2160.5527213879
 30
0
 11
3260
 21
2198.0527213879
 31
0
 70
   33
 71
    5
  3
Standard
 53
0
210
0
220
0
230
1
100
AcDbAlignedDimension
 13
2970
 23
2080
 33
0
 14
3550
 24
2080
 34
0
  0
DIMENSION
  5
271
100
AcDbEntity
  8
Masse
  6
ByLayer
 62
  256
370
   -1
100
AcDbDimension
  2
*D10
 10
5450
 20
2162.590978672228
 30
0
 11
5015
 21
2200.090978672228
 31
0
 70
   33
 71
    5
  3
Standard
 53
0
210
0
220
0
230
1
100
AcDbAlignedDimension
 13
4580
 23
2080
 33
0
 14
5450
 24
2080
 34
0
  0
DIMENSION
  5
272
100
AcDbEntity
  8
Masse
  6
ByLayer
 62
  256
370
   -1
100
AcDbDimension
  2
*D11
 10
4580
 20
2161.950998152875
 30
0
 11
4065
 21
2199.450998152875
 31
0
 70
   33
 71
    5
  3
Standard
 53
0
210
0
220
0
230
1
100
AcDbAlignedDimension
 13
3550
 23
2080
 33
0
 14
4580
 24
2080
 34
0
  0
DIMENSION
  5
273
100
AcDbEntity
  8
Geländer
  6
ByLayer
 62
  256
370
   -1
100
AcDbDimension
  2
*D12
 10
170.2792894225085
 20
3430
 30
0
 11
132.7792894225085
 21
3360
 31
0
 70
   32
 71
    5
  3
Standard
 53
0
210
0
220
0
230
1
100
AcDbAlignedDimension
 13
299.5654165766354
 23
3290
 33
0
 14
356.3251797174715
 24
3430
 34
0
 50
90
100
AcDbRotatedDimension
  0
DIMENSION
  5
274
100
AcDbEntity
  8
Geländer
  6
ByLayer
 62
  256
370
   -1
100
AcDbDimension
  2
*D13
 10
178.1625898587357
 20
3630
 30
0
 11
140.6625898587357
 21
3530
 31
0
 70
   32
 71
    5
  3
Standard
 53
0
210
0
220
0
230
1
100
AcDbAlignedDimension
 13
359.4784998919624
 23
3430
 33
0
 14
389.435041549626
 24
3630
 34
0
 50
90
100
AcDbRotatedDimension
  0
DIMENSION
  5
275
100
AcDbEntity
  8
Geländer
  6
ByLayer
 62
  256
370
   -1
100
AcDbDimension
  2
*D14
 10
184.4692302077176
 20
3870
 30
0
 11
146.9692302077176
 21
3750
 31
0
 70
   32
 71
    5
  3
Standard
 53
0
210
0
220
0
230
1
100
AcDbAlignedDimension
 13
383.1284012006441
 23
3630
 33
0
 14
395.7416818986077
 24
3870
 34
0
 50
90
100
AcDbRotatedDimension
  0
DIMENSION
  5
276
100
AcDbEntity
  8
Geländer
  6
ByLayer
 62
  256
370
   -1
100
AcDbDimension
  2
*D15
 10
187.6225503822084
 20
4150
 30
0
 11
150.1225503822084
 21
4010
 31
0
 70
   32
 71
    5
  3
Standard
 53
0
210
0
220
0
230
1
100
AcDbAlignedDimension
 13
425.6982235562713
 23
3870
 33
0
 14
436.7348441669894
 24
4150
 34
0
 50
90
100
AcDbRotatedDimension
  0
LINE
  5
277
100
AcDbEntity
  8
Geländer
  6
ByLayer
 62
  256
370
   -1
100
AcDbLine
 10
6140
 20
2920
 11
6140
 21
4070
  0
LINE
  5
278
100
AcDbEntity
  8
Geländer
  6
ByLayer
 62
  256
370
   -1
100
AcDbLine
 10
6108
 20
2920
 11
6108
 21
4070
  0
LINE
  5
279
100
AcDbEntity
  8
Geländer
  6
ByLayer
 62
  256
370
   -1
100
AcDbLine
 10
6140
 20
3080
 11
6322
 21
3080
  0
LINE
  5
27A
100
AcDbEntity
  8
Geländer
  6
ByLayer
 62
  256
370
   -1
100
AcDbLine
 10
6140
 20
3040
 11
6322
 21
3040
  0
LINE
  5
27B
100
AcDbEntity
  8
Geländer
  6
ByLayer
 62
  256
370
   -1
100
AcDbLine
 10
6140
 20
2920
 11
6322
 21
2920
  0
LINE
  5
27C
100
AcDbEntity
  8
Geländer
  6
ByLayer
 62
  256
370
   -1
100
AcDbLine
 10
6140
 20
2920
 11
6108
 21
2920
  0
LINE
  5
27D
100
AcDbEntity
  8
Geländer
  6
ByLayer
 62
  256
370
   -1
100
AcDbLine
 10
6140
 20
4070
 11
6108
 21
4070
  0
LINE
  5
27E
100
AcDbEntity
  8
Geländer
  6
ByLayer
 62
  256
370
   -1
100
AcDbLine
 10
6118
 20
4070
 11
6118
 21
4150
  0
LINE
  5
27F
100
AcDbEntity
  8
Geländer
  6
ByLayer
 62
  256
370
   -1
100
AcDbLine
 10
6130
 20
4070
 11
6130
 21
4150
  0
CIRCLE
  5
280
100
AcDbEntity
  8
Geländer
  6
ByLayer
 62
  256
370
   -1
100
AcDbCircle
 10
6124
 20
4170
 40
20
  0
LINE
  5
281
100
AcDbEntity
  8
Geländer
  6
ByLayer
 62
  256
370
   -1
100
AcDbLine
 10
6118
 20
4150
 11
6130
 21
4150
  0
LINE
  5
282
100
AcDbEntity
  8
Geländer
  6
ByLayer
 62
  256
370
   -1
100
AcDbLine
 10
6140
 20
2960
 11
6200
 21
2960
  0
LINE
  5
283
100
AcDbEntity
  8
Geländer
  6
ByLayer
 62
  256
370
   -1
100
AcDbLine
 10
6200
 20
2960
 11
6322
 21
2960
  0
LINE
  5
284
100
AcDbEntity
  8
Geländer
  6
ByLayer
 62
  256
370
   -1
100
AcDbLine
 10
6322
 20
3086
 11
6330
 21
3086
  0
LINE
  5
285
100
AcDbEntity
  8
Geländer
  6
ByLayer
 62
  256
370
   -1
100
AcDbLine
 10
6330
 20
2914
 11
6322
 21
2914
  0
LINE
  5
286
100
AcDbEntity
  8
Geländer
  6
ByLayer
 62
  256
370
   -1
100
AcDbLine
 10
6322
 20
2914
 11
6322
 21
3086
  0
LINE
  5
287
100
AcDbEntity
  8
Geländer
  6
ByLayer
 62
  256
370
   -1
100
AcDbLine
 10
5640
 20
2920
 11
5640
 21
4070
  0
LINE
  5
288
100
AcDbEntity
  8
Geländer
  6
ByLayer
 62
  256
370
   -1
100
AcDbLine
 10
5672
 20
2920
 11
5672
 21
4070
  0
LINE
  5
289
100
AcDbEntity
  8
Geländer
  6
ByLayer
 62
  256
370
   -1
100
AcDbLine
 10
5640
 20
2920
 11
5672
 21
2920
  0
LINE
  5
28A
100
AcDbEntity
  8
Geländer
  6
ByLayer
 62
  256
370
   -1
100
AcDbLine
 10
5640
 20
4070
 11
5672
 21
4070
  0
LINE
  5
28B
100
AcDbEntity
  8
Geländer
  6
ByLayer
 62
  256
370
   -1
100
AcDbLine
 10
5662
 20
4070
 11
5662
 21
4150
  0
LINE
  5
28C
100
AcDbEntity
  8
Geländer
  6
ByLayer
 62
  256
370
   -1
100
AcDbLine
 10
5650
 20
4070
 11
5650
 21
4150
  0
CIRCLE
  5
28D
100
AcDbEntity
  8
Geländer
  6
ByLayer
 62
  256
370
   -1
100
AcDbCircle
 10
5656
 20
4170
 40
20
  0
LINE
  5
28E
100
AcDbEntity
  8
Geländer
  6
ByLayer
 62
  256
370
   -1
100
AcDbLine
 10
5662
 20
4150
 11
5650
 21
4150
  0
LINE
  5
28F
100
AcDbEntity
  8
Geländer
  6
ByLayer
 62
  256
370
   -1
100
AcDbLine
 10
5640
 20
2960
 11
5580
 21
2960
  0
LINE
  5
290
100
AcDbEntity
  8
Geländer
  6
ByLayer
 62
  256
370
   -1
100
AcDbLine
 10
60
 20
4190
 11
5656
 21
4190
  0
LINE
  5
291
100
AcDbEntity
  8
Geländer
  6
ByLayer
 62
  256
370
   -1
100
AcDbLine
 10
60
 20
4150
 11
5656.000089742109
 21
4150
  0
LINE
  5
292
100
AcDbEntity
  8
Geländer
  6
ByLayer
 62
  256
370
   -1
100
AcDbLine
 10
5640
 20
3080
 11
5570
 21
3080
  0
LINE
  5
293
100
AcDbEntity
  8
Geländer
  6
ByLayer
 62
  256
370
   -1
100
AcDbLine
 10
5640
 20
3040
 11
5570
 21
3040
  0
LINE
  5
294
100
AcDbEntity
  8
Geländer
  6
ByLayer
 62
  256
370
   -1
100
AcDbLine
 10
5580
 20
2960
 11
5570
 21
2960
  0
LINE
  5
295
100
AcDbEntity
  8
Geländer
  6
ByLayer
 62
  256
370
   -1
100
AcDbLine
 10
5640
 20
2920
 11
5570
 21
2920
  0
LINE
  5
296
100
AcDbEntity
  8
Geländer
  6
ByLayer
 62
  256
370
   -1
100
AcDbLine
 10
260
 20
3870
 11
5656
 21
3870
  0
LINE
  5
297
100
AcDbEntity
  8
Geländer
  6
ByLayer
 62
  256
370
   -1
100
AcDbLine
 10
260
 20
3630
 11
5656
 21
3630
  0
LINE
  5
298
100
AcDbEntity
  8
Geländer
  6
ByLayer
 62
  256
370
   -1
100
AcDbLine
 10
260
 20
3430
 11
5656
 21
3430
  0
MTEXT
  5
299
100
AcDbEntity
  8
Geländer
  6
ByLayer
 62
  256
370
   -1
100
AcDbMText
 10
2201.396460692353
 20
4237.904941951851
 30
0
 40
40
 41
1210.00005727004
 71
    7
 72
    1
  1
Absturzsicherung neu (Geländer Chromstahl)
  7
standard
210
0
220
0
230
1
 50
0
 73
    2
 44
1
  0
DIMENSION
  5
29A
100
AcDbEntity
  8
Geländer
  6
ByLayer
 62
  256
370
   -1
100
AcDbDimension
  2
*D16
 10
170.2792894225086
 20
3430
 30
0
 11
132.7792894225086
 21
3360
 31
0
 70
   32
 71
    5
  3
Standard
 53
0
210
0
220
0
230
1
100
AcDbAlignedDimension
 13
299.5654165766355
 23
3290
 33
0
 14
356.3251797174717
 24
3430
 34
0
 50
90
100
AcDbRotatedDimension
  0
DIMENSION
  5
29B
100
AcDbEntity
  8
Geländer
  6
ByLayer
 62
  256
370
   -1
100
AcDbDimension
  2
*D17
 10
178.1625898587354
 20
3630
 30
0
 11
140.6625898587354
 21
3530
 31
0
 70
   32
 71
    5
  3
Standard
 53
0
210
0
220
0
230
1
100
AcDbAlignedDimension
 13
359.4784998919622
 23
3430
 33
0
 14
389.4350415496256
 24
3630
 34
0
 50
90
100
AcDbRotatedDimension
  0
DIMENSION
  5
29C
100
AcDbEntity
  8
Geländer
  6
ByLayer
 62
  256
370
   -1
100
AcDbDimension
  2
*D18
 10
184.4692302077174
 20
3870
 30
0
 11
146.9692302077174
 21
3750
 31
0
 70
   32
 71
    5
  3
Standard
 53
0
210
0
220
0
230
1
100
AcDbAlignedDimension
 13
383.1284012006445
 23
3630
 33
0
 14
395.7416818986076
 24
3870
 34
0
 50
90
100
AcDbRotatedDimension
  0
DIMENSION
  5
29D
100
AcDbEntity
  8
Geländer
  6
ByLayer
 62
  256
370
   -1
100
AcDbDimension
  2
*D19
 10
187.6225503822088
 20
4150
 30
0
 11
150.1225503822088
 21
4010
 31
0
 70
   32
 71
    5
  3
Standard
 53
0
210
0
220
0
230
1
100
AcDbAlignedDimension
 13
425.6982235562709
 23
3870
 33
0
 14
436.7348441669892
 24
4150
 34
0
 50
90
100
AcDbRotatedDimension
  0
INSERT
  5
29E
100
AcDbEntity
  8
Geländer2
  6
ByLayer
 62
  256
370
   -1
100
AcDbBlockReference
  2
Geländer_Flansch-2
 10
5373.26251210569
 20
3000
 30
0
 41
1
 42
1
 43
0
 50
0
 70
    1
 71
    1
 44
1
 45
1
  0
INSERT
  5
29F
100
AcDbEntity
  8
Geländer2
  6
ByLayer
 62
  256
370
   -1
100
AcDbBlockReference
  2
Geländer_Flansch-2
 10
259.9999999999998
 20
3000
 30
0
 41
1
 42
1
 43
0
 50
0
 70
    1
 71
    1
 44
1
 45
1
  0
LINE
  5
2A0
100
AcDbEntity
  8
Geländer2
  6
ByLayer
 62
  256
370
   -1
100
AcDbLine
 10
6140
 20
2920
 11
6140
 21
4070
  0
LINE
  5
2A1
100
AcDbEntity
  8
Geländer2
  6
ByLayer
 62
  256
370
   -1
100
AcDbLine
 10
6108
 20
2920
 11
6108
 21
4070
  0
LINE
  5
2A2
100
AcDbEntity
  8
Geländer2
  6
ByLayer
 62
  256
370
   -1
100
AcDbLine
 10
6140
 20
3080
 11
6321.999999999996
 21
3080
  0
LINE
  5
2A3
100
AcDbEntity
  8
Geländer2
  6
ByLayer
 62
  256
370
   -1
100
AcDbLine
 10
6140
 20
3040
 11
6321.999999999996
 21
3040
  0
LINE
  5
2A4
100
AcDbEntity
  8
Geländer2
  6
ByLayer
 62
  256
370
   -1
100
AcDbLine
 10
6140
 20
2920
 11
6321.999999999996
 21
2920
  0
LINE
  5
2A5
100
AcDbEntity
  8
Geländer2
  6
ByLayer
 62
  256
370
   -1
100
AcDbLine
 10
6140
 20
2920
 11
6108
 21
2920
  0
LINE
  5
2A6
100
AcDbEntity
  8
Geländer2
  6
ByLayer
 62
  256
370
   -1
100
AcDbLine
 10
6140
 20
4070
 11
6108
 21
4070
  0
CIRCLE
  5
2A7
100
AcDbEntity
  8
Geländer2
  6
ByLayer
 62
  256
370
   -1
100
AcDbCircle
 10
6124
 20
4170
 40
20
  0
LINE
  5
2A8
100
AcDbEntity
  8
Geländer2
  6
ByLayer
 62
  256
370
   -1
100
AcDbLine
 10
6140
 20
2960
 11
6200
 21
2960
  0
LINE
  5
2A9
100
AcDbEntity
  8
Geländer2
  6
ByLayer
 62
  256
370
   -1
100
AcDbLine
 10
6200
 20
2960
 11
6321.999999999996
 21
2960
  0
LINE
  5
2AA
100
AcDbEntity
  8
Geländer2
  6
ByLayer
 62
  256
370
   -1
100
AcDbLine
 10
6321.999999999996
 20
3086
 11
6329.999999999996
 21
3086
  0
LINE
  5
2AB
100
AcDbEntity
  8
Geländer2
  6
ByLayer
 62
  256
370
   -1
100
AcDbLine
 10
6329.999999999996
 20
2914
 11
6321.999999999996
 21
2914
  0
LINE
  5
2AC
100
AcDbEntity
  8
Geländer2
  6
ByLayer
 62
  256
370
   -1
100
AcDbLine
 10
6321.999999999996
 20
2914
 11
6321.999999999996
 21
3086
  0
LINE
  5
2AD
100
AcDbEntity
  8
Geländer2
  6
ByLayer
 62
  256
370
   -1
100
AcDbLine
 10
5640
 20
2920
 11
5640
 21
4070
  0
LINE
  5
2AE
100
AcDbEntity
  8
Geländer2
  6
ByLayer
 62
  256
370
   -1
100
AcDbLine
 10
5672
 20
2920
 11
5672
 21
4070
  0
LINE
  5
2AF
100
AcDbEntity
  8
Geländer2
  6
ByLayer
 62
  256
370
   -1
100
AcDbLine
 10
5640
 20
2920
 11
5672
 21
2920
  0
CIRCLE
  5
2B0
100
AcDbEntity
  8
Geländer2
  6
ByLayer
 62
  256
370
   -1
100
AcDbCircle
 10
5656
 20
4170
 40
20
  0
LINE
  5
2B1
100
AcDbEntity
  8
Geländer2
  6
ByLayer
 62
  256
370
   -1
100
AcDbLine
 10
5640
 20
2960
 11
5580
 21
2960
  0
LINE
  5
2B2
100
AcDbEntity
  8
Geländer2
  6
ByLayer
 62
  256
370
   -1
100
AcDbLine
 10
59.99999999999977
 20
4190
 11
5656
 21
4190
  0
LINE
  5
2B3
100
AcDbEntity
  8
Geländer2
  6
ByLayer
 62
  256
370
   -1
100
AcDbLine
 10
59.99999999999977
 20
4150
 11
5656.000089742109
 21
4150
  0
LINE
  5
2B4
100
AcDbEntity
  8
Geländer2
  6
ByLayer
 62
  256
370
   -1
100
AcDbLine
 10
5640
 20
3080
 11
5570
 21
3080
  0
LINE
  5
2B5
100
AcDbEntity
  8
Geländer2
  6
ByLayer
 62
  256
370
   -1
100
AcDbLine
 10
5640
 20
3040
 11
5570
 21
3040
  0
LINE
  5
2B6
100
AcDbEntity
  8
Geländer2
  6
ByLayer
 62
  256
370
   -1
100
AcDbLine
 10
5580
 20
2960
 11
5570
 21
2960
  0
LINE
  5
2B7
100
AcDbEntity
  8
Geländer2
  6
ByLayer
 62
  256
370
   -1
100
AcDbLine
 10
5640
 20
2920
 11
5570
 21
2920
  0
MTEXT
  5
2B8
100
AcDbEntity
  8
Geländer2
  6
ByLayer
 62
  256
370
   -1
100
AcDbMText
 10
2201.396460692353
 20
4237.904941951851
 30
0
 40
40
 41
1210.00005727004
 71
    7
 72
    1
  1
Absturzsicherung neu (Geländer Chromstahl)
  7
standard
210
0
220
0
230
1
 50
0
 73
    2
 44
1
  0
LINE
  5
2B9
100
AcDbEntity
  8
Geländer2
  6
ByLayer
 62
  256
370
   -1
100
AcDbLine
 10
6140
 20
3080
 11
6321.999999999996
 21
3080
  0
LINE
  5
2BA
100
AcDbEntity
  8
Geländer2
  6
ByLayer
 62
  256
370
   -1
100
AcDbLine
 10
6140
 20
3040
 11
6321.999999999996
 21
3040
  0
LINE
  5
2BB
100
AcDbEntity
  8
Geländer2
  6
ByLayer
 62
  256
370
   -1
100
AcDbLine
 10
6140
 20
2920
 11
6321.999999999996
 21
2920
  0
LINE
  5
2BC
100
AcDbEntity
  8
Geländer2
  6
ByLayer
 62
  256
370
   -1
100
AcDbLine
 10
6140
 20
2920
 11
6108
 21
2920
  0
LINE
  5
2BD
100
AcDbEntity
  8
Geländer2
  6
ByLayer
 62
  256
370
   -1
100
AcDbLine
 10
6140
 20
4070
 11
6108
 21
4070
  0
CIRCLE
  5
2BE
100
AcDbEntity
  8
Geländer2
  6
ByLayer
 62
  256
370
   -1
100
AcDbCircle
 10
6124
 20
4170
 40
20
  0
LINE
  5
2BF
100
AcDbEntity
  8
Geländer2
  6
ByLayer
 62
  256
370
   -1
100
AcDbLine
 10
6140
 20
2960
 11
6200
 21
2960
  0
LINE
  5
2C0
100
AcDbEntity
  8
Geländer2
  6
ByLayer
 62
  256
370
   -1
100
AcDbLine
 10
6200
 20
2960
 11
6321.999999999996
 21
2960
  0
LINE
  5
2C1
100
AcDbEntity
  8
Geländer2
  6
ByLayer
 62
  256
370
   -1
100
AcDbLine
 10
6321.999999999996
 20
3086
 11
6329.999999999996
 21
3086
  0
LINE
  5
2C2
100
AcDbEntity
  8
Geländer2
  6
ByLayer
 62
  256
370
   -1
100
AcDbLine
 10
6329.999999999996
 20
2914
 11
6321.999999999996
 21
2914
  0
LINE
  5
2C3
100
AcDbEntity
  8
Geländer2
  6
ByLayer
 62
  256
370
   -1
100
AcDbLine
 10
6321.999999999996
 20
2914
 11
6321.999999999996
 21
3086
  0
LINE
  5
2C4
100
AcDbEntity
  8
Geländer2
  6
ByLayer
 62
  256
370
   -1
100
AcDbLine
 10
5640
 20
2920
 11
5672
 21
2920
  0
CIRCLE
  5
2C5
100
AcDbEntity
  8
Geländer2
  6
ByLayer
 62
  256
370
   -1
100
AcDbCircle
 10
5656
 20
4170
 40
20
  0
LINE
  5
2C6
100
AcDbEntity
  8
Geländer2
  6
ByLayer
 62
  256
370
   -1
100
AcDbLine
 10
5640
 20
2960
 11
5580
 21
2960
  0
LINE
  5
2C7
100
AcDbEntity
  8
Geländer2
  6
ByLayer
 62
  256
370
   -1
100
AcDbLine
 10
59.99999999999977
 20
4190
 11
5656
 21
4190
  0
LINE
  5
2C8
100
AcDbEntity
  8
Geländer2
  6
ByLayer
 62
  256
370
   -1
100
AcDbLine
 10
59.99999999999977
 20
4150
 11
5656.000089742109
 21
4150
  0
LINE
  5
2C9
100
AcDbEntity
  8
Geländer2
  6
ByLayer
 62
  256
370
   -1
100
AcDbLine
 10
5640
 20
3080
 11
5570
 21
3080
  0
LINE
  5
2CA
100
AcDbEntity
  8
Geländer2
  6
ByLayer
 62
  256
370
   -1
100
AcDbLine
 10
5640
 20
3040
 11
5570
 21
3040
  0
LINE
  5
2CB
100
AcDbEntity
  8
Geländer2
  6
ByLayer
 62
  256
370
   -1
100
AcDbLine
 10
5580
 20
2960
 11
5570
 21
2960
  0
LINE
  5
2CC
100
AcDbEntity
  8
Geländer2
  6
ByLayer
 62
  256
370
   -1
100
AcDbLine
 10
5640
 20
2920
 11
5570
 21
2920
  0
LINE
  5
2CD
100
AcDbEntity
  8
Geländer2
  6
ByLayer
 62
  256
370
   -1
100
AcDbLine
 10
259.9999999999998
 20
3410
 11
5656
 21
3410
  0
LINE
  5
2CE
100
AcDbEntity
  8
Geländer2
  6
ByLayer
 62
  256
370
   -1
100
AcDbLine
 10
259.9999999999998
 20
4011.342446615851
 11
5656
 21
4011.342446615851
  0
INSERT
  5
2CF
100
AcDbEntity
  8
Geländer2
  6
ByLayer
 62
  256
370
   -1
100
AcDbBlockReference
  2
Geländer_Flansch-2
 10
1538.315628026423
 20
3000
 30
0
 41
1
 42
1
 43
0
 50
0
 70
    1
 71
    1
 44
1
 45
1
  0
INSERT
  5
2D0
100
AcDbEntity
  8
Geländer2
  6
ByLayer
 62
  256
370
   -1
100
AcDbBlockReference
  2
Geländer_Flansch-2
 10
2816.631256052845
 20
3000
 30
0
 41
1
 42
1
 43
0
 50
0
 70
    1
 71
    1
 44
1
 45
1
  0
INSERT
  5
2D1
100
AcDbEntity
  8
Geländer2
  6
ByLayer
 62
  256
370
   -1
100
AcDbBlockReference
  2
Geländer_Flansch-2
 10
4094.946884079267
 20
3000
 30
0
 41
1
 42
1
 43
0
 50
0
 70
    1
 71
    1
 44
1
 45
1
  0
LINE
  5
2D2
100
AcDbEntity
  8
Geländer2
  6
ByLayer
 62
  256
370
   -1
100
AcDbLine
 10
259.9999999999998
 20
3981.342446615851
 11
5656
 21
3981.342446615851
  0
INSERT
  5
2D3
100
AcDbEntity
  8
Geländer2
  6
ByLayer
 62
  256
370
   -1
100
AcDbBlockReference
  2
Geländer_Flansch-1_Stab
 10
402.0350697807143
 20
3440
 30
0
 41
1
 42
1
 43
0
 50
0
 70
    1
 71
    1
 44
1
 45
1
  0
INSERT
  5
2D4
100
AcDbEntity
  8
Geländer2
  6
ByLayer
 62
  256
370
   -1
100
AcDbBlockReference
  2
Geländer_Flansch-1_Stab
 10
544.0701395614278
 20
3440
 30
0
 41
1
 42
1
 43
0
 50
0
 70
    1
 71
    1
 44
1
 45
1
  0
INSERT
  5
2D5
100
AcDbEntity
  8
Geländer2
  6
ByLayer
 62
  256
370
   -1
100
AcDbBlockReference
  2
Geländer_Flansch-1_Stab
 10
686.1052093421413
 20
3440
 30
0
 41
1
 42
1
 43
0
 50
0
 70
    1
 71
    1
 44
1
 45
1
  0
INSERT
  5
2D6
100
AcDbEntity
  8
Geländer2
  6
ByLayer
 62
  256
370
   -1
100
AcDbBlockReference
  2
Geländer_Flansch-1_Stab
 10
828.1402791228548
 20
3440
 30
0
 41
1
 42
1
 43
0
 50
0
 70
    1
 71
    1
 44
1
 45
1
  0
INSERT
  5
2D7
100
AcDbEntity
  8
Geländer2
  6
ByLayer
 62
  256
370
   -1
100
AcDbBlockReference
  2
Geländer_Flansch-1_Stab
 10
970.1753489035685
 20
3440
 30
0
 41
1
 42
1
 43
0
 50
0
 70
    1
 71
    1
 44
1
 45
1
  0
INSERT
  5
2D8
100
AcDbEntity
  8
Geländer2
  6
ByLayer
 62
  256
370
   -1
100
AcDbBlockReference
  2
Geländer_Flansch-1_Stab
 10
1112.210418684282
 20
3440
 30
0
 41
1
 42
1
 43
0
 50
0
 70
    1
 71
    1
 44
1
 45
1
  0
INSERT
  5
2D9
100
AcDbEntity
  8
Geländer2
  6
ByLayer
 62
  256
370
   -1
100
AcDbBlockReference
  2
Geländer_Flansch-1_Stab
 10
1254.245488464996
 20
3440
 30
0
 41
1
 42
1
 43
0
 50
0
 70
    1
 71
    1
 44
1
 45
1
  0
INSERT
  5
2DA
100
AcDbEntity
  8
Geländer2
  6
ByLayer
 62
  256
370
   -1
100
AcDbBlockReference
  2
Geländer_Flansch-1_Stab
 10
1396.280558245709
 20
3440
 30
0
 41
1
 42
1
 43
0
 50
0
 70
    1
 71
    1
 44
1
 45
1
  0
INSERT
  5
2DB
100
AcDbEntity
  8
Geländer2
  6
ByLayer
 62
  256
370
   -1
100
AcDbBlockReference
  2
Geländer_Flansch-1_Stab
 10
1680.350697807137
 20
3440
 30
0
 41
1
 42
1
 43
0
 50
0
 70
    1
 71
    1
 44
1
 45
1
  0
INSERT
  5
2DC
100
AcDbEntity
  8
Geländer2
  6
ByLayer
 62
  256
370
   -1
100
AcDbBlockReference
  2
Geländer_Flansch-1_Stab
 10
1822.385767587851
 20
3440
 30
0
 41
1
 42
1
 43
0
 50
0
 70
    1
 71
    1
 44
1
 45
1
  0
INSERT
  5
2DD
100
AcDbEntity
  8
Geländer2
  6
ByLayer
 62
  256
370
   -1
100
AcDbBlockReference
  2
Geländer_Flansch-1_Stab
 10
1964.420837368564
 20
3440
 30
0
 41
1
 42
1
 43
0
 50
0
 70
    1
 71
    1
 44
1
 45
1
  0
INSERT
  5
2DE
100
AcDbEntity
  8
Geländer2
  6
ByLayer
 62
  256
370
   -1
100
AcDbBlockReference
  2
Geländer_Flansch-1_Stab
 10
2106.455907149278
 20
3440
 30
0
 41
1
 42
1
 43
0
 50
0
 70
    1
 71
    1
 44
1
 45
1
  0
INSERT
  5
2DF
100
AcDbEntity
  8
Geländer2
  6
ByLayer
 62
  256
370
   -1
100
AcDbBlockReference
  2
Geländer_Flansch-1_Stab
 10
2248.490976929992
 20
3440
 30
0
 41
1
 42
1
 43
0
 50
0
 70
    1
 71
    1
 44
1
 45
1
  0
INSERT
  5
2E0
100
AcDbEntity
  8
Geländer2
  6
ByLayer
 62
  256
370
   -1
100
AcDbBlockReference
  2
Geländer_Flansch-1_Stab
 10
2390.526046710705
 20
3440
 30
0
 41
1
 42
1
 43
0
 50
0
 70
    1
 71
    1
 44
1
 45
1
  0
INSERT
  5
2E1
100
AcDbEntity
  8
Geländer2
  6
ByLayer
 62
  256
370
   -1
100
AcDbBlockReference
  2
Geländer_Flansch-1_Stab
 10
2532.561116491418
 20
3440
 30
0
 41
1
 42
1
 43
0
 50
0
 70
    1
 71
    1
 44
1
 45
1
  0
INSERT
  5
2E2
100
AcDbEntity
  8
Geländer2
  6
ByLayer
 62
  256
370
   -1
100
AcDbBlockReference
  2
Geländer_Flansch-1_Stab
 10
2674.596186272132
 20
3440
 30
0
 41
1
 42
1
 43
0
 50
0
 70
    1
 71
    1
 44
1
 45
1
  0
INSERT
  5
2E3
100
AcDbEntity
  8
Geländer2
  6
ByLayer
 62
  256
370
   -1
100
AcDbBlockReference
  2
Geländer_Flansch-1_Stab
 10
2958.666325833559
 20
3440
 30
0
 41
1
 42
1
 43
0
 50
0
 70
    1
 71
    1
 44
1
 45
1
  0
INSERT
  5
2E4
100
AcDbEntity
  8
Geländer2
  6
ByLayer
 62
  256
370
   -1
100
AcDbBlockReference
  2
Geländer_Flansch-1_Stab
 10
3100.701395614273
 20
3440
 30
0
 41
1
 42
1
 43
0
 50
0
 70
    1
 71
    1
 44
1
 45
1
  0
INSERT
  5
2E5
100
AcDbEntity
  8
Geländer2
  6
ByLayer
 62
  256
370
   -1
100
AcDbBlockReference
  2
Geländer_Flansch-1_Stab
 10
3242.736465394987
 20
3440
 30
0
 41
1
 42
1
 43
0
 50
0
 70
    1
 71
    1
 44
1
 45
1
  0
INSERT
  5
2E6
100
AcDbEntity
  8
Geländer2
  6
ByLayer
 62
  256
370
   -1
100
AcDbBlockReference
  2
Geländer_Flansch-1_Stab
 10
3384.7715351757
 20
3440
 30
0
 41
1
 42
1
 43
0
 50
0
 70
    1
 71
    1
 44
1
 45
1
  0
INSERT
  5
2E7
100
AcDbEntity
  8
Geländer2
  6
ByLayer
 62
  256
370
   -1
100
AcDbBlockReference
  2
Geländer_Flansch-1_Stab
 10
3526.806604956414
 20
3440
 30
0
 41
1
 42
1
 43
0
 50
0
 70
    1
 71
    1
 44
1
 45
1
  0
INSERT
  5
2E8
100
AcDbEntity
  8
Geländer2
  6
ByLayer
 62
  256
370
   -1
100
AcDbBlockReference
  2
Geländer_Flansch-1_Stab
 10
3668.841674737128
 20
3440
 30
0
 41
1
 42
1
 43
0
 50
0
 70
    1
 71
    1
 44
1
 45
1
  0
INSERT
  5
2E9
100
AcDbEntity
  8
Geländer2
  6
ByLayer
 62
  256
370
   -1
100
AcDbBlockReference
  2
Geländer_Flansch-1_Stab
 10
3810.876744517841
 20
3440
 30
0
 41
1
 42
1
 43
0
 50
0
 70
    1
 71
    1
 44
1
 45
1
  0
INSERT
  5
2EA
100
AcDbEntity
  8
Geländer2
  6
ByLayer
 62
  256
370
   -1
100
AcDbBlockReference
  2
Geländer_Flansch-1_Stab
 10
3952.911814298554
 20
3440
 30
0
 41
1
 42
1
 43
0
 50
0
 70
    1
 71
    1
 44
1
 45
1
  0
INSERT
  5
2EB
100
AcDbEntity
  8
Geländer2
  6
ByLayer
 62
  256
370
   -1
100
AcDbBlockReference
  2
Geländer_Flansch-1_Stab
 10
4236.981953859981
 20
3440
 30
0
 41
1
 42
1
 43
0
 50
0
 70
    1
 71
    1
 44
1
 45
1
  0
INSERT
  5
2EC
100
AcDbEntity
  8
Geländer2
  6
ByLayer
 62
  256
370
   -1
100
AcDbBlockReference
  2
Geländer_Flansch-1_Stab
 10
4379.017023640695
 20
3440
 30
0
 41
1
 42
1
 43
0
 50
0
 70
    1
 71
    1
 44
1
 45
1
  0
INSERT
  5
2ED
100
AcDbEntity
  8
Geländer2
  6
ByLayer
 62
  256
370
   -1
100
AcDbBlockReference
  2
Geländer_Flansch-1_Stab
 10
4521.052093421408
 20
3440
 30
0
 41
1
 42
1
 43
0
 50
0
 70
    1
 71
    1
 44
1
 45
1
  0
INSERT
  5
2EE
100
AcDbEntity
  8
Geländer2
  6
ByLayer
 62
  256
370
   -1
100
AcDbBlockReference
  2
Geländer_Flansch-1_Stab
 10
4663.087163202123
 20
3440
 30
0
 41
1
 42
1
 43
0
 50
0
 70
    1
 71
    1
 44
1
 45
1
  0
INSERT
  5
2EF
100
AcDbEntity
  8
Geländer2
  6
ByLayer
 62
  256
370
   -1
100
AcDbBlockReference
  2
Geländer_Flansch-1_Stab
 10
4805.122232982836
 20
3440
 30
0
 41
1
 42
1
 43
0
 50
0
 70
    1
 71
    1
 44
1
 45
1
  0
INSERT
  5
2F0
100
AcDbEntity
  8
Geländer2
  6
ByLayer
 62
  256
370
   -1
100
AcDbBlockReference
  2
Geländer_Flansch-1_Stab
 10
4947.15730276355
 20
3440
 30
0
 41
1
 42
1
 43
0
 50
0
 70
    1
 71
    1
 44
1
 45
1
  0
INSERT
  5
2F1
100
AcDbEntity
  8
Geländer2
  6
ByLayer
 62
  256
370
   -1
100
AcDbBlockReference
  2
Geländer_Flansch-1_Stab
 10
5089.192372544263
 20
3440
 30
0
 41
1
 42
1
 43
0
 50
0
 70
    1
 71
    1
 44
1
 45
1
  0
INSERT
  5
2F2
100
AcDbEntity
  8
Geländer2
  6
ByLayer
 62
  256
370
   -1
100
AcDbBlockReference
  2
Geländer_Flansch-1_Stab
 10
5231.227442324976
 20
3440
 30
0
 41
1
 42
1
 43
0
 50
0
 70
    1
 71
    1
 44
1
 45
1
  0
INSERT
  5
2F3
100
AcDbEntity
  8
Geländer2
  6
ByLayer
 62
  256
370
   -1
100
AcDbBlockReference
  2
Geländer_Flansch-1_Stab
 10
5515.297581886404
 20
3440
 30
0
 41
1
 42
1
 43
0
 50
0
 70
    1
 71
    1
 44
1
 45
1
  0
INSERT
  5
2F4
100
AcDbEntity
  8
Geländer2
  6
ByLayer
 62
  256
370
   -1
100
AcDbBlockReference
  2
Geländer_Flansch-1_Stab
 10
5656
 20
3440
 30
0
 41
1
 42
1
 43
0
 50
0
 70
    1
 71
    1
 44
1
 45
1
  0
LINE
  5
2F5
100
AcDbEntity
  8
Geländer2
  6
ByLayer
 62
  256
370
   -1
100
AcDbLine
 10
5640
 20
2920
 11
5640
 21
4158.000000000164
  0
LINE
  5
2F6
100
AcDbEntity
  8
Geländer2
  6
ByLayer
 62
  256
370
   -1
100
AcDbLine
 10
5672
 20
2920
 11
5672
 21
4157.999999999952
  0
LINE
  5
2F7
100
AcDbEntity
  8
Geländer2
  6
ByLayer
 62
  256
370
   -1
100
AcDbLine
 10
6140
 20
2920
 11
6140
 21
4158.00000000057
  0
LINE
  5
2F8
100
AcDbEntity
  8
Geländer2
  6
ByLayer
 62
  256
370
   -1
100
AcDbLine
 10
6108
 20
2920
 11
6108
 21
4157.999999999689
  0
MTEXT
  5
2F9
100
AcDbEntity
  8
0
  6
ByLayer
 62
  256
370
   -1
100
AcDbMText
 10
5204.262979499721
 20
-427.2156177201263
 30
0
 40
60
 41
1619.999987279901
 71
    7
 72
    1
  1
P32: Studio Chalet Saflisch, 3996 Binn\PFasadenisolation und Absturzsicherung\PSchwarzentruber Engineering A4 M 1:25\PVersion 02.05.2019
  7
standard
210
0
220
0
230
1
 50
0
 73
    2
 44
1
  0
MTEXT
  5
2FA
100
AcDbEntity
  8
0
  6
ByLayer
 62
  256
370
   -1
100
AcDbMText
 10
2201.396460692353
 20
4237.904941951851
 30
0
 40
40
 41
1210.00005727004
 71
    7
 72
    1
  1
Absturzsicherung neu (Geländer Chromstahl)
  7
standard
210
0
220
0
230
1
 50
0
 73
    2
 44
1
  0
LINE
  5
2FB
100
AcDbEntity
  8
hilfe_1
  6
ByLayer
 62
  256
370
  100
100
AcDbLine
 10
260.0000000000007
 20
3440
 11
1538.315628026423
 21
3440
  0
LINE
  5
2FC
100
AcDbEntity
  8
hilfe_1
  6
ByLayer
 62
  256
370
   -1
100
AcDbLine
 10
402.0350697807143
 20
3440
 11
402.0350697807143
 21
3472
  0
LINE
  5
2FD
100
AcDbEntity
  8
hilfe_1
  6
ByLayer
 62
  256
370
   -1
100
AcDbLine
 10
544.0701395614278
 20
3440
 11
544.0701395614278
 21
3472
  0
LINE
  5
2FE
100
AcDbEntity
  8
hilfe_1
  6
ByLayer
 62
  256
370
   -1
100
AcDbLine
 10
686.1052093421413
 20
3440
 11
686.1052093421413
 21
3472
  0
LINE
  5
2FF
100
AcDbEntity
  8
hilfe_1
  6
ByLayer
 62
  256
370
   -1
100
AcDbLine
 10
828.1402791228548
 20
3440
 11
828.1402791228548
 21
3472
  0
LINE
  5
300
100
AcDbEntity
  8
hilfe_1
  6
ByLayer
 62
  256
370
   -1
100
AcDbLine
 10
970.1753489035685
 20
3440
 11
970.1753489035685
 21
3472
  0
LINE
  5
301
100
AcDbEntity
  8
hilfe_1
  6
ByLayer
 62
  256
370
   -1
100
AcDbLine
 10
1112.210418684282
 20
3440
 11
1112.210418684282
 21
3472
  0
LINE
  5
302
100
AcDbEntity
  8
hilfe_1
  6
ByLayer
 62
  256
370
   -1
100
AcDbLine
 10
1254.245488464996
 20
3440
 11
1254.245488464996
 21
3472
  0
LINE
  5
303
100
AcDbEntity
  8
hilfe_1
  6
ByLayer
 62
  256
370
   -1
100
AcDbLine
 10
1396.280558245709
 20
3440
 11
1396.280558245709
 21
3472
  0
LINE
  5
304
100
AcDbEntity
  8
hilfe_1
  6
ByLayer
 62
  256
370
   -1
100
AcDbLine
 10
1680.350697807137
 20
3440
 11
1680.350697807137
 21
3472
  0
LINE
  5
305
100
AcDbEntity
  8
hilfe_1
  6
ByLayer
 62
  256
370
   -1
100
AcDbLine
 10
1822.385767587851
 20
3440
 11
1822.385767587851
 21
3472
  0
LINE
  5
306
100
AcDbEntity
  8
hilfe_1
  6
ByLayer
 62
  256
370
   -1
100
AcDbLine
 10
1964.420837368564
 20
3440
 11
1964.420837368564
 21
3472
  0
LINE
  5
307
100
AcDbEntity
  8
hilfe_1
  6
ByLayer
 62
  256
370
   -1
100
AcDbLine
 10
2106.455907149278
 20
3440
 11
2106.455907149278
 21
3472
  0
LINE
  5
308
100
AcDbEntity
  8
hilfe_1
  6
ByLayer
 62
  256
370
   -1
100
AcDbLine
 10
2248.490976929992
 20
3440
 11
2248.490976929992
 21
3472
  0
LINE
  5
309
100
AcDbEntity
  8
hilfe_1
  6
ByLayer
 62
  256
370
   -1
100
AcDbLine
 10
2390.526046710705
 20
3440
 11
2390.526046710705
 21
3472
  0
LINE
  5
30A
100
AcDbEntity
  8
hilfe_1
  6
ByLayer
 62
  256
370
   -1
100
AcDbLine
 10
2532.561116491418
 20
3440
 11
2532.561116491418
 21
3472
  0
LINE
  5
30B
100
AcDbEntity
  8
hilfe_1
  6
ByLayer
 62
  256
370
   -1
100
AcDbLine
 10
2674.596186272132
 20
3440
 11
2674.596186272132
 21
3472
  0
LINE
  5
30C
100
AcDbEntity
  8
hilfe_1
  6
ByLayer
 62
  256
370
   -1
100
AcDbLine
 10
2958.666325833559
 20
3440
 11
2958.666325833559
 21
3472
  0
LINE
  5
30D
100
AcDbEntity
  8
hilfe_1
  6
ByLayer
 62
  256
370
   -1
100
AcDbLine
 10
3100.701395614273
 20
3440
 11
3100.701395614273
 21
3472
  0
LINE
  5
30E
100
AcDbEntity
  8
hilfe_1
  6
ByLayer
 62
  256
370
   -1
100
AcDbLine
 10
3242.736465394987
 20
3440
 11
3242.736465394987
 21
3472
  0
LINE
  5
30F
100
AcDbEntity
  8
hilfe_1
  6
ByLayer
 62
  256
370
   -1
100
AcDbLine
 10
3384.7715351757
 20
3440
 11
3384.7715351757
 21
3472
  0
LINE
  5
310
100
AcDbEntity
  8
hilfe_1
  6
ByLayer
 62
  256
370
   -1
100
AcDbLine
 10
3526.806604956414
 20
3440
 11
3526.806604956414
 21
3472
  0
LINE
  5
311
100
AcDbEntity
  8
hilfe_1
  6
ByLayer
 62
  256
370
   -1
100
AcDbLine
 10
3668.841674737128
 20
3440
 11
3668.841674737128
 21
3472
  0
LINE
  5
312
100
AcDbEntity
  8
hilfe_1
  6
ByLayer
 62
  256
370
   -1
100
AcDbLine
 10
3810.876744517841
 20
3440
 11
3810.876744517841
 21
3472
  0
LINE
  5
313
100
AcDbEntity
  8
hilfe_1
  6
ByLayer
 62
  256
370
   -1
100
AcDbLine
 10
3952.911814298554
 20
3440
 11
3952.911814298554
 21
3472
  0
LINE
  5
314
100
AcDbEntity
  8
hilfe_1
  6
ByLayer
 62
  256
370
   -1
100
AcDbLine
 10
4236.981953859981
 20
3440
 11
4236.981953859981
 21
3472
  0
LINE
  5
315
100
AcDbEntity
  8
hilfe_1
  6
ByLayer
 62
  256
370
   -1
100
AcDbLine
 10
4379.017023640695
 20
3440
 11
4379.017023640695
 21
3472
  0
LINE
  5
316
100
AcDbEntity
  8
hilfe_1
  6
ByLayer
 62
  256
370
   -1
100
AcDbLine
 10
4521.052093421408
 20
3440
 11
4521.052093421408
 21
3472
  0
LINE
  5
317
100
AcDbEntity
  8
hilfe_1
  6
ByLayer
 62
  256
370
   -1
100
AcDbLine
 10
4663.087163202123
 20
3440
 11
4663.087163202123
 21
3472
  0
LINE
  5
318
100
AcDbEntity
  8
hilfe_1
  6
ByLayer
 62
  256
370
   -1
100
AcDbLine
 10
4805.122232982836
 20
3440
 11
4805.122232982836
 21
3472
  0
LINE
  5
319
100
AcDbEntity
  8
hilfe_1
  6
ByLayer
 62
  256
370
   -1
100
AcDbLine
 10
4947.15730276355
 20
3440
 11
4947.15730276355
 21
3472
  0
LINE
  5
31A
100
AcDbEntity
  8
hilfe_1
  6
ByLayer
 62
  256
370
   -1
100
AcDbLine
 10
5089.192372544263
 20
3440
 11
5089.192372544263
 21
3472
  0
LINE
  5
31B
100
AcDbEntity
  8
hilfe_1
  6
ByLayer
 62
  256
370
   -1
100
AcDbLine
 10
5231.227442324976
 20
3440
 11
5231.227442324976
 21
3472
  0
LINE
  5
31C
100
AcDbEntity
  8
hilfe_1
  6
ByLayer
 62
  256
370
   -1
100
AcDbLine
 10
5515.297581886404
 20
3440
 11
5515.297581886404
 21
3472
  0
LINE
  5
31D
100
AcDbEntity
  8
hilfe_1
  6
ByLayer
 62
  256
370
   -1
100
AcDbLine
 10
5656
 20
3440
 11
5656
 21
3472
  0
LINE
  5
31E
100
AcDbEntity
  8
Geländer2
  6
ByLayer
 62
  256
370
   -1
100
AcDbLine
 10
259.9999999999998
 20
3440
 11
5656
 21
3440
  0
LINE
  5
31F
100
AcDbEntity
  8
hilfe_1
  6
ByLayer
 62
  256
370
   -1
100
AcDbLine
 10
259.9999999999998
 20
3000
 11
5373.26251210569
 21
3000
  0
LINE
  5
320
100
AcDbEntity
  8
Geländer_unsichtbar
  6
ByLayer
 62
  256
370
   -1
100
AcDbLine
 10
5450
 20
3086
 11
5450
 21
2914
  0
LINE
  5
321
100
AcDbEntity
  8
Geländer_unsichtbar
  6
ByLayer
 62
  256
370
   -1
100
AcDbLine
 10
5458
 20
3086
 11
5450
 21
3086
  0
LINE
  5
322
100
AcDbEntity
  8
Geländer_unsichtbar
  6
ByLayer
 62
  256
370
   -1
100
AcDbLine
 10
5450
 20
2914
 11
5458
 21
2914
  0
LINE
  5
323
100
AcDbEntity
  8
Geländer_unsichtbar
  6
ByLayer
 62
  256
370
   -1
100
AcDbLine
 10
5458
 20
2914
 11
5458
 21
3086
  0
LINE
  5
324
100
AcDbEntity
  8
Geländer_unsichtbar
  6
ByLayer
 62
  256
370
   -1
100
AcDbLine
 10
5450
 20
3086
 11
5450
 21
2914
  0
LINE
  5
325
100
AcDbEntity
  8
Geländer_unsichtbar
  6
ByLayer
 62
  256
370
   -1
100
AcDbLine
 10
5570
 20
3080
 11
5458
 21
3080
  0
LINE
  5
326
100
AcDbEntity
  8
Geländer_unsichtbar
  6
ByLayer
 62
  256
370
   -1
100
AcDbLine
 10
5570
 20
3040
 11
5458
 21
3040
  0
LINE
  5
327
100
AcDbEntity
  8
Geländer_unsichtbar
  6
ByLayer
 62
  256
370
   -1
100
AcDbLine
 10
5570
 20
2960
 11
5458
 21
2960
  0
LINE
  5
328
100
AcDbEntity
  8
Geländer_unsichtbar
  6
ByLayer
 62
  256
370
   -1
100
AcDbLine
 10
5570
 20
2920
 11
5458
 21
2920
  0
INSERT
  5
329
100
AcDbEntity
  8
Geländer2
  6
ByLayer
 62
  256
370
   -1
100
AcDbBlockReference
  2
Geländer_Flansch-3
 10
5373.26251210569
 20
3000
 30
0
 41
1
 42
1
 43
0
 50
0
 70
    1
 71
    1
 44
1
 45
1
  0
INSERT
  5
32A
100
AcDbEntity
  8
Geländer2
  6
ByLayer
 62
  256
370
   -1
100
AcDbBlockReference
  2
Geländer_Flansch-3
 10
259.9999999999998
 20
3000
 30
0
 41
1
 42
1
 43
0
 50
0
 70
    1
 71
    1
 44
1
 45
1
  0
LINE
  5
32B
100
AcDbEntity
  8
Geländer2
  6
ByLayer
 62
  256
370
   -1
100
AcDbLine
 10
6140
 20
2920
 11
6140
 21
4070
  0
LINE
  5
32C
100
AcDbEntity
  8
Geländer2
  6
ByLayer
 62
  256
370
   -1
100
AcDbLine
 10
6108
 20
2920
 11
6108
 21
4070
  0
LINE
  5
32D
100
AcDbEntity
  8
Geländer2
  6
ByLayer
 62
  256
370
   -1
100
AcDbLine
 10
6140
 20
3080
 11
6321.999999999996
 21
3080
  0
LINE
  5
32E
100
AcDbEntity
  8
Geländer2
  6
ByLayer
 62
  256
370
   -1
100
AcDbLine
 10
6140
 20
3040
 11
6321.999999999996
 21
3040
  0
LINE
  5
32F
100
AcDbEntity
  8
Geländer2
  6
ByLayer
 62
  256
370
   -1
100
AcDbLine
 10
6140
 20
2920
 11
6321.999999999996
 21
2920
  0
LINE
  5
330
100
AcDbEntity
  8
Geländer2
  6
ByLayer
 62
  256
370
   -1
100
AcDbLine
 10
6140
 20
2920
 11
6108
 21
2920
  0
LINE
  5
331
100
AcDbEntity
  8
Geländer2
  6
ByLayer
 62
  256
370
   -1
100
AcDbLine
 10
6140
 20
4070
 11
6108
 21
4070
  0
CIRCLE
  5
332
100
AcDbEntity
  8
Geländer2
  6
ByLayer
 62
  256
370
   -1
100
AcDbCircle
 10
6124
 20
4170
 40
20
  0
LINE
  5
333
100
AcDbEntity
  8
Geländer2
  6
ByLayer
 62
  256
370
   -1
100
AcDbLine
 10
6140
 20
2960
 11
6200
 21
2960
  0
LINE
  5
334
100
AcDbEntity
  8
Geländer2
  6
ByLayer
 62
  256
370
   -1
100
AcDbLine
 10
6200
 20
2960
 11
6321.999999999996
 21
2960
  0
LINE
  5
335
100
AcDbEntity
  8
Geländer2
  6
ByLayer
 62
  256
370
   -1
100
AcDbLine
 10
6321.999999999996
 20
3086
 11
6329.999999999996
 21
3086
  0
LINE
  5
336
100
AcDbEntity
  8
Geländer2
  6
ByLayer
 62
  256
370
   -1
100
AcDbLine
 10
6329.999999999996
 20
2914
 11
6321.999999999996
 21
2914
  0
LINE
  5
337
100
AcDbEntity
  8
Geländer2
  6
ByLayer
 62
  256
370
   -1
100
AcDbLine
 10
6321.999999999996
 20
2914
 11
6321.999999999996
 21
3086
  0
LINE
  5
338
100
AcDbEntity
  8
Geländer2
  6
ByLayer
 62
  256
370
   -1
100
AcDbLine
 10
5640
 20
2920
 11
5640
 21
4070
  0
LINE
  5
339
100
AcDbEntity
  8
Geländer2
  6
ByLayer
 62
  256
370
   -1
100
AcDbLine
 10
5672
 20
2920
 11
5672
 21
4070
  0
LINE
  5
33A
100
AcDbEntity
  8
Geländer2
  6
ByLayer
 62
  256
370
   -1
100
AcDbLine
 10
5640
 20
2920
 11
5672
 21
2920
  0
CIRCLE
  5
33B
100
AcDbEntity
  8
Geländer2
  6
ByLayer
 62
  256
370
   -1
100
AcDbCircle
 10
5656
 20
4170
 40
20
  0
LINE
  5
33C
100
AcDbEntity
  8
Geländer2
  6
ByLayer
 62
  256
370
   -1
100
AcDbLine
 10
5640
 20
2960
 11
5580
 21
2960
  0
LINE
  5
33D
100
AcDbEntity
  8
Geländer2
  6
ByLayer
 62
  256
370
   -1
100
AcDbLine
 10
59.99999999999977
 20
4190
 11
5656
 21
4190
  0
LINE
  5
33E
100
AcDbEntity
  8
Geländer2
  6
ByLayer
 62
  256
370
   -1
100
AcDbLine
 10
59.99999999999977
 20
4150
 11
5656.000089742109
 21
4150
  0
LINE
  5
33F
100
AcDbEntity
  8
Geländer2
  6
ByLayer
 62
  256
370
   -1
100
AcDbLine
 10
5640
 20
3080
 11
5570
 21
3080
  0
LINE
  5
340
100
AcDbEntity
  8
Geländer2
  6
ByLayer
 62
  256
370
   -1
100
AcDbLine
 10
5640
 20
3040
 11
5570
 21
3040
  0
LINE
  5
341
100
AcDbEntity
  8
Geländer2
  6
ByLayer
 62
  256
370
   -1
100
AcDbLine
 10
5580
 20
2960
 11
5570
 21
2960
  0
LINE
  5
342
100
AcDbEntity
  8
Geländer2
  6
ByLayer
 62
  256
370
   -1
100
AcDbLine
 10
5640
 20
2920
 11
5570
 21
2920
  0
MTEXT
  5
343
100
AcDbEntity
  8
Geländer2
  6
ByLayer
 62
  256
370
   -1
100
AcDbMText
 10
2201.396460692353
 20
4237.904941951851
 30
0
 40
40
 41
1210.00005727004
 71
    7
 72
    1
  1
Absturzsicherung neu (Geländer Chromstahl)
  7
standard
210
0
220
0
230
1
 50
0
 73
    2
 44
1
  0
LINE
  5
344
100
AcDbEntity
  8
Geländer2
  6
ByLayer
 62
  256
370
   -1
100
AcDbLine
 10
6140
 20
3080
 11
6321.999999999996
 21
3080
  0
LINE
  5
345
100
AcDbEntity
  8
Geländer2
  6
ByLayer
 62
  256
370
   -1
100
AcDbLine
 10
6140
 20
3040
 11
6321.999999999996
 21
3040
  0
LINE
  5
346
100
AcDbEntity
  8
Geländer2
  6
ByLayer
 62
  256
370
   -1
100
AcDbLine
 10
6140
 20
2920
 11
6321.999999999996
 21
2920
  0
LINE
  5
347
100
AcDbEntity
  8
Geländer2
  6
ByLayer
 62
  256
370
   -1
100
AcDbLine
 10
6140
 20
2920
 11
6108
 21
2920
  0
LINE
  5
348
100
AcDbEntity
  8
Geländer2
  6
ByLayer
 62
  256
370
   -1
100
AcDbLine
 10
6140
 20
4070
 11
6108
 21
4070
  0
CIRCLE
  5
349
100
AcDbEntity
  8
Geländer2
  6
ByLayer
 62
  256
370
   -1
100
AcDbCircle
 10
6124
 20
4170
 40
20
  0
LINE
  5
34A
100
AcDbEntity
  8
Geländer2
  6
ByLayer
 62
  256
370
   -1
100
AcDbLine
 10
6140
 20
2960
 11
6200
 21
2960
  0
LINE
  5
34B
100
AcDbEntity
  8
Geländer2
  6
ByLayer
 62
  256
370
   -1
100
AcDbLine
 10
6200
 20
2960
 11
6321.999999999996
 21
2960
  0
LINE
  5
34C
100
AcDbEntity
  8
Geländer2
  6
ByLayer
 62
  256
370
   -1
100
AcDbLine
 10
6321.999999999996
 20
3086
 11
6329.999999999996
 21
3086
  0
LINE
  5
34D
100
AcDbEntity
  8
Geländer2
  6
ByLayer
 62
  256
370
   -1
100
AcDbLine
 10
6329.999999999996
 20
2914
 11
6321.999999999996
 21
2914
  0
LINE
  5
34E
100
AcDbEntity
  8
Geländer2
  6
ByLayer
 62
  256
370
   -1
100
AcDbLine
 10
6321.999999999996
 20
2914
 11
6321.999999999996
 21
3086
  0
LINE
  5
34F
100
AcDbEntity
  8
Geländer2
  6
ByLayer
 62
  256
370
   -1
100
AcDbLine
 10
5640
 20
2920
 11
5672
 21
2920
  0
CIRCLE
  5
350
100
AcDbEntity
  8
Geländer2
  6
ByLayer
 62
  256
370
   -1
100
AcDbCircle
 10
5656
 20
4170
 40
20
  0
LINE
  5
351
100
AcDbEntity
  8
Geländer2
  6
ByLayer
 62
  256
370
   -1
100
AcDbLine
 10
5640
 20
2960
 11
5580
 21
2960
  0
LINE
  5
352
100
AcDbEntity
  8
Geländer2
  6
ByLayer
 62
  256
370
   -1
100
AcDbLine
 10
59.99999999999977
 20
4190
 11
5656
 21
4190
  0
LINE
  5
353
100
AcDbEntity
  8
Geländer2
  6
ByLayer
 62
  256
370
   -1
100
AcDbLine
 10
59.99999999999977
 20
4150
 11
5656.000089742109
 21
4150
  0
LINE
  5
354
100
AcDbEntity
  8
Geländer2
  6
ByLayer
 62
  256
370
   -1
100
AcDbLine
 10
5640
 20
3080
 11
5570
 21
3080
  0
LINE
  5
355
100
AcDbEntity
  8
Geländer2
  6
ByLayer
 62
  256
370
   -1
100
AcDbLine
 10
5640
 20
3040
 11
5570
 21
3040
  0
LINE
  5
356
100
AcDbEntity
  8
Geländer2
  6
ByLayer
 62
  256
370
   -1
100
AcDbLine
 10
5580
 20
2960
 11
5570
 21
2960
  0
LINE
  5
357
100
AcDbEntity
  8
Geländer2
  6
ByLayer
 62
  256
370
   -1
100
AcDbLine
 10
5640
 20
2920
 11
5570
 21
2920
  0
LINE
  5
358
100
AcDbEntity
  8
Geländer2
  6
ByLayer
 62
  256
370
   -1
100
AcDbLine
 10
259.9999999999998
 20
3410
 11
5656
 21
3410
  0
LINE
  5
359
100
AcDbEntity
  8
Geländer2
  6
ByLayer
 62
  256
370
   -1
100
AcDbLine
 10
259.9999999999998
 20
4011.342446615851
 11
5656
 21
4011.342446615851
  0
INSERT
  5
35A
100
AcDbEntity
  8
Geländer2
  6
ByLayer
 62
  256
370
   -1
100
AcDbBlockReference
  2
Geländer_Flansch-3
 10
1538.315628026423
 20
3000
 30
0
 41
1
 42
1
 43
0
 50
0
 70
    1
 71
    1
 44
1
 45
1
  0
INSERT
  5
35B
100
AcDbEntity
  8
Geländer2
  6
ByLayer
 62
  256
370
   -1
100
AcDbBlockReference
  2
Geländer_Flansch-3
 10
2816.631256052845
 20
3000
 30
0
 41
1
 42
1
 43
0
 50
0
 70
    1
 71
    1
 44
1
 45
1
  0
INSERT
  5
35C
100
AcDbEntity
  8
Geländer2
  6
ByLayer
 62
  256
370
   -1
100
AcDbBlockReference
  2
Geländer_Flansch-3
 10
4094.946884079267
 20
3000
 30
0
 41
1
 42
1
 43
0
 50
0
 70
    1
 71
    1
 44
1
 45
1
  0
LINE
  5
35D
100
AcDbEntity
  8
Geländer2
  6
ByLayer
 62
  256
370
   -1
100
AcDbLine
 10
259.9999999999998
 20
3981.342446615851
 11
5656
 21
3981.342446615851
  0
INSERT
  5
35E
100
AcDbEntity
  8
Geländer2
  6
ByLayer
 62
  256
370
   -1
100
AcDbBlockReference
  2
Geländer_Flansch-1_Stab
 10
402.0350697807143
 20
3440
 30
0
 41
1
 42
1
 43
0
 50
0
 70
    1
 71
    1
 44
1
 45
1
  0
INSERT
  5
35F
100
AcDbEntity
  8
Geländer2
  6
ByLayer
 62
  256
370
   -1
100
AcDbBlockReference
  2
Geländer_Flansch-1_Stab
 10
544.0701395614278
 20
3440
 30
0
 41
1
 42
1
 43
0
 50
0
 70
    1
 71
    1
 44
1
 45
1
  0
INSERT
  5
360
100
AcDbEntity
  8
Geländer2
  6
ByLayer
 62
  256
370
   -1
100
AcDbBlockReference
  2
Geländer_Flansch-1_Stab
 10
686.1052093421413
 20
3440
 30
0
 41
1
 42
1
 43
0
 50
0
 70
    1
 71
    1
 44
1
 45
1
  0
INSERT
  5
361
100
AcDbEntity
  8
Geländer2
  6
ByLayer
 62
  256
370
   -1
100
AcDbBlockReference
  2
Geländer_Flansch-1_Stab
 10
828.1402791228548
 20
3440
 30
0
 41
1
 42
1
 43
0
 50
0
 70
    1
 71
    1
 44
1
 45
1
  0
INSERT
  5
362
100
AcDbEntity
  8
Geländer2
  6
ByLayer
 62
  256
370
   -1
100
AcDbBlockReference
  2
Geländer_Flansch-1_Stab
 10
970.1753489035685
 20
3440
 30
0
 41
1
 42
1
 43
0
 50
0
 70
    1
 71
    1
 44
1
 45
1
  0
INSERT
  5
363
100
AcDbEntity
  8
Geländer2
  6
ByLayer
 62
  256
370
   -1
100
AcDbBlockReference
  2
Geländer_Flansch-1_Stab
 10
1112.210418684282
 20
3440
 30
0
 41
1
 42
1
 43
0
 50
0
 70
    1
 71
    1
 44
1
 45
1
  0
INSERT
  5
364
100
AcDbEntity
  8
Geländer2
  6
ByLayer
 62
  256
370
   -1
100
AcDbBlockReference
  2
Geländer_Flansch-1_Stab
 10
1254.245488464996
 20
3440
 30
0
 41
1
 42
1
 43
0
 50
0
 70
    1
 71
    1
 44
1
 45
1
  0
INSERT
  5
365
100
AcDbEntity
  8
Geländer2
  6
ByLayer
 62
  256
370
   -1
100
AcDbBlockReference
  2
Geländer_Flansch-1_Stab
 10
1396.280558245709
 20
3440
 30
0
 41
1
 42
1
 43
0
 50
0
 70
    1
 71
    1
 44
1
 45
1
  0
INSERT
  5
366
100
AcDbEntity
  8
Geländer2
  6
ByLayer
 62
  256
370
   -1
100
AcDbBlockReference
  2
Geländer_Flansch-1_Stab
 10
1680.350697807137
 20
3440
 30
0
 41
1
 42
1
 43
0
 50
0
 70
    1
 71
    1
 44
1
 45
1
  0
INSERT
  5
367
100
AcDbEntity
  8
Geländer2
  6
ByLayer
 62
  256
370
   -1
100
AcDbBlockReference
  2
Geländer_Flansch-1_Stab
 10
1822.385767587851
 20
3440
 30
0
 41
1
 42
1
 43
0
 50
0
 70
    1
 71
    1
 44
1
 45
1
  0
INSERT
  5
368
100
AcDbEntity
  8
Geländer2
  6
ByLayer
 62
  256
370
   -1
100
AcDbBlockReference
  2
Geländer_Flansch-1_Stab
 10
1964.420837368564
 20
3440
 30
0
 41
1
 42
1
 43
0
 50
0
 70
    1
 71
    1
 44
1
 45
1
  0
INSERT
  5
369
100
AcDbEntity
  8
Geländer2
  6
ByLayer
 62
  256
370
   -1
100
AcDbBlockReference
  2
Geländer_Flansch-1_Stab
 10
2106.455907149278
 20
3440
 30
0
 41
1
 42
1
 43
0
 50
0
 70
    1
 71
    1
 44
1
 45
1
  0
INSERT
  5
36A
100
AcDbEntity
  8
Geländer2
  6
ByLayer
 62
  256
370
   -1
100
AcDbBlockReference
  2
Geländer_Flansch-1_Stab
 10
2248.490976929992
 20
3440
 30
0
 41
1
 42
1
 43
0
 50
0
 70
    1
 71
    1
 44
1
 45
1
  0
INSERT
  5
36B
100
AcDbEntity
  8
Geländer2
  6
ByLayer
 62
  256
370
   -1
100
AcDbBlockReference
  2
Geländer_Flansch-1_Stab
 10
2390.526046710705
 20
3440
 30
0
 41
1
 42
1
 43
0
 50
0
 70
    1
 71
    1
 44
1
 45
1
  0
INSERT
  5
36C
100
AcDbEntity
  8
Geländer2
  6
ByLayer
 62
  256
370
   -1
100
AcDbBlockReference
  2
Geländer_Flansch-1_Stab
 10
2532.561116491418
 20
3440
 30
0
 41
1
 42
1
 43
0
 50
0
 70
    1
 71
    1
 44
1
 45
1
  0
INSERT
  5
36D
100
AcDbEntity
  8
Geländer2
  6
ByLayer
 62
  256
370
   -1
100
AcDbBlockReference
  2
Geländer_Flansch-1_Stab
 10
2674.596186272132
 20
3440
 30
0
 41
1
 42
1
 43
0
 50
0
 70
    1
 71
    1
 44
1
 45
1
  0
INSERT
  5
36E
100
AcDbEntity
  8
Geländer2
  6
ByLayer
 62
  256
370
   -1
100
AcDbBlockReference
  2
Geländer_Flansch-1_Stab
 10
2958.666325833559
 20
3440
 30
0
 41
1
 42
1
 43
0
 50
0
 70
    1
 71
    1
 44
1
 45
1
  0
INSERT
  5
36F
100
AcDbEntity
  8
Geländer2
  6
ByLayer
 62
  256
370
   -1
100
AcDbBlockReference
  2
Geländer_Flansch-1_Stab
 10
3100.701395614273
 20
3440
 30
0
 41
1
 42
1
 43
0
 50
0
 70
    1
 71
    1
 44
1
 45
1
  0
INSERT
  5
370
100
AcDbEntity
  8
Geländer2
  6
ByLayer
 62
  256
370
   -1
100
AcDbBlockReference
  2
Geländer_Flansch-1_Stab
 10
3242.736465394987
 20
3440
 30
0
 41
1
 42
1
 43
0
 50
0
 70
    1
 71
    1
 44
1
 45
1
  0
INSERT
  5
371
100
AcDbEntity
  8
Geländer2
  6
ByLayer
 62
  256
370
   -1
100
AcDbBlockReference
  2
Geländer_Flansch-1_Stab
 10
3384.7715351757
 20
3440
 30
0
 41
1
 42
1
 43
0
 50
0
 70
    1
 71
    1
 44
1
 45
1
  0
INSERT
  5
372
100
AcDbEntity
  8
Geländer2
  6
ByLayer
 62
  256
370
   -1
100
AcDbBlockReference
  2
Geländer_Flansch-1_Stab
 10
3526.806604956414
 20
3440
 30
0
 41
1
 42
1
 43
0
 50
0
 70
    1
 71
    1
 44
1
 45
1
  0
INSERT
  5
373
100
AcDbEntity
  8
Geländer2
  6
ByLayer
 62
  256
370
   -1
100
AcDbBlockReference
  2
Geländer_Flansch-1_Stab
 10
3668.841674737128
 20
3440
 30
0
 41
1
 42
1
 43
0
 50
0
 70
    1
 71
    1
 44
1
 45
1
  0
INSERT
  5
374
100
AcDbEntity
  8
Geländer2
  6
ByLayer
 62
  256
370
   -1
100
AcDbBlockReference
  2
Geländer_Flansch-1_Stab
 10
3810.876744517841
 20
3440
 30
0
 41
1
 42
1
 43
0
 50
0
 70
    1
 71
    1
 44
1
 45
1
  0
INSERT
  5
375
100
AcDbEntity
  8
Geländer2
  6
ByLayer
 62
  256
370
   -1
100
AcDbBlockReference
  2
Geländer_Flansch-1_Stab
 10
3952.911814298554
 20
3440
 30
0
 41
1
 42
1
 43
0
 50
0
 70
    1
 71
    1
 44
1
 45
1
  0
INSERT
  5
376
100
AcDbEntity
  8
Geländer2
  6
ByLayer
 62
  256
370
   -1
100
AcDbBlockReference
  2
Geländer_Flansch-1_Stab
 10
4236.981953859981
 20
3440
 30
0
 41
1
 42
1
 43
0
 50
0
 70
    1
 71
    1
 44
1
 45
1
  0
INSERT
  5
377
100
AcDbEntity
  8
Geländer2
  6
ByLayer
 62
  256
370
   -1
100
AcDbBlockReference
  2
Geländer_Flansch-1_Stab
 10
4379.017023640695
 20
3440
 30
0
 41
1
 42
1
 43
0
 50
0
 70
    1
 71
    1
 44
1
 45
1
  0
INSERT
  5
378
100
AcDbEntity
  8
Geländer2
  6
ByLayer
 62
  256
370
   -1
100
AcDbBlockReference
  2
Geländer_Flansch-1_Stab
 10
4521.052093421408
 20
3440
 30
0
 41
1
 42
1
 43
0
 50
0
 70
    1
 71
    1
 44
1
 45
1
  0
INSERT
  5
379
100
AcDbEntity
  8
Geländer2
  6
ByLayer
 62
  256
370
   -1
100
AcDbBlockReference
  2
Geländer_Flansch-1_Stab
 10
4663.087163202123
 20
3440
 30
0
 41
1
 42
1
 43
0
 50
0
 70
    1
 71
    1
 44
1
 45
1
  0
INSERT
  5
37A
100
AcDbEntity
  8
Geländer2
  6
ByLayer
 62
  256
370
   -1
100
AcDbBlockReference
  2
Geländer_Flansch-1_Stab
 10
4805.122232982836
 20
3440
 30
0
 41
1
 42
1
 43
0
 50
0
 70
    1
 71
    1
 44
1
 45
1
  0
INSERT
  5
37B
100
AcDbEntity
  8
Geländer2
  6
ByLayer
 62
  256
370
   -1
100
AcDbBlockReference
  2
Geländer_Flansch-1_Stab
 10
4947.15730276355
 20
3440
 30
0
 41
1
 42
1
 43
0
 50
0
 70
    1
 71
    1
 44
1
 45
1
  0
INSERT
  5
37C
100
AcDbEntity
  8
Geländer2
  6
ByLayer
 62
  256
370
   -1
100
AcDbBlockReference
  2
Geländer_Flansch-1_Stab
 10
5089.192372544263
 20
3440
 30
0
 41
1
 42
1
 43
0
 50
0
 70
    1
 71
    1
 44
1
 45
1
  0
INSERT
  5
37D
100
AcDbEntity
  8
Geländer2
  6
ByLayer
 62
  256
370
   -1
100
AcDbBlockReference
  2
Geländer_Flansch-1_Stab
 10
5231.227442324976
 20
3440
 30
0
 41
1
 42
1
 43
0
 50
0
 70
    1
 71
    1
 44
1
 45
1
  0
INSERT
  5
37E
100
AcDbEntity
  8
Geländer2
  6
ByLayer
 62
  256
370
   -1
100
AcDbBlockReference
  2
Geländer_Flansch-1_Stab
 10
5515.297581886404
 20
3440
 30
0
 41
1
 42
1
 43
0
 50
0
 70
    1
 71
    1
 44
1
 45
1
  0
INSERT
  5
37F
100
AcDbEntity
  8
Geländer2
  6
ByLayer
 62
  256
370
   -1
100
AcDbBlockReference
  2
Geländer_Flansch-1_Stab
 10
5656
 20
3440
 30
0
 41
1
 42
1
 43
0
 50
0
 70
    1
 71
    1
 44
1
 45
1
  0
LINE
  5
380
100
AcDbEntity
  8
Geländer2
  6
ByLayer
 62
  256
370
   -1
100
AcDbLine
 10
5640
 20
2920
 11
5640
 21
4158.000000000164
  0
LINE
  5
381
100
AcDbEntity
  8
Geländer2
  6
ByLayer
 62
  256
370
   -1
100
AcDbLine
 10
5672
 20
2920
 11
5672
 21
4157.999999999952
  0
LINE
  5
382
100
AcDbEntity
  8
Geländer2
  6
ByLayer
 62
  256
370
   -1
100
AcDbLine
 10
6140
 20
2920
 11
6140
 21
4158.00000000057
  0
LINE
  5
383
100
AcDbEntity
  8
Geländer2
  6
ByLayer
 62
  256
370
   -1
100
AcDbLine
 10
6108
 20
2920
 11
6108
 21
4157.999999999689
  0
LINE
  5
384
100
AcDbEntity
  8
Geländer2
  6
ByLayer
 62
  256
370
   -1
100
AcDbLine
 10
259.9999999999998
 20
3440
 11
5656
 21
3440
  0
INSERT
  5
385
100
AcDbEntity
  8
Geländer3
  6
ByLayer
 62
  256
370
   -1
100
AcDbBlockReference
  2
Geländer_Flansch-4
 10
5373.262512105691
 20
3000
 30
0
 41
1
 42
1
 43
0
 50
0
 70
    1
 71
    1
 44
1
 45
1
  0
INSERT
  5
386
100
AcDbEntity
  8
Geländer3
  6
ByLayer
 62
  256
370
   -1
100
AcDbBlockReference
  2
Geländer_Flansch-4
 10
259.9999999999998
 20
3000
 30
0
 41
1
 42
1
 43
0
 50
0
 70
    1
 71
    1
 44
1
 45
1
  0
LINE
  5
387
100
AcDbEntity
  8
Geländer3
  6
ByLayer
 62
  256
370
   -1
100
AcDbLine
 10
6140.000000000001
 20
2920
 11
6140.000000000001
 21
4070
  0
LINE
  5
388
100
AcDbEntity
  8
Geländer3
  6
ByLayer
 62
  256
370
   -1
100
AcDbLine
 10
6108.000000000001
 20
2920
 11
6108.000000000001
 21
4070
  0
LINE
  5
389
100
AcDbEntity
  8
Geländer3
  6
ByLayer
 62
  256
370
   -1
100
AcDbLine
 10
6140.000000000001
 20
2920
 11
6108.000000000001
 21
2920
  0
LINE
  5
38A
100
AcDbEntity
  8
Geländer3
  6
ByLayer
 62
  256
370
   -1
100
AcDbLine
 10
6140.000000000001
 20
4070
 11
6108.000000000001
 21
4070
  0
CIRCLE
  5
38B
100
AcDbEntity
  8
Geländer3
  6
ByLayer
 62
  256
370
   -1
100
AcDbCircle
 10
6124.000000000001
 20
4170
 40
20
  0
LINE
  5
38C
100
AcDbEntity
  8
Geländer3
  6
ByLayer
 62
  256
370
   -1
100
AcDbLine
 10
6140.000000000001
 20
2960
 11
6200.000000000001
 21
2960
  0
LINE
  5
38D
100
AcDbEntity
  8
Geländer3
  6
ByLayer
 62
  256
370
   -1
100
AcDbLine
 10
5640.000000000001
 20
2920
 11
5640.000000000001
 21
4070
  0
LINE
  5
38E
100
AcDbEntity
  8
Geländer3
  6
ByLayer
 62
  256
370
   -1
100
AcDbLine
 10
5672.000000000001
 20
2920
 11
5672.000000000001
 21
4070
  0
LINE
  5
38F
100
AcDbEntity
  8
Geländer3
  6
ByLayer
 62
  256
370
   -1
100
AcDbLine
 10
5640.000000000001
 20
2920
 11
5672.000000000001
 21
2920
  0
CIRCLE
  5
390
100
AcDbEntity
  8
Geländer3
  6
ByLayer
 62
  256
370
   -1
100
AcDbCircle
 10
5656.000000000001
 20
4170
 40
20
  0
LINE
  5
391
100
AcDbEntity
  8
Geländer3
  6
ByLayer
 62
  256
370
   -1
100
AcDbLine
 10
5640.000000000001
 20
2960
 11
5580.000000000001
 21
2960
  0
LINE
  5
392
100
AcDbEntity
  8
Geländer3
  6
ByLayer
 62
  256
370
   -1
100
AcDbLine
 10
59.99999999999977
 20
4190
 11
5656.000000000001
 21
4190
  0
LINE
  5
393
100
AcDbEntity
  8
Geländer3
  6
ByLayer
 62
  256
370
   -1
100
AcDbLine
 10
59.99999999999977
 20
4150
 11
5656.00008974211
 21
4150
  0
LINE
  5
394
100
AcDbEntity
  8
Geländer3
  6
ByLayer
 62
  256
370
   -1
100
AcDbLine
 10
5640.000000000001
 20
3080
 11
5570.000000000001
 21
3080
  0
LINE
  5
395
100
AcDbEntity
  8
Geländer3
  6
ByLayer
 62
  256
370
   -1
100
AcDbLine
 10
5640.000000000001
 20
3040
 11
5570.000000000001
 21
3040
  0
LINE
  5
396
100
AcDbEntity
  8
Geländer3
  6
ByLayer
 62
  256
370
   -1
100
AcDbLine
 10
5640.000000000001
 20
2920
 11
5570.000000000001
 21
2920
  0
MTEXT
  5
397
100
AcDbEntity
  8
Geländer3
  6
ByLayer
 62
  256
370
   -1
100
AcDbMText
 10
2201.396460692353
 20
4237.904941951852
 30
0
 40
40
 41
1210.00005727004
 71
    7
 72
    1
  1
Absturzsicherung neu (Geländer Chromstahl)
  7
standard
210
0
220
0
230
1
 50
0
 73
    2
 44
1
  0
LINE
  5
398
100
AcDbEntity
  8
Geländer3
  6
ByLayer
 62
  256
370
   -1
100
AcDbLine
 10
6140.000000000001
 20
2920
 11
6108.000000000001
 21
2920
  0
LINE
  5
399
100
AcDbEntity
  8
Geländer3
  6
ByLayer
 62
  256
370
   -1
100
AcDbLine
 10
6140.000000000001
 20
4070
 11
6108.000000000001
 21
4070
  0
CIRCLE
  5
39A
100
AcDbEntity
  8
Geländer3
  6
ByLayer
 62
  256
370
   -1
100
AcDbCircle
 10
6124.000000000001
 20
4170
 40
20
  0
LINE
  5
39B
100
AcDbEntity
  8
Geländer3
  6
ByLayer
 62
  256
370
   -1
100
AcDbLine
 10
6140.000000000001
 20
2960
 11
6200.000000000001
 21
2960
  0
LINE
  5
39C
100
AcDbEntity
  8
Geländer3
  6
ByLayer
 62
  256
370
   -1
100
AcDbLine
 10
5640.000000000001
 20
2920
 11
5672.000000000001
 21
2920
  0
CIRCLE
  5
39D
100
AcDbEntity
  8
Geländer3
  6
ByLayer
 62
  256
370
   -1
100
AcDbCircle
 10
5656.000000000001
 20
4170
 40
20
  0
LINE
  5
39E
100
AcDbEntity
  8
Geländer3
  6
ByLayer
 62
  256
370
   -1
100
AcDbLine
 10
5640.000000000001
 20
2960
 11
5580.000000000001
 21
2960
  0
LINE
  5
39F
100
AcDbEntity
  8
Geländer3
  6
ByLayer
 62
  256
370
   -1
100
AcDbLine
 10
59.99999999999977
 20
4190
 11
5656.000000000001
 21
4190
  0
LINE
  5
3A0
100
AcDbEntity
  8
Geländer3
  6
ByLayer
 62
  256
370
   -1
100
AcDbLine
 10
59.99999999999977
 20
4150
 11
5656.00008974211
 21
4150
  0
LINE
  5
3A1
100
AcDbEntity
  8
Geländer3
  6
ByLayer
 62
  256
370
   -1
100
AcDbLine
 10
5640.000000000001
 20
3080
 11
5570.000000000001
 21
3080
  0
LINE
  5
3A2
100
AcDbEntity
  8
Geländer3
  6
ByLayer
 62
  256
370
   -1
100
AcDbLine
 10
5640.000000000001
 20
3040
 11
5570.000000000001
 21
3040
  0
LINE
  5
3A3
100
AcDbEntity
  8
Geländer3
  6
ByLayer
 62
  256
370
   -1
100
AcDbLine
 10
5640.000000000001
 20
2920
 11
5570.000000000001
 21
2920
  0
INSERT
  5
3A4
100
AcDbEntity
  8
Geländer3
  6
ByLayer
 62
  256
370
   -1
100
AcDbBlockReference
  2
Geländer_Flansch-4
 10
1538.315628026422
 20
3000
 30
0
 41
1
 42
1
 43
0
 50
0
 70
    1
 71
    1
 44
1
 45
1
  0
INSERT
  5
3A5
100
AcDbEntity
  8
Geländer3
  6
ByLayer
 62
  256
370
   -1
100
AcDbBlockReference
  2
Geländer_Flansch-4
 10
2816.631256052845
 20
3000
 30
0
 41
1
 42
1
 43
0
 50
0
 70
    1
 71
    1
 44
1
 45
1
  0
INSERT
  5
3A6
100
AcDbEntity
  8
Geländer3
  6
ByLayer
 62
  256
370
   -1
100
AcDbBlockReference
  2
Geländer_Flansch-4
 10
4094.946884079267
 20
3000
 30
0
 41
1
 42
1
 43
0
 50
0
 70
    1
 71
    1
 44
1
 45
1
  0
LINE
  5
3A7
100
AcDbEntity
  8
Geländer3
  6
ByLayer
 62
  256
370
   -1
100
AcDbLine
 10
5640.000000000001
 20
2920
 11
5640.000000000001
 21
4158.000000000164
  0
LINE
  5
3A8
100
AcDbEntity
  8
Geländer3
  6
ByLayer
 62
  256
370
   -1
100
AcDbLine
 10
5672.000000000001
 20
2920
 11
5672.000000000001
 21
4157.999999999953
  0
LINE
  5
3A9
100
AcDbEntity
  8
Geländer3
  6
ByLayer
 62
  256
370
   -1
100
AcDbLine
 10
6140.000000000001
 20
2920
 11
6140.000000000001
 21
4158.000000000571
  0
LINE
  5
3AA
100
AcDbEntity
  8
Geländer3
  6
ByLayer
 62
  256
370
   -1
100
AcDbLine
 10
6108.000000000001
 20
2920
 11
6108.000000000001
 21
4157.999999999689
  0
INSERT
  5
3AB
100
AcDbEntity
  8
Geländer3
  6
ByLayer
 62
  256
370
   -1
100
AcDbBlockReference
  2
Geländer_Flansch-3_Stab
 10
402.0350697807143
 20
3440
 30
0
 41
1
 42
1
 43
0
 50
0
 70
    1
 71
    1
 44
1
 45
1
  0
INSERT
  5
3AC
100
AcDbEntity
  8
Geländer3
  6
ByLayer
 62
  256
370
   -1
100
AcDbBlockReference
  2
Geländer_Flansch-3_Stab
 10
544.0701395614278
 20
3440
 30
0
 41
1
 42
1
 43
0
 50
0
 70
    1
 71
    1
 44
1
 45
1
  0
INSERT
  5
3AD
100
AcDbEntity
  8
Geländer3
  6
ByLayer
 62
  256
370
   -1
100
AcDbBlockReference
  2
Geländer_Flansch-3_Stab
 10
686.1052093421413
 20
3440
 30
0
 41
1
 42
1
 43
0
 50
0
 70
    1
 71
    1
 44
1
 45
1
  0
INSERT
  5
3AE
100
AcDbEntity
  8
Geländer3
  6
ByLayer
 62
  256
370
   -1
100
AcDbBlockReference
  2
Geländer_Flansch-3_Stab
 10
828.140279122855
 20
3440
 30
0
 41
1
 42
1
 43
0
 50
0
 70
    1
 71
    1
 44
1
 45
1
  0
INSERT
  5
3AF
100
AcDbEntity
  8
Geländer3
  6
ByLayer
 62
  256
370
   -1
100
AcDbBlockReference
  2
Geländer_Flansch-3_Stab
 10
970.1753489035682
 20
3440
 30
0
 41
1
 42
1
 43
0
 50
0
 70
    1
 71
    1
 44
1
 45
1
  0
INSERT
  5
3B0
100
AcDbEntity
  8
Geländer3
  6
ByLayer
 62
  256
370
   -1
100
AcDbBlockReference
  2
Geländer_Flansch-3_Stab
 10
1112.210418684282
 20
3440
 30
0
 41
1
 42
1
 43
0
 50
0
 70
    1
 71
    1
 44
1
 45
1
  0
INSERT
  5
3B1
100
AcDbEntity
  8
Geländer3
  6
ByLayer
 62
  256
370
   -1
100
AcDbBlockReference
  2
Geländer_Flansch-3_Stab
 10
1254.245488464995
 20
3440
 30
0
 41
1
 42
1
 43
0
 50
0
 70
    1
 71
    1
 44
1
 45
1
  0
INSERT
  5
3B2
100
AcDbEntity
  8
Geländer3
  6
ByLayer
 62
  256
370
   -1
100
AcDbBlockReference
  2
Geländer_Flansch-3_Stab
 10
1396.280558245709
 20
3440
 30
0
 41
1
 42
1
 43
0
 50
0
 70
    1
 71
    1
 44
1
 45
1
  0
INSERT
  5
3B3
100
AcDbEntity
  8
Geländer3
  6
ByLayer
 62
  256
370
   -1
100
AcDbBlockReference
  2
Geländer_Flansch-3_Stab
 10
1680.350697807138
 20
3440
 30
0
 41
1
 42
1
 43
0
 50
0
 70
    1
 71
    1
 44
1
 45
1
  0
INSERT
  5
3B4
100
AcDbEntity
  8
Geländer3
  6
ByLayer
 62
  256
370
   -1
100
AcDbBlockReference
  2
Geländer_Flansch-3_Stab
 10
1822.385767587851
 20
3440
 30
0
 41
1
 42
1
 43
0
 50
0
 70
    1
 71
    1
 44
1
 45
1
  0
INSERT
  5
3B5
100
AcDbEntity
  8
Geländer3
  6
ByLayer
 62
  256
370
   -1
100
AcDbBlockReference
  2
Geländer_Flansch-3_Stab
 10
1964.420837368564
 20
3440
 30
0
 41
1
 42
1
 43
0
 50
0
 70
    1
 71
    1
 44
1
 45
1
  0
INSERT
  5
3B6
100
AcDbEntity
  8
Geländer3
  6
ByLayer
 62
  256
370
   -1
100
AcDbBlockReference
  2
Geländer_Flansch-3_Stab
 10
2106.455907149278
 20
3440
 30
0
 41
1
 42
1
 43
0
 50
0
 70
    1
 71
    1
 44
1
 45
1
  0
INSERT
  5
3B7
100
AcDbEntity
  8
Geländer3
  6
ByLayer
 62
  256
370
   -1
100
AcDbBlockReference
  2
Geländer_Flansch-3_Stab
 10
2248.490976929991
 20
3440
 30
0
 41
1
 42
1
 43
0
 50
0
 70
    1
 71
    1
 44
1
 45
1
  0
INSERT
  5
3B8
100
AcDbEntity
  8
Geländer3
  6
ByLayer
 62
  256
370
   -1
100
AcDbBlockReference
  2
Geländer_Flansch-3_Stab
 10
2390.526046710705
 20
3440
 30
0
 41
1
 42
1
 43
0
 50
0
 70
    1
 71
    1
 44
1
 45
1
  0
INSERT
  5
3B9
100
AcDbEntity
  8
Geländer3
  6
ByLayer
 62
  256
370
   -1
100
AcDbBlockReference
  2
Geländer_Flansch-3_Stab
 10
2532.561116491418
 20
3440
 30
0
 41
1
 42
1
 43
0
 50
0
 70
    1
 71
    1
 44
1
 45
1
  0
INSERT
  5
3BA
100
AcDbEntity
  8
Geländer3
  6
ByLayer
 62
  256
370
   -1
100
AcDbBlockReference
  2
Geländer_Flansch-3_Stab
 10
2674.596186272131
 20
3440
 30
0
 41
1
 42
1
 43
0
 50
0
 70
    1
 71
    1
 44
1
 45
1
  0
INSERT
  5
3BB
100
AcDbEntity
  8
Geländer3
  6
ByLayer
 62
  256
370
   -1
100
AcDbBlockReference
  2
Geländer_Flansch-3_Stab
 10
2958.666325833559
 20
3440
 30
0
 41
1
 42
1
 43
0
 50
0
 70
    1
 71
    1
 44
1
 45
1
  0
INSERT
  5
3BC
100
AcDbEntity
  8
Geländer3
  6
ByLayer
 62
  256
370
   -1
100
AcDbBlockReference
  2
Geländer_Flansch-3_Stab
 10
3100.701395614273
 20
3440
 30
0
 41
1
 42
1
 43
0
 50
0
 70
    1
 71
    1
 44
1
 45
1
  0
INSERT
  5
3BD
100
AcDbEntity
  8
Geländer3
  6
ByLayer
 62
  256
370
   -1
100
AcDbBlockReference
  2
Geländer_Flansch-3_Stab
 10
3242.736465394986
 20
3440
 30
0
 41
1
 42
1
 43
0
 50
0
 70
    1
 71
    1
 44
1
 45
1
  0
INSERT
  5
3BE
100
AcDbEntity
  8
Geländer3
  6
ByLayer
 62
  256
370
   -1
100
AcDbBlockReference
  2
Geländer_Flansch-3_Stab
 10
3384.7715351757
 20
3440
 30
0
 41
1
 42
1
 43
0
 50
0
 70
    1
 71
    1
 44
1
 45
1
  0
INSERT
  5
3BF
100
AcDbEntity
  8
Geländer3
  6
ByLayer
 62
  256
370
   -1
100
AcDbBlockReference
  2
Geländer_Flansch-3_Stab
 10
3526.806604956414
 20
3440
 30
0
 41
1
 42
1
 43
0
 50
0
 70
    1
 71
    1
 44
1
 45
1
  0
INSERT
  5
3C0
100
AcDbEntity
  8
Geländer3
  6
ByLayer
 62
  256
370
   -1
100
AcDbBlockReference
  2
Geländer_Flansch-3_Stab
 10
3668.841674737128
 20
3440
 30
0
 41
1
 42
1
 43
0
 50
0
 70
    1
 71
    1
 44
1
 45
1
  0
INSERT
  5
3C1
100
AcDbEntity
  8
Geländer3
  6
ByLayer
 62
  256
370
   -1
100
AcDbBlockReference
  2
Geländer_Flansch-3_Stab
 10
3810.876744517841
 20
3440
 30
0
 41
1
 42
1
 43
0
 50
0
 70
    1
 71
    1
 44
1
 45
1
  0
INSERT
  5
3C2
100
AcDbEntity
  8
Geländer3
  6
ByLayer
 62
  256
370
   -1
100
AcDbBlockReference
  2
Geländer_Flansch-3_Stab
 10
3952.911814298554
 20
3440
 30
0
 41
1
 42
1
 43
0
 50
0
 70
    1
 71
    1
 44
1
 45
1
  0
INSERT
  5
3C3
100
AcDbEntity
  8
Geländer3
  6
ByLayer
 62
  256
370
   -1
100
AcDbBlockReference
  2
Geländer_Flansch-3_Stab
 10
4236.981953859981
 20
3440
 30
0
 41
1
 42
1
 43
0
 50
0
 70
    1
 71
    1
 44
1
 45
1
  0
INSERT
  5
3C4
100
AcDbEntity
  8
Geländer3
  6
ByLayer
 62
  256
370
   -1
100
AcDbBlockReference
  2
Geländer_Flansch-3_Stab
 10
4379.017023640696
 20
3440
 30
0
 41
1
 42
1
 43
0
 50
0
 70
    1
 71
    1
 44
1
 45
1
  0
INSERT
  5
3C5
100
AcDbEntity
  8
Geländer3
  6
ByLayer
 62
  256
370
   -1
100
AcDbBlockReference
  2
Geländer_Flansch-3_Stab
 10
4521.052093421409
 20
3440
 30
0
 41
1
 42
1
 43
0
 50
0
 70
    1
 71
    1
 44
1
 45
1
  0
INSERT
  5
3C6
100
AcDbEntity
  8
Geländer3
  6
ByLayer
 62
  256
370
   -1
100
AcDbBlockReference
  2
Geländer_Flansch-3_Stab
 10
4663.087163202124
 20
3440
 30
0
 41
1
 42
1
 43
0
 50
0
 70
    1
 71
    1
 44
1
 45
1
  0
INSERT
  5
3C7
100
AcDbEntity
  8
Geländer3
  6
ByLayer
 62
  256
370
   -1
100
AcDbBlockReference
  2
Geländer_Flansch-3_Stab
 10
4805.122232982837
 20
3440
 30
0
 41
1
 42
1
 43
0
 50
0
 70
    1
 71
    1
 44
1
 45
1
  0
INSERT
  5
3C8
100
AcDbEntity
  8
Geländer3
  6
ByLayer
 62
  256
370
   -1
100
AcDbBlockReference
  2
Geländer_Flansch-3_Stab
 10
4947.157302763551
 20
3440
 30
0
 41
1
 42
1
 43
0
 50
0
 70
    1
 71
    1
 44
1
 45
1
  0
INSERT
  5
3C9
100
AcDbEntity
  8
Geländer3
  6
ByLayer
 62
  256
370
   -1
100
AcDbBlockReference
  2
Geländer_Flansch-3_Stab
 10
5089.192372544264
 20
3440
 30
0
 41
1
 42
1
 43
0
 50
0
 70
    1
 71
    1
 44
1
 45
1
  0
INSERT
  5
3CA
100
AcDbEntity
  8
Geländer3
  6
ByLayer
 62
  256
370
   -1
100
AcDbBlockReference
  2
Geländer_Flansch-3_Stab
 10
5231.227442324977
 20
3440
 30
0
 41
1
 42
1
 43
0
 50
0
 70
    1
 71
    1
 44
1
 45
1
  0
INSERT
  5
3CB
100
AcDbEntity
  8
Geländer3
  6
ByLayer
 62
  256
370
   -1
100
AcDbBlockReference
  2
Geländer_Flansch-3_Stab
 10
5515.297581886405
 20
3440
 30
0
 41
1
 42
1
 43
0
 50
0
 70
    1
 71
    1
 44
1
 45
1
  0
INSERT
  5
3CC
100
AcDbEntity
  8
Geländer3
  6
ByLayer
 62
  256
370
   -1
100
AcDbBlockReference
  2
Geländer_Flansch-3_Stab
 10
5656.000000000001
 20
3440
 30
0
 41
1
 42
1
 43
0
 50
0
 70
    1
 71
    1
 44
1
 45
1
  0
LINE
  5
3CD
100
AcDbEntity
  8
Geländer3
  6
ByLayer
 62
  256
370
   -1
100
AcDbLine
 10
259.9999999999998
 20
4070
 11
5656.000000000001
 21
4070
  0
LINE
  5
3CE
100
AcDbEntity
  8
Geländer3
  6
ByLayer
 62
  256
370
   -1
100
AcDbLine
 10
259.9999999999998
 20
4040
 11
5656.000000000001
 21
4040
  0
LINE
  5
3CF
100
AcDbEntity
  8
Geländer3
  6
ByLayer
 62
  256
370
   -1
100
AcDbLine
 10
259.9999999999998
 20
3370
 11
5656.000000000001
 21
3370
  0
LINE
  5
3D0
100
AcDbEntity
  8
Geländer3
  6
ByLayer
 62
  256
370
   -1
100
AcDbLine
 10
259.9999999999998
 20
3400
 11
5656.000000000001
 21
3400
  0
DIMENSION
  5
3D1
100
AcDbEntity
  8
Masse Baubewilligung
  6
ByLayer
 62
  256
370
   -1
100
AcDbDimension
  2
*D20
 10
184.6442394774684
 20
3370
 30
0
 11
147.1442394774684
 21
3330
 31
0
 70
   32
 71
    5
  3
Standard
 53
0
210
0
220
0
230
1
100
AcDbAlignedDimension
 13
243.9999999999998
 23
3290
 33
0
 14
259.9999999999998
 24
3370
 34
0
 50
90
100
AcDbRotatedDimension
  0
LINE
  5
3D2
100
AcDbEntity
  8
Geländer3
  6
ByLayer
 62
  256
370
   -1
100
AcDbLine
 10
6140.000000000001
 20
3080
 11
6200
 21
3080
  0
LINE
  5
3D3
100
AcDbEntity
  8
Geländer3
  6
ByLayer
 62
  256
370
   -1
100
AcDbLine
 10
6140.000000000001
 20
3040
 11
6200
 21
3040
  0
LINE
  5
3D4
100
AcDbEntity
  8
Geländer3
  6
ByLayer
 62
  256
370
   -1
100
AcDbLine
 10
6140.000000000001
 20
2920
 11
6200
 21
2920
  0
LINE
  5
3D5
100
AcDbEntity
  8
Geländer3
  6
DASHED2
 62
  256
370
   -1
100
AcDbLine
 10
6200.000000000001
 20
2960
 11
6321.999999999997
 21
2960
  0
LINE
  5
3D6
100
AcDbEntity
  8
Geländer3
  6
DASHED2
 62
  256
370
   -1
100
AcDbLine
 10
6321.999999999997
 20
3086
 11
6329.999999999997
 21
3086
  0
LINE
  5
3D7
100
AcDbEntity
  8
Geländer3
  6
DASHED2
 62
  256
370
   -1
100
AcDbLine
 10
6329.999999999997
 20
2914
 11
6321.999999999997
 21
2914
  0
LINE
  5
3D8
100
AcDbEntity
  8
Geländer3
  6
DASHED2
 62
  256
370
   -1
100
AcDbLine
 10
6321.999999999997
 20
2914
 11
6321.999999999997
 21
3086
  0
LINE
  5
3D9
100
AcDbEntity
  8
Geländer3
  6
DASHED2
 62
  256
370
   -1
100
AcDbLine
 10
6200.000000000001
 20
2960
 11
6321.999999999997
 21
2960
  0
LINE
  5
3DA
100
AcDbEntity
  8
Geländer3
  6
DASHED2
 62
  256
370
   -1
100
AcDbLine
 10
6321.999999999997
 20
3086
 11
6329.999999999997
 21
3086
  0
LINE
  5
3DB
100
AcDbEntity
  8
Geländer3
  6
DASHED2
 62
  256
370
   -1
100
AcDbLine
 10
6329.999999999997
 20
2914
 11
6321.999999999997
 21
2914
  0
LINE
  5
3DC
100
AcDbEntity
  8
Geländer3
  6
DASHED2
 62
  256
370
   -1
100
AcDbLine
 10
6321.999999999997
 20
2914
 11
6321.999999999997
 21
3086
  0
LINE
  5
3DD
100
AcDbEntity
  8
Geländer3
  6
DASHED2
 62
  256
370
   -1
100
AcDbLine
 10
6200
 20
3080
 11
6321.999999999997
 21
3080
  0
LINE
  5
3DE
100
AcDbEntity
  8
Geländer3
  6
DASHED2
 62
  256
370
   -1
100
AcDbLine
 10
6200
 20
3040
 11
6321.999999999997
 21
3040
  0
LINE
  5
3DF
100
AcDbEntity
  8
Geländer3
  6
DASHED2
 62
  256
370
   -1
100
AcDbLine
 10
6200
 20
2920
 11
6321.999999999997
 21
2920
  0
LINE
  5
3E0
100
AcDbEntity
  8
Geländer_unsichtbar
  6
DASHED2
 62
  256
370
   -1
100
AcDbLine
 10
5570
 20
3080
 11
5570
 21
3040
  0
LINE
  5
3E1
100
AcDbEntity
  8
Geländer_unsichtbar
  6
DASHED2
 62
  256
370
   -1
100
AcDbLine
 10
5570
 20
3040
 11
5570
 21
2960
  0
LINE
  5
3E2
100
AcDbEntity
  8
Geländer_unsichtbar
  6
DASHED2
 62
  256
370
   -1
100
AcDbLine
 10
5570
 20
2960
 11
5570
 21
2920
  0
LINE
  5
3E3
100
AcDbEntity
  8
Geländer_unsichtbar
  6
DASHED2
 62
  256
370
   -1
100
AcDbLine
 10
5450.000000000001
 20
3086
 11
5450.000000000001
 21
2914
  0
LINE
  5
3E4
100
AcDbEntity
  8
Geländer_unsichtbar
  6
DASHED2
 62
  256
370
   -1
100
AcDbLine
 10
5458.000000000001
 20
3086
 11
5450.000000000001
 21
3086
  0
LINE
  5
3E5
100
AcDbEntity
  8
Geländer_unsichtbar
  6
DASHED2
 62
  256
370
   -1
100
AcDbLine
 10
5450.000000000001
 20
2914
 11
5458.000000000001
 21
2914
  0
LINE
  5
3E6
100
AcDbEntity
  8
Geländer_unsichtbar
  6
DASHED2
 62
  256
370
   -1
100
AcDbLine
 10
5458.000000000001
 20
2914
 11
5458.000000000001
 21
3086
  0
LINE
  5
3E7
100
AcDbEntity
  8
Geländer_unsichtbar
  6
DASHED2
 62
  256
370
   -1
100
AcDbLine
 10
5450.000000000001
 20
3086
 11
5450.000000000001
 21
2914
  0
LINE
  5
3E8
100
AcDbEntity
  8
Geländer_unsichtbar
  6
DASHED2
 62
  256
370
   -1
100
AcDbLine
 10
5570.000000000001
 20
3080
 11
5458.000000000001
 21
3080
  0
LINE
  5
3E9
100
AcDbEntity
  8
Geländer_unsichtbar
  6
DASHED2
 62
  256
370
   -1
100
AcDbLine
 10
5570.000000000001
 20
3040
 11
5458.000000000001
 21
3040
  0
LINE
  5
3EA
100
AcDbEntity
  8
Geländer_unsichtbar
  6
DASHED2
 62
  256
370
   -1
100
AcDbLine
 10
5570.000000000001
 20
2960
 11
5458.000000000001
 21
2960
  0
LINE
  5
3EB
100
AcDbEntity
  8
Geländer_unsichtbar
  6
DASHED2
 62
  256
370
   -1
100
AcDbLine
 10
5570.000000000001
 20
2920
 11
5458.000000000001
 21
2920
  0
LINE
  5
3EC
100
AcDbEntity
  8
Geländer_unsichtbar
  6
DASHED2
 62
  256
370
   -1
100
AcDbLine
 10
5580.000000000001
 20
2960
 11
5570.000000000001
 21
2960
  0
LINE
  5
3ED
100
AcDbEntity
  8
Geländer_unsichtbar
  6
DASHED2
 62
  256
370
   -1
100
AcDbLine
 10
5580.000000000001
 20
2960
 11
5570.000000000001
 21
2960
  0
LINE
  5
3EE
100
AcDbEntity
  8
Isolatio_neu
  6
ByLayer
 62
  256
370
   -1
100
AcDbLine
 10
5570
 20
3270
 11
5570
 21
2920
  0
LINE
  5
3EF
100
AcDbEntity
  8
Isolatio_neu
  6
ByLayer
 62
  256
370
   -1
100
AcDbLine
 10
6200
 20
3270
 11
6200
 21
2920
  0
ENDSEC
  0
SECTION
  2
OBJECTS
  0
DICTIONARY
  5
C
330
0
100
AcDbDictionary
281
    1
  3
ACAD_GROUP
350
D
  0
DICTIONARY
  5
D
330
C
100
AcDbDictionary
281
    1
  0
ENDSEC
  0
EOF
